<?xml version="1.0" encoding="UTF-8" standalone="no"?>
<svg
   xmlns:dc="http://purl.org/dc/elements/1.1/"
   xmlns:cc="http://creativecommons.org/ns#"
   xmlns:rdf="http://www.w3.org/1999/02/22-rdf-syntax-ns#"
   xmlns:svg="http://www.w3.org/2000/svg"
   xmlns="http://www.w3.org/2000/svg"
   xmlns:sodipodi="http://sodipodi.sourceforge.net/DTD/sodipodi-0.dtd"
   xmlns:inkscape="http://www.inkscape.org/namespaces/inkscape"
   viewBox="0 0 32 32"
   version="1.1"
   id="svg1013"
   sodipodi:docname="check-mark.svg"
   inkscape:version="1.0.2 (e86c8708, 2021-01-15)">
  <metadata
     id="metadata1017">
    <rdf:RDF>
      <cc:Work
         rdf:about="">
        <dc:format>image/svg+xml</dc:format>
        <dc:type
           rdf:resource="http://purl.org/dc/dcmitype/StillImage" />
      </cc:Work>
    </rdf:RDF>
  </metadata>
  <sodipodi:namedview
     pagecolor="#ffffff"
     bordercolor="#666666"
     borderopacity="1"
     objecttolerance="10"
     gridtolerance="10"
     guidetolerance="10"
     inkscape:pageopacity="0"
     inkscape:pageshadow="2"
     inkscape:window-width="1440"
     inkscape:window-height="785"
     id="namedview1015"
     showgrid="false"
     inkscape:zoom="10.097635"
     inkscape:cx="-9.488467"
     inkscape:cy="19.57405"
     inkscape:window-x="0"
     inkscape:window-y="25"
     inkscape:window-maximized="1"
     inkscape:current-layer="Layer_28"
     inkscape:document-rotation="0" />
  <defs
     id="defs1004">
    <style
       id="style1002">.cls-1{fill:#101820;}</style>
  </defs>
  <title
     id="title1006" />
  <g
     data-name="Layer 28"
     id="Layer_28">
    <path
       class="cls-1"
       d="M16,31A15,15,0,1,1,31,16,15,15,0,0,1,16,31ZM16,3A13,13,0,1,0,29,16,13,13,0,0,0,16,3Z"
       id="path1008"
       style="fill:#98c33e;fill-opacity:1" />
    <path
       class="cls-1"
       d="M13.67,22a1,1,0,0,1-.73-.32l-4.67-5a1,1,0,0,1,1.46-1.36l3.94,4.21,8.6-9.21a1,1,0,1,1,1.46,1.36l-9.33,10A1,1,0,0,1,13.67,22Z"
       id="path1010"
       style="fill:#98c33e;fill-opacity:1" />
  </g>
</svg>
