<?xml version="1.0" encoding="UTF-8" standalone="no"?>
<svg
   xmlns:osb="http://www.openswatchbook.org/uri/2009/osb"
   xmlns:dc="http://purl.org/dc/elements/1.1/"
   xmlns:cc="http://creativecommons.org/ns#"
   xmlns:rdf="http://www.w3.org/1999/02/22-rdf-syntax-ns#"
   xmlns:svg="http://www.w3.org/2000/svg"
   xmlns="http://www.w3.org/2000/svg"
   xmlns:xlink="http://www.w3.org/1999/xlink"
   xmlns:sodipodi="http://sodipodi.sourceforge.net/DTD/sodipodi-0.dtd"
   xmlns:inkscape="http://www.inkscape.org/namespaces/inkscape"
   id="b97bb7d6-95f0-447b-bc12-1d70469e6c4d"
   width="578.0013"
   height="621.92557"
   viewBox="0 0 578.0013 621.92557"
   version="1.1"
   sodipodi:docname="draw_past-appt.svg"
   inkscape:version="1.0.2 (e86c8708, 2021-01-15)">
  <metadata
     id="metadata204">
    <rdf:RDF>
      <cc:Work
         rdf:about="">
        <dc:format>image/svg+xml</dc:format>
        <dc:type
           rdf:resource="http://purl.org/dc/dcmitype/StillImage" />
      </cc:Work>
    </rdf:RDF>
  </metadata>
  <defs
     id="defs202">
    <linearGradient
       id="linearGradient3617"
       osb:paint="solid">
      <stop
         style="stop-color:#000000;stop-opacity:1;"
         offset="0"
         id="stop3615" />
    </linearGradient>
    <linearGradient
       inkscape:collect="always"
       xlink:href="#linearGradient3617"
       id="linearGradient3619"
       x1="50.497723"
       y1="219.20254"
       x2="365.42517"
       y2="219.20254"
       gradientUnits="userSpaceOnUse" />
  </defs>
  <sodipodi:namedview
     pagecolor="#ffffff"
     bordercolor="#666666"
     borderopacity="1"
     objecttolerance="10"
     gridtolerance="10"
     guidetolerance="10"
     inkscape:pageopacity="0"
     inkscape:pageshadow="2"
     inkscape:window-width="1419"
     inkscape:window-height="892"
     id="namedview200"
     showgrid="false"
     inkscape:zoom="0.76856372"
     inkscape:cx="191.03054"
     inkscape:cy="175.22312"
     inkscape:window-x="261"
     inkscape:window-y="26"
     inkscape:window-maximized="0"
     inkscape:current-layer="b97bb7d6-95f0-447b-bc12-1d70469e6c4d"
     inkscape:document-rotation="0" />
  <path
     d="m 403.32997,336.98901 a 6.00013,6.00013 0 0 1 -8.24672,1.9979 l -70.0049,-42.70029 a 6.0000024,6.0000024 0 0 1 6.24883,-10.24462 l 70.00489,42.70029 a 6.00014,6.00014 0 0 1 1.9979,8.24672 z"
     fill="#3f3d56"
     id="path173" />
  <g
     id="g855">
    <path
       d="m 326.83291,287.79656 a 48,48 0 1 1 -15.98318,-65.97376 48.05436,48.05436 0 0 1 15.98318,65.97376 z M 255.12058,244.0548 a 36,36 0 1 0 49.48033,-11.98738 36.04071,36.04071 0 0 0 -49.48033,11.98738 z"
       fill="#3f3d56"
       id="path175" />
  </g>
  <circle
     cx="484.60301"
     cy="267.17256"
     r="24.56103"
     fill="#a0616a"
     id="circle177" />
  <path
     d="M794.015,543.90119a11.002,11.002,0,0,1,8.32251-14.15136,10.46752,10.46752,0,0,1,1.45923-.17969l25.87158-41.52344L806.036,465.57991a9.43208,9.43208,0,1,1,13.1206-13.55274L851.786,484.201l.06567.08008a8.54468,8.54468,0,0,1-.59448,10.18457l-36.25,42.873a10.301,10.301,0,0,1,.27,1.0459,11.0026,11.0026,0,0,1-9.875,13.11621q-.46839.041-.93213.041A11.0367,11.0367,0,0,1,794.015,543.90119Z"
     transform="translate(-310.99935 -139.03722)"
     fill="#a0616a"
     id="path179" />
  <polygon
     points="444.151 609.001 431.891 609 426.059 561.712 444.153 561.713 444.151 609.001"
     fill="#a0616a"
     id="polygon181" />
  <path
     d="M758.2767,759.92208l-39.53051-.00146v-.5a15.38605,15.38605,0,0,1,15.38647-15.38623h.001l24.1438.001Z"
     transform="translate(-310.99935 -139.03722)"
     fill="#2f2e41"
     id="path183" />
  <polygon
     points="566.007 592.05 555.473 598.322 526.268 560.676 541.815 551.419 566.007 592.05"
     fill="#a0616a"
     id="polygon185" />
  <path
     d="M885.77238,739.69878l-33.96586,20.2233-.25581-.4296a15.386,15.386,0,0,1,5.34836-21.09206l.00084-.0005,20.74515-12.35158Z"
     transform="translate(-310.99935 -139.03722)"
     fill="#2f2e41"
     id="path187" />
  <path
     d="M735.512,727.21272c-8.21289-96.70606-13.09863-186.54492,16.92408-223.19336l.23217-.28418,50.52564,20.21094.08325.18066c.17041.37109,16.97388,37.333,13.0542,62.19434L828.794,643.64924l40.63574,68.041A4.50136,4.50136,0,0,1,867.379,718.118l-17.65918,7.76953a4.52142,4.52142,0,0,1-5.64844-1.76562l-44.2041-72.08008-24.96778-55.28613a1.50028,1.50028,0,0,0-2.85888.459L758.20052,727.31135a4.4918,4.4918,0,0,1-4.47461,4.02441H739.99764A4.53045,4.53045,0,0,1,735.512,727.21272Z"
     transform="translate(-310.99935 -139.03722)"
     fill="#2f2e41"
     id="path189" />
  <path
     d="M752.60628,504.786l-.24072-.11523-.0376-.26465c-1.88745-13.21.34668-27.8877,6.63989-43.625a34.63634,34.63634,0,0,1,40.20191-20.74317h0a34.59441,34.59441,0,0,1,22.06055,16.96387,34.2209,34.2209,0,0,1,2.3728,27.4248c-7.93384,23.2002-18.22583,44.90723-18.32886,45.124l-.21558.45312Z"
     transform="translate(-310.99935 -139.03722)"
     fill="#31ade0"
     id="path191" />
  <path
     d="M697.48021,471.88251A11.002,11.002,0,0,1,713.65,474.72233a10.46856,10.46856,0,0,1,.67932,1.3039l47.95411,9.69217,12.7683-30.00357a9.43208,9.43208,0,1,1,17.28928,7.54372l-18.71,41.83025-.052.08956a8.54469,8.54469,0,0,1-9.74785,3.00972L710.97846,489.2473a10.30273,10.30273,0,0,1-.88511.61918,11.00261,11.00261,0,0,1-15.74382-4.6565q-.20244-.42436-.36484-.85874A11.0367,11.0367,0,0,1,697.48021,471.88251Z"
     transform="translate(-310.99935 -139.03722)"
     fill="#a0616a"
     id="path193" />
  <path
     d="M884.33087,432.51247c-2.36572-4.19178-5.8125-8.03119-10.36914-9.58069-5.88476-2.001-12.25683.12964-18.30713,1.55218-4.66162,1.09595-9.53173,1.76679-14.23046.84192-4.69825-.92492-9.23047-3.65924-11.36817-7.94409-3.145-6.30359-.4956-13.82062-.687-20.86255a25.33438,25.33438,0,0,0-31.92334-23.81061c-5.79346-1.67193-11.03906-1.82659-14.62256,2.62714a17.0001,17.0001,0,0,0-17,17h16.25537a16.1496,16.1496,0,0,0,2.4541,11.93109c2.86963,4.21582,7.85938,7.2655,8.81983,12.274.93115,4.85351-2.36817,9.45868-5.8291,12.98669-3.46045,3.528-7.4751,7.02381-8.55567,11.84626a14.68871,14.68871,0,0,0,2.10352,10.56475,34.40329,34.40329,0,0,0,7.38623,8.13575,108.40184,108.40184,0,0,0,45.0376,23.04034c11.7041,2.81781,24.50586,3.54822,35.37109-1.6355a35.12563,35.12563,0,0,0,15.46484-48.96667Z"
     transform="translate(-310.99935 -139.03722)"
     fill="#2f2e41"
     id="path195" />
  <path
     d="M888.00065,760.96278h-190a1,1,0,0,1,0-2h190a1,1,0,0,1,0,2Z"
     transform="translate(-310.99935 -139.03722)"
     fill="#ccc"
     id="path197" />
  <path
     d="M 359.98288,386.22551 H 55.940018 a 5.4482448,5.3137367 0 0 1 -5.442295,-5.30793 V 57.487514 a 5.4482448,5.3137367 0 0 1 5.442295,-5.30794 H 359.98288 a 5.4482448,5.3137367 0 0 1 5.44229,5.30794 V 380.91758 a 5.4482448,5.3137367 0 0 1 -5.44229,5.30793 z M 55.940018,54.302754 a 3.2689541,3.1882491 0 0 0 -3.265376,3.18476 V 380.91758 a 3.2689469,3.188242 0 0 0 3.265376,3.18476 H 359.98288 a 3.2689396,3.1882349 0 0 0 3.26537,-3.18476 V 57.487514 a 3.2689469,3.188242 0 0 0 -3.26537,-3.18476 z"
     fill="#e6e6e6"
     id="path38"
     style="stroke-width:2.217;fill:#ffffff;stroke-miterlimit:4;stroke-dasharray:none;stroke:url(#linearGradient3619)" />
  <ellipse
     cx="118.68041"
     cy="165.77144"
     fill="#e6e6e6"
     id="circle40"
     rx="7.1424818"
     ry="6.9661465"
     style="stroke-width:0.716626" />
  <ellipse
     cx="148.44075"
     cy="165.77144"
     fill="#e6e6e6"
     id="circle42"
     rx="7.1424818"
     ry="6.9661465"
     style="stroke-width:0.716626" />
  <ellipse
     cx="178.20111"
     cy="165.77144"
     fill="#31ade0"
     id="circle44"
     rx="7.1424818"
     ry="6.9661465"
     style="stroke-width:0.716626" />
  <ellipse
     cx="207.96144"
     cy="165.77144"
     fill="#31ade0"
     id="circle46"
     rx="7.1424818"
     ry="6.9661465"
     style="stroke-width:0.716626" />
  <ellipse
     cx="237.72182"
     cy="165.77144"
     fill="#31ade0"
     id="circle48"
     rx="7.1424818"
     ry="6.9661465"
     style="stroke-width:0.716626" />
  <ellipse
     cx="267.48215"
     cy="165.77144"
     fill="#e6e6e6"
     id="circle50"
     rx="7.1424818"
     ry="6.9661465"
     style="stroke-width:0.716626" />
  <ellipse
     cx="297.24249"
     cy="165.77144"
     fill="#e6e6e6"
     id="circle52"
     rx="7.1424818"
     ry="6.9661465"
     style="stroke-width:0.716626" />
  <ellipse
     cx="118.68041"
     cy="187.8309"
     fill="#e6e6e6"
     id="circle54"
     rx="7.1424818"
     ry="6.9661465"
     style="stroke-width:0.716626" />
  <ellipse
     cx="148.44075"
     cy="187.8309"
     fill="#e6e6e6"
     id="circle56"
     rx="7.1424818"
     ry="6.9661465"
     style="stroke-width:0.716626" />
  <ellipse
     cx="178.20111"
     cy="187.8309"
     fill="#e6e6e6"
     id="circle58"
     rx="7.1424818"
     ry="6.9661465"
     style="stroke-width:0.716626" />
  <ellipse
     cx="207.96144"
     cy="187.8309"
     fill="#e6e6e6"
     id="circle60"
     rx="7.1424818"
     ry="6.9661465"
     style="stroke-width:0.716626" />
  <ellipse
     cx="237.72182"
     cy="187.8309"
     fill="#e6e6e6"
     id="circle62"
     rx="7.1424818"
     ry="6.9661465"
     style="stroke-width:0.716626" />
  <ellipse
     cx="267.48215"
     cy="187.8309"
     fill="#e6e6e6"
     id="circle64"
     rx="7.1424818"
     ry="6.9661465"
     style="stroke-width:0.716626" />
  <ellipse
     cx="297.24249"
     cy="187.8309"
     fill="#e6e6e6"
     id="circle66"
     rx="7.1424818"
     ry="6.9661465"
     style="stroke-width:0.716626" />
  <ellipse
     cx="118.68041"
     cy="209.89037"
     fill="#31ade0"
     id="circle68"
     rx="7.1424818"
     ry="6.9661465"
     style="stroke-width:0.716626" />
  <ellipse
     cx="148.44075"
     cy="209.89037"
     fill="#31ade0"
     id="circle70"
     rx="7.1424818"
     ry="6.9661465"
     style="stroke-width:0.716626" />
  <ellipse
     cx="178.20111"
     cy="209.89037"
     fill="#31ade0"
     id="circle72"
     rx="7.1424818"
     ry="6.9661465"
     style="stroke-width:0.716626" />
  <ellipse
     cx="207.96144"
     cy="209.89037"
     fill="#e6e6e6"
     id="circle74"
     rx="7.1424818"
     ry="6.9661465"
     style="stroke-width:0.716626" />
  <ellipse
     cx="237.72182"
     cy="209.89037"
     fill="#e6e6e6"
     id="circle76"
     rx="7.1424818"
     ry="6.9661465"
     style="stroke-width:0.716626" />
  <ellipse
     cx="267.48215"
     cy="209.89037"
     fill="#e6e6e6"
     id="circle78"
     rx="7.1424818"
     ry="6.9661465"
     style="stroke-width:0.716626" />
  <ellipse
     cx="297.24249"
     cy="209.89037"
     fill="#e6e6e6"
     id="circle80"
     rx="7.1424818"
     ry="6.9661465"
     style="stroke-width:0.716626" />
  <ellipse
     cx="118.68041"
     cy="231.94981"
     fill="#e6e6e6"
     id="circle82"
     rx="7.1424818"
     ry="6.9661465"
     style="stroke-width:0.716626" />
  <ellipse
     cx="148.44075"
     cy="231.94981"
     fill="#e6e6e6"
     id="circle84"
     rx="7.1424818"
     ry="6.9661465"
     style="stroke-width:0.716626" />
  <ellipse
     cx="118.68041"
     cy="254.00929"
     fill="#e6e6e6"
     id="circle86"
     rx="7.1424818"
     ry="6.9661465"
     style="stroke-width:0.716626" />
  <ellipse
     cx="148.44075"
     cy="254.00929"
     fill="#e6e6e6"
     id="circle88"
     rx="7.1424818"
     ry="6.9661465"
     style="stroke-width:0.716626" />
  <ellipse
     cx="178.20111"
     cy="254.00929"
     fill="#e6e6e6"
     id="circle90"
     rx="7.1424818"
     ry="6.9661465"
     style="stroke-width:0.716626" />
  <ellipse
     cx="178.20111"
     cy="231.94981"
     fill="#e6e6e6"
     id="circle92"
     rx="7.1424818"
     ry="6.9661465"
     style="stroke-width:0.716626" />
  <ellipse
     cx="207.96144"
     cy="231.94981"
     fill="#31ade0"
     id="circle94"
     rx="7.1424818"
     ry="6.9661465"
     style="stroke-width:0.716626" />
  <ellipse
     cx="237.72182"
     cy="231.94981"
     fill="#31ade0"
     id="circle96"
     rx="7.1424818"
     ry="6.9661465"
     style="stroke-width:0.716626" />
  <ellipse
     cx="267.48215"
     cy="231.94981"
     fill="#31ade0"
     id="circle98"
     rx="7.1424818"
     ry="6.9661465"
     style="stroke-width:0.716626" />
  <ellipse
     cx="297.24249"
     cy="231.94981"
     fill="#e6e6e6"
     id="circle100"
     rx="7.1424818"
     ry="6.9661465"
     style="stroke-width:0.716626" />
  <path
     id="a332a05d-d774-4fd2-8531-ab97682a63e9"
     data-name="Path 40"
     d="m 153.8931,104.19616 a 4.3152534,4.208717 0 0 0 0,8.4163 h 108.18246 a 4.3152534,4.208717 0 1 0 0.14167,-8.4163 q -0.0709,-0.001 -0.14167,0 z"
     fill="#3f3d56"
     style="stroke-width:0.716626" />
  <path
     d="m 286.60869,103.02441 a 0.84899795,0.8280376 0 0 0 0,1.17109 l 3.64475,3.55481 h -8.98763 a 0.8490415,0.82808007 0 0 0 0,1.65616 h 8.98763 l -3.64475,3.5548 a 0.84903141,0.82807023 0 1 0 1.20068,1.17109 l 5.09422,-4.96843 a 0.84907052,0.82810838 0 0 0 0,-1.17108 l -5.09422,-4.96844 a 0.84899795,0.8280376 0 0 0 -1.20068,0 z"
     fill="#e6e6e6"
     id="path103"
     style="stroke-width:0.716626;fill:#333333" />
  <path
     d="m 129.31422,103.02441 a 0.84899795,0.8280376 0 0 1 0,1.17109 l -3.64476,3.55481 h 8.98763 a 0.8490415,0.82808007 0 1 1 0,1.65616 h -8.98763 l 3.64476,3.5548 a 0.84903395,0.82807271 0 0 1 -1.2007,1.17109 l -5.0942,-4.96843 a 0.84907052,0.82810838 0 0 1 0,-1.17108 l 5.0942,-4.96844 a 0.84899795,0.8280376 0 0 1 1.2007,0 z"
     fill="#e6e6e6"
     id="path105"
     style="stroke-width:0.716626;fill:#333333" />
  <path
     d="m 147.84555,305.43658 a 15.475382,15.093321 0 1 0 0,30.18664 h 120.2318 a 15.475382,15.093321 0 1 0 0,-30.18664 z"
     fill="#e6e6e6"
     id="path107"
     style="stroke-width:0.716626" />
  <path
     d="M 55.465979,81.029689 A 24.869457,24.255472 0 1 1 80.335437,56.774214 24.897584,24.282903 0 0 1 55.465979,81.029689 Z"
     fill="#31ade0"
     id="path109"
     style="stroke-width:0.716626" />
  <path
     d="m 65.278799,54.381604 h -7.359571 v -7.17797 a 2.4532485,2.3926819 0 1 0 -4.906497,0 v 7.17797 h -7.359673 a 2.4532158,2.39265 0 0 0 0,4.7853 h 7.359673 v 7.17796 a 2.4532485,2.3926819 0 0 0 4.906497,0 v -7.17796 h 7.359571 a 2.4532158,2.39265 0 1 0 0,-4.7853 z"
     fill="#ffffff"
     id="path111"
     style="stroke-width:0.716626" />
  <use
     x="0"
     y="0"
     xlink:href="#g855"
     id="use857" />
  <use
     x="0"
     y="0"
     xlink:href="#path173"
     id="use859" />
</svg>
