<?xml version="1.0" encoding="UTF-8" standalone="no"?>
<svg
   xmlns:dc="http://purl.org/dc/elements/1.1/"
   xmlns:cc="http://creativecommons.org/ns#"
   xmlns:rdf="http://www.w3.org/1999/02/22-rdf-syntax-ns#"
   xmlns:svg="http://www.w3.org/2000/svg"
   xmlns="http://www.w3.org/2000/svg"
   xmlns:xlink="http://www.w3.org/1999/xlink"
   xmlns:sodipodi="http://sodipodi.sourceforge.net/DTD/sodipodi-0.dtd"
   xmlns:inkscape="http://www.inkscape.org/namespaces/inkscape"
   id="a4bcfc6d-da0f-4ee2-80ea-b3481570728c"
   data-name="Layer 1"
   width="905.04"
   height="685"
   viewBox="0 0 905.04 685"
   version="1.1"
   sodipodi:docname="draw_office.svg"
   inkscape:version="1.0.2 (e86c8708, 2021-01-15)">
  <metadata
     id="metadata2383">
    <rdf:RDF>
      <cc:Work
         rdf:about="">
        <dc:format>image/svg+xml</dc:format>
        <dc:type
           rdf:resource="http://purl.org/dc/dcmitype/StillImage" />
        <dc:title>in_the_office</dc:title>
      </cc:Work>
    </rdf:RDF>
  </metadata>
  <sodipodi:namedview
     pagecolor="#ffffff"
     bordercolor="#666666"
     borderopacity="1"
     objecttolerance="10"
     gridtolerance="10"
     guidetolerance="10"
     inkscape:pageopacity="0"
     inkscape:pageshadow="2"
     inkscape:window-width="1680"
     inkscape:window-height="935"
     id="namedview2381"
     showgrid="false"
     inkscape:zoom="0.47679713"
     inkscape:cx="63.235405"
     inkscape:cy="748.86196"
     inkscape:window-x="0"
     inkscape:window-y="25"
     inkscape:window-maximized="1"
     inkscape:current-layer="a4bcfc6d-da0f-4ee2-80ea-b3481570728c"
     inkscape:document-rotation="0" />
  <defs
     id="defs2200">
    <linearGradient
       id="a43ae663-b469-4e5a-8886-296432196b31"
       x1="362.92"
       y1="175.84"
       x2="362.92"
       gradientUnits="userSpaceOnUse">
      <stop
         offset="0"
         stop-color="gray"
         stop-opacity="0.25"
         id="stop2190" />
      <stop
         offset="0.54"
         stop-color="gray"
         stop-opacity="0.12"
         id="stop2192" />
      <stop
         offset="1"
         stop-color="gray"
         stop-opacity="0.1"
         id="stop2194" />
    </linearGradient>
    <linearGradient
       id="c04665b3-8429-49d7-b7f7-d55cb9164332"
       x1="679.81"
       y1="433"
       x2="679.81"
       y2="229.03"
       xlink:href="#a43ae663-b469-4e5a-8886-296432196b31" />
    <linearGradient
       id="8497327b-2adb-4787-b13a-16d8e52b02c9"
       x1="271.26"
       y1="701.42"
       x2="271.26"
       y2="181"
       xlink:href="#a43ae663-b469-4e5a-8886-296432196b31" />
    <linearGradient
       id="3db0f1d5-214e-432c-a06d-0b506d0d68e9"
       x1="377.67"
       y1="381.6"
       x2="377.67"
       y2="247.22"
       gradientTransform="matrix(-1, 0, 0, 1, 652, 0)"
       xlink:href="#a43ae663-b469-4e5a-8886-296432196b31" />
  </defs>
  <title
     id="title2202">in_the_office</title>
  <ellipse
     cx="450.26"
     cy="556.36"
     rx="450.26"
     ry="128.64"
     fill="#f5f5f5"
     id="ellipse2242" />
  <path
     d="M693.9,416.1s12.44-61.09,60-55.43c0,0,32.81,2.26,39.6,23.76v47.51Z"
     transform="translate(-147.48 -107.5)"
     fill="#535461"
     id="path2244" />
  <path
     d="M805.26,315.48c-5.58-.63-10.87-3-16.07-5.32-8.74-3.95-17.69-8.12-24.45-15.45-10.16-11-13.85-27.24-21-40.87a52.19,52.19,0,0,0-10.47-14.33A39.13,39.13,0,0,0,721.16,232a41,41,0,0,0-27.47-1l5-.83L677.3,237c-2.66.86-5.58,1.95-6.93,4.64s-.49,6.54,1.43,9,4.62,3.89,7.24,5.27l2.25,1.18a27.18,27.18,0,0,0,2.85,26.42v21.93a38.2,38.2,0,0,1-16.52,2.1,11.79,11.79,0,0,0-4.16,2.42c-2.61,2-5.92,6-7.27,13.39-2.27,12.46-28,54.9-30.68,59.26l-42,11,.25.24-.81.21s.33.31.85.86c-4.74.32-13.08.3-19.71-2.82-6.8-3.2-17.72.08-23.8,2.4a2.59,2.59,0,0,0-.37,4.66,58.9,58.9,0,0,0,26.77,7.63c10.26.54,18.66.61,24.41.55a6.41,6.41,0,0,1-1.29,4.94L640,405.1a27.48,27.48,0,0,0,4.15-2.91,35.67,35.67,0,0,0,7.87-8.72l10.81-14.13c.68,2.44,7.73,28.34,5.36,36.93l-2.53,9.52,14.78,1.53V427l44.73,6,0-1h.08l.19-8.39,51.85-1.67s9-7.31,5.07-19-2.48-45.58-2.48-45.58a190.25,190.25,0,0,0-6.15-27.77A130.39,130.39,0,0,0,807,320.21c5.16-2.22,10.37-4.91,14-9.6C816.84,314.81,810.84,316.11,805.26,315.48Z"
     transform="translate(-147.48 -107.5)"
     fill="url(#c04665b3-8429-49d7-b7f7-d55cb9164332)"
     id="path2246" />
  <rect
     x="536.52"
     y="150.5"
     width="42"
     height="65"
     fill="#fe5858"
     id="rect2248" />
  <rect
     x="536.52"
     y="150.5"
     width="42"
     height="65"
     opacity="0.1"
     id="rect2250" />
  <path
     d="M692.69,281.89a23.2,23.2,0,0,1,2.48,24.21c-6.42,13.8-2.49,33.67,2.68,36.7s25.7,7.16,32.11-1.66,6.05-34.3,3.94-38-17.75-6.83-17.08-27.72Z"
     transform="translate(-147.48 -107.5)"
     fill="#f2b08d"
     id="path2252" />
  <path
     d="M690,307.56s8.24,55.24,36.14,17.22l-2.31,104-50.45-6.73Z"
     transform="translate(-147.48 -107.5)"
     opacity="0.1"
     id="path2254" />
  <path
     d="M689.93,308.55s8.24,55.24,36.14,17.22l-2.31,104-50.45-6.73Z"
     transform="translate(-147.48 -107.5)"
     fill="#f1c413"
     id="path2256" />
  <path
     d="M720.73,406s-15.17,1.92-25.67-2.66c0,0-20,5.41-18,10.11s47.89,5,47.89,5Z"
     transform="translate(-147.48 -107.5)"
     fill="#f2b08d"
     id="path2258" />
  <path
     d="M590.4,392.53s-13.19,2.12-22.71-2.36c-6.58-3.1-17.16.08-23.06,2.33a2.51,2.51,0,0,0-.36,4.51,57.06,57.06,0,0,0,25.93,7.39c19.36,1,31.9.32,31.9.32Z"
     transform="translate(-147.48 -107.5)"
     fill="#f2b08d"
     id="path2260" />
  <path
     d="M717.29,333.34l-7.68,74,7.12-1.26s11,9.13,1.48,14.62L773.28,419s8.72-7.08,4.91-18.45-2.4-44.16-2.4-44.16-5.67-41.5-16.93-43.67c0,0-22.77-4.46-36.07-19.26Z"
     transform="translate(-147.48 -107.5)"
     opacity="0.1"
     id="path2262" />
  <path
     d="M718.28,333.44l-7.68,74,7.12-1.26s11,9.13,1.48,14.62l55.07-1.77s8.72-7.08,4.91-18.45-2.4-44.16-2.4-44.16-5.67-41.5-16.93-43.67c0,0-22.77-4.46-36.07-19.26Z"
     transform="translate(-147.48 -107.5)"
     fill="#39447a"
     id="path2264" />
  <path
     d="M696.6,299.51s-12.86,10.89-29.15,9.2c0,0-8.21,2.14-10.52,14.88S627,381.35,627,381.35l-41,10.71s11.81,11.2,6.65,17.66l48.62-6.93A33.06,33.06,0,0,0,652.33,392l11-14.33s7.65,27.24,5.25,36l-2.45,9.23,14.32,1.49s.7-36.22,4.07-50.29c1.46-6.09,2.72-12.21,3.64-18.4,2.34-15.8,6-39.83,7.37-43Z"
     transform="translate(-147.48 -107.5)"
     opacity="0.1"
     id="path2266" />
  <path
     d="M697.15,299.07S684.29,310,668,308.27c0,0-8.21,2.14-10.52,14.88s-29.94,57.77-29.94,57.77l-41,10.71s11.81,11.2,6.65,17.66l48.62-6.93a33.06,33.06,0,0,0,11.1-10.82l11-14.33s7.65,27.24,5.25,36l-2.45,9.23L681,423.88s.7-36.22,4.07-50.29c1.46-6.09,2.72-12.21,3.64-18.4,2.34-15.8,6-39.83,7.37-43Z"
     transform="translate(-147.48 -107.5)"
     fill="#39447a"
     id="path2268" />
  <path
     d="M720.79,289.25c-2.35-3.71-4.36-5.29-4.13-12.36l-24.12,6.48a23.32,23.32,0,0,1,4.77,12.92,26.42,26.42,0,0,0,5.25,1.09C709.15,298.07,715.78,292.79,720.79,289.25Z"
     transform="translate(-147.48 -107.5)"
     opacity="0.1"
     id="path2270" />
  <circle
     cx="705.43"
     cy="269.74"
     r="26.3"
     transform="translate(216.86 836.07) rotate(-84.08)"
     fill="#f2b08d"
     id="circle2272" />
  <path
     d="M667.89,345.43s4.76,7,1.84,11.17-3.59,10.6-2.52,14.71"
     transform="translate(-147.48 -107.5)"
     opacity="0.1"
     id="path2274" />
  <path
     d="M744.83,344.43s8.79,40.33,6.41,44.08"
     transform="translate(-147.48 -107.5)"
     opacity="0.1"
     id="path2276" />
  <path
     d="M724.94,399.91s24.92,1.92,23.5-3.72"
     transform="translate(-147.48 -107.5)"
     opacity="0.1"
     id="path2278" />
  <path
     d="M693.25,234a39.75,39.75,0,0,1,26.61,1,37.91,37.91,0,0,1,11.76,7.31,50.56,50.56,0,0,1,10.14,13.88c6.9,13.21,10.48,28.95,20.32,39.6,6.55,7.09,15.22,11.14,23.69,15,5,2.27,10.16,4.55,15.57,5.16s11.22-.65,15.25-4.71c-3.48,4.54-8.53,7.15-13.53,9.3a125.13,125.13,0,0,1-62.54,9.57c-6-.64-12-1.74-17.56-4.4-4-1.92-7.88-4.93-9.46-9.44-3.64-10.4,6.58-21.44,4.66-32.41-1-5.63-5.09-10-9.65-12.7s-9.65-4-14.52-5.8a136,136,0,0,1-14.93-7.13c-2.54-1.34-5.16-2.75-7-5.11s-2.75-6-1.38-8.69,4.14-3.66,6.71-4.5l20.73-6.71"
     transform="translate(-147.48 -107.5)"
     fill="#fe5858"
     id="path2280" />
  <polygon
     points="806.61 331.23 383.51 296.16 329.21 307.47 332.6 383.27 336.31 383.72 340.52 497.53 755.71 572.19 799.83 534.86 799.83 411.47 805.48 408.16 806.61 331.23"
     fill="#ededf4"
     id="polygon2282" />
  <polygon
     points="807.18 331.23 806.05 408.16 760.23 429.65 759.66 349.33 807.18 331.23"
     opacity="0.05"
     id="polygon2284" />
  <polygon
     points="799.83 411.55 800.39 532.6 756.27 569.93 759.1 429.65 799.83 411.55"
     opacity="0.05"
     id="polygon2286" />
  <polygon
     points="336.87 388.24 759.44 439.81 759.66 430.03 336.56 384.4 336.87 388.24"
     opacity="0.05"
     id="polygon2288" />
  <polygon
     points="799.83 415.99 799.83 411.55 757.97 430.03 757.97 439.83 799.83 415.99"
     opacity="0.05"
     id="polygon2290" />
  <polygon
     points="328.64 307.47 382.94 296.16 806.05 331.23 758.53 349.33 328.64 307.47"
     fill="#f4f4f8"
     id="polygon2292" />
  <ellipse
     cx="849.73"
     cy="475.54"
     rx="32.57"
     ry="11.96"
     fill="#cd9494"
     id="ellipse2294" />
  <ellipse
     cx="849.73"
     cy="474.21"
     rx="16.62"
     ry="6.1"
     opacity="0.05"
     id="ellipse2296" />
  <path
     d="M964.65,580.38s35.89,19.94,65.14,2.66c0,0-4,69.12-23.93,75.77H979.27S956.67,612.28,964.65,580.38Z"
     transform="translate(-147.48 -107.5)"
     fill="#ff7361"
     id="path2298" />
  <path
     d="M1025.34,453.72c9.13,33.39-29.82,128.51-29.82,128.51s-82-62-91.09-95.43a62.68,62.68,0,0,1,120.91-33.08Z"
     transform="translate(-147.48 -107.5)"
     fill="#99c33d"
     id="path2300" />
  <path
     d="M1025.34,453.72c9.13,33.39-29.82,128.51-29.82,128.51s-82-62-91.09-95.43a62.68,62.68,0,0,1,120.91-33.08Z"
     transform="translate(-147.48 -107.5)"
     opacity="0.1"
     id="path2302"
     style="opacity:0.9476584;fill:#2ac749;fill-opacity:1" />
  <path
     d="M948.68,410s51,77,47.17,172.42"
     transform="translate(-147.48 -107.5)"
     fill="none"
     stroke="#535461"
     stroke-miterlimit="10"
     id="path2304" />
  <path
     d="M1038.36,514.75S992.1,489.59,998,582.48c0,0,38.59-1.38,52.28-32.86a27.3,27.3,0,0,0-11.2-34.48Z"
     transform="translate(-147.48 -107.5)"
     fill="#99c33d"
     id="path2306"
     style="opacity:1;fill:#30b73d;fill-opacity:1" />
  <path
     d="M1039.12,514.91s-6,48.22-41.16,67.57"
     transform="translate(-147.48 -107.5)"
     fill="none"
     stroke="#535461"
     stroke-miterlimit="10"
     id="path2308"
     style="opacity:0.41873278" />
  <path
     d="M1025.43,585.3c-1.35,15.9-6.86,65.29-23.56,70.85H978c.76,1.7,1.22,2.66,1.22,2.66h26.59c19.94-6.65,23.93-75.77,23.93-75.77A48.4,48.4,0,0,1,1025.43,585.3Z"
     transform="translate(-147.48 -107.5)"
     opacity="0.05"
     id="path2310" />
  <circle
     cx="735.79901"
     cy="151.77277"
     r="37.330002"
     fill="#535461"
     id="circle2312"
     style="opacity:0.650138" />
  <circle
     cx="735.79901"
     cy="151.77277"
     fill="#ededf4"
     id="circle2314"
     r="31.68"
     style="opacity:0.650138" />
  <circle
     cx="735.79901"
     cy="151.77277"
     fill="#535461"
     id="circle2316"
     r="2.26"
     style="opacity:0.650138" />
  <line
     x1="749.37903"
     y1="128.01276"
     x2="735.79901"
     y2="151.77277"
     fill="none"
     stroke="#535461"
     stroke-linecap="round"
     stroke-miterlimit="10"
     id="line2318"
     style="opacity:0.650138" />
  <line
     x1="736.44904"
     y1="152.02277"
     x2="749.93903"
     y2="159.12276"
     fill="none"
     stroke="#535461"
     stroke-linecap="round"
     stroke-miterlimit="10"
     stroke-width="2"
     id="line2320"
     style="opacity:0.650138" />
  <path
     d="m 378.50198,315.12956 a 10.05577,10.05577 0 0 1 -14.16116,-6.10061 L 328.64,307.47 l 10.8896,-15.04162 32.23261,3.78644 a 10.11028,10.11028 0 0 1 6.73977,18.91474 z"
     fill="#ffb8b8"
     id="path1588" />
  <path
     d="m 279.38349,300.8764 -19.63257,-37.811 a 31.3182,31.3182 0 0 1 2.564,-33.03857 c 0.69946,-0.9336 1.44165,-1.8418 2.20605,-2.69874 a 30.39792,30.39792 0 0 1 25.07736,-10.09085 31.40231,31.40231 0 0 1 24.11206,14.08106 l 9.42823,14.252 c 0.96508,0.86182 13.94287,12.8374 9.11523,28.42041 l -0.83008,14.94287 a 4.52344,4.52344 0 0 1 -3.4751,4.1333 l -43.553,10.11866 a 4.49435,4.49435 0 0 1 -5.01221,-2.30909 z"
     fill="#99c33d"
     id="path1590"
     style="fill:#55c3e5;fill-opacity:1" />
  <path
     d="m 265.61417,372.63288 a 10.05577,10.05577 0 0 1 1.56841,-15.33935 l -9.22949,-34.52239 17.61677,5.87226 6.06366,31.88276 a 10.11027,10.11027 0 0 1 -16.01932,12.10672 z"
     fill="#ffb8b8"
     id="path1592" />
  <path
     d="m 261.28709,356.29877 a 4.4626,4.4626 0 0 1 -2.46118,-3.31592 l -6.07739,-58.96 a 50.33629,50.33629 0 0 1 -0.35889,-14.48975 l 7.28516,-44.11865 a 10.06808,10.06808 0 0 1 10.7334,-8.86182 v 0 a 10.08789,10.08789 0 0 1 9.301,11.23975 l -5.94777,50.60986 6.81128,59.69141 a 4.47622,4.47622 0 0 1 -2.34937,4.47852 l -12.88452,3.67968 a 4.44955,4.44955 0 0 1 -4.05176,0.0469 z"
     fill="#99c33d"
     id="path1594"
     style="fill:#55c3e5;fill-opacity:1" />
  <polygon
     points="173.796,502.075 170.717,454.528 152.94,457.9 161.751,504.359 "
     fill="#ffb8b8"
     id="polygon1596"
     transform="translate(197.14647,31.739977)" />
  <path
     d="m 355.07943,532.74924 23.721,-4.49868 10e-4,-1.8e-4 a 15.386,15.386 0 0 1 17.98342,12.25056 l 0.0931,0.49125 -38.83826,7.36553 z"
     fill="#2f2e41"
     id="path1598" />
  <polygon
     points="67.422,504.733 73.254,457.445 55.16,457.446 55.162,504.734 "
     fill="#ffb8b8"
     id="polygon1600"
     transform="translate(197.14647,31.739977)" />
  <path
     d="m 249.18135,532.47098 24.1438,-0.001 h 10e-4 a 15.38605,15.38605 0 0 1 15.38645,15.38626 v 0.5 l -39.53052,0.001 z"
     fill="#2f2e41"
     id="path1602" />
  <circle
     cx="288.17926"
     cy="182.07059"
     r="24.561029"
     fill="#ffb8b8"
     id="circle1604" />
  <path
     d="m 250.28998,517.46869 a 4.52272,4.52272 0 0 1 -1.19507,-3.4043 l 16.71753,-151.751 c -0.14379,-1.4209 -2.4143,-27.1875 16.009,-60.15625 l 0.1018,-0.18213 49.36792,-13.68994 5.45874,23.02636 36.58277,200.21094 a 4.486,4.486 0 0 1 -3.80542,4.94336 l -12.7334,1.91016 a 4.50191,4.50191 0 0 1 -4.98608,-3.18457 L 308.69599,380.16205 a 1.50036,1.50036 0 0 0 -2.87769,-0.0137 l -35.36816,135.50879 a 4.52284,4.52284 0 0 1 -4.32153,3.24414 h -12.54663 a 4.51522,4.51522 0 0 1 -3.292,-1.43262 z"
     fill="#2f2e41"
     id="path1606" />
  <path
     d="m 354.62787,312.39594 -53.19238,-9.12061 a 17.40944,17.40944 0 0 1 -14.16211,-13.62209 l -11.10693,-52.4585 a 14.30958,14.30958 0 0 1 13.41284,-17.26171 v 0 a 14.38357,14.38357 0 0 1 14.79614,12.604 l 5.574,46.7583 46.9248,12.19238 a 4.49882,4.49882 0 0 1 3.03418,4.26514 l -0.02,12.21924 a 4.49624,4.49624 0 0 1 -5.2605,4.42383 z"
     fill="#99c33d"
     id="path1608"
     style="fill:#55c3e5;fill-opacity:1" />
  <path
     d="m 309.0722,176.36905 c 3.90962,-0.80832 7.711,-3.40948 8.7554,-7.26275 0.91236,-3.36611 -0.43741,-6.99535 -2.55031,-9.77 a 19.73745,19.73745 0 0 0 -23.64558,-5.57725 c 0.37737,-1.98479 -1.11552,-3.94291 -2.95263,-4.78364 a 13.75273,13.75273 0 0 0 -5.95486,-0.79972 c -6.38994,0.0893 -13.193,0.30274 -18.47651,3.89776 -4.21305,2.86667 -6.88794,7.58032 -8.27374,12.48409 -1.3858,4.90377 -1.61217,10.04939 -1.8301,15.14056 -0.38195,8.92283 3.11413,27.70321 3.11413,27.70321 0,0 12.36326,3.39891 17.7795,4.97366 5.82024,1.69221 15.64048,3.38443 21.46072,5.07664 1.48969,0.43312 3.4846,0.67631 4.23322,-0.68249 0.59765,-1.08479 -0.0935,-2.4061 -0.78855,-3.43124 -3.06038,-4.514 -6.56636,-8.77139 -8.92068,-13.69069 -2.35432,-4.9193 -3.456,-10.76465 -1.43463,-15.82988 2.02137,-5.06523 15.57501,-6.63995 19.48462,-7.44826 z"
     fill="#2f2e41"
     id="path1610" />
  <ellipse
     cx="511.26355"
     cy="396.31332"
     fill="#e6e6e6"
     id="circle3744"
     style="stroke-width:0.517488"
     rx="51.37598"
     ry="50.833595" />
  <ellipse
     cx="511.26355"
     cy="396.31332"
     fill="#99c33d"
     id="circle3746"
     style="stroke-width:0.517488"
     rx="42.813313"
     ry="42.36134" />
  <polygon
     points="67.146,101.741 81.088,90.896 92.44,105.492 130.789,65.011 143.612,77.16 91.121,132.566 "
     fill="#ffffff"
     id="polygon3756"
     transform="matrix(0.52024301,0,0,0.51475085,459.88757,345.47971)" />
  <g
     id="g9206"
     transform="matrix(0.7507252,0.10453486,-0.0627104,0.76958738,115.97327,52.789557)">
    <text
       xml:space="preserve"
       style="font-style:normal;font-variant:normal;font-weight:bold;font-stretch:normal;font-size:41.863px;line-height:1.85;font-family:'Gujarati Sangam MN';-inkscape-font-specification:'Gujarati Sangam MN Bold';white-space:pre;inline-size:345.353;fill:#00005e;fill-opacity:1;stroke:none"
       x="466.15106"
       y="464.25613"
       id="text9202"
       transform="translate(-32.991837,22.51889)"><tspan
         x="466.15106"
         y="464.25613"><tspan
           style="font-style:normal;font-variant:normal;font-weight:bold;font-stretch:normal;font-size:41.863px;font-family:sans-serif;-inkscape-font-specification:'sans-serif Bold';fill:#00005e;fill-opacity:1">CHECK-IN</tspan></tspan></text>
  </g>
</svg>
