<?xml version="1.0" encoding="UTF-8" standalone="no"?>
<svg
   xmlns:dc="http://purl.org/dc/elements/1.1/"
   xmlns:cc="http://creativecommons.org/ns#"
   xmlns:rdf="http://www.w3.org/1999/02/22-rdf-syntax-ns#"
   xmlns:svg="http://www.w3.org/2000/svg"
   xmlns="http://www.w3.org/2000/svg"
   xmlns:sodipodi="http://sodipodi.sourceforge.net/DTD/sodipodi-0.dtd"
   xmlns:inkscape="http://www.inkscape.org/namespaces/inkscape"
   id="a51bdc40-e545-4be9-b931-e3a37b4efbd3"
   data-name="Layer 1"
   width="906"
   height="510.5"
   viewBox="0 0 906 510.5"
   version="1.1"
   sodipodi:docname="draw_patient-wait.svg"
   inkscape:version="1.0.2 (e86c8708, 2021-01-15)">
  <metadata
     id="metadata932">
    <rdf:RDF>
      <cc:Work
         rdf:about="">
        <dc:format>image/svg+xml</dc:format>
        <dc:type
           rdf:resource="http://purl.org/dc/dcmitype/StillImage" />
        <dc:title />
      </cc:Work>
    </rdf:RDF>
  </metadata>
  <defs
     id="defs930" />
  <sodipodi:namedview
     pagecolor="#ffffff"
     bordercolor="#666666"
     borderopacity="1"
     objecttolerance="10"
     gridtolerance="10"
     guidetolerance="10"
     inkscape:pageopacity="0"
     inkscape:pageshadow="2"
     inkscape:window-width="1472"
     inkscape:window-height="935"
     id="namedview928"
     showgrid="false"
     inkscape:zoom="1.411962"
     inkscape:cx="488.93587"
     inkscape:cy="105.55115"
     inkscape:window-x="169"
     inkscape:window-y="25"
     inkscape:window-maximized="0"
     inkscape:current-layer="a51bdc40-e545-4be9-b931-e3a37b4efbd3"
     inkscape:document-rotation="0" />
  <ellipse
     cx="815.52728"
     cy="505.93704"
     rx="17.387987"
     ry="3.2293394"
     fill="#f2f2f2"
     id="ellipse833"
     style="stroke-width:0.764796" />
  <rect
     x="860.77953"
     y="123.5"
     width="2"
     height="42"
     fill="#f2f2f2"
     id="rect835"
     style="fill:#ffffff" />
  <rect
     x="828.77953"
     y="96.5"
     width="12"
     height="414"
     fill="#f2f2f2"
     id="rect837"
     style="fill:#ffffff" />
  <circle
     cx="861.77953"
     cy="165.5"
     r="7"
     fill="#f2f2f2"
     id="circle841"
     style="fill:#ffffff" />
  <path
     d="M272.56021,594.1142c-5.05211,17.52641-19.80363,29.79509-35.19135,40.21717q-3.2228,2.18325-6.44766,4.266c-.01456.00637-.02957.02-.04432.0265-.10343.06644-.20707.133-.30344.1999-.44371.286-.88759.57223-1.32762.855l.24171.10859s.23735.1262-.02233.02023c-.07728-.03233-.15825-.06136-.23537-.09387-8.93929-3.60536-18.03735-7.4764-24.888-14.23042-7.1065-7.0136-11.25952-18.01412-7.41141-27.228a17.59159,17.59159,0,0,1,1.90481-3.41887c.31214-.44666.64831-.87415.99832-1.29373a18.85593,18.85593,0,0,1,32.38561,5.72979c1.13049-10.52575-7.5488-19.34264-15.90135-25.84822-8.35624-6.50227-17.85126-13.5834-19.46674-24.05073-.90216-5.82389,1.12305-11.46779,4.81223-15.99852.11421-.13767.22827-.27514.34591-.409a27.51847,27.51847,0,0,1,17.68718-9.48884c12.8132-1.33168,25.25926,5.45059,34.56778,14.35941C269.2462,552.17026,278.30348,574.18677,272.56021,594.1142Z"
     transform="translate(-147 -194.75)"
     fill="#f2f2f2"
     id="path843"
     style="fill:#99c33d;fill-opacity:1" />
  <path
     d="M248.476,571.18985a46.77918,46.77918,0,0,1,5.60443,12.36093,40.61956,40.61956,0,0,1,1.404,11.99679,52.0438,52.0438,0,0,1-6.81624,23.68462,74.90268,74.90268,0,0,1-11.29937,15.09918q-3.2228,2.18325-6.44766,4.266c-.01456.00637-.02957.02-.04432.0265-.10343.06644-.20707.133-.30344.1999-.44371.286-.88759.57223-1.32762.855,0,0,.47906.23479.21938.12882-.07728-.03233-.15825-.06136-.23537-.09387a41.40489,41.40489,0,0,0-13.249-35.6508,41.75957,41.75957,0,0,0-17.14558-9.22645c.31214-.44666.64831-.87415.99832-1.29373a43.29512,43.29512,0,0,1,7.14664,2.70437A42.42394,42.42394,0,0,1,226.162,614.74056a43.37384,43.37384,0,0,1,4.72253,23.80133c.36729-.33284.735-.6729,1.09168-1.00976,6.79289-6.33308,12.82633-13.60244,16.90957-21.99188a48.41641,48.41641,0,0,0,5.06985-22.90745c-.33324-8.6533-3.781-16.66847-8.77294-23.64614a101.34581,101.34581,0,0,0-19.2105-19.79843A115.15779,115.15779,0,0,0,202.08,534.43767a.828.828,0,0,1-.41667-1.06262.70423.70423,0,0,1,.34591-.409.613.613,0,0,1,.53242.02262c1.0539.48517,2.10048.977,3.13868,1.49006a116.46519,116.46519,0,0,1,24.06247,15.87266C236.8256,556.38989,243.49365,563.2889,248.476,571.18985Z"
     transform="translate(-147 -194.75)"
     fill="#fff"
     id="path845" />
  <path
     d="M199.62527,638.25h55.36362a4.28276,4.28276,0,0,1,4.24985,4.81413l-7.05426,56.43411a4.2898,4.2898,0,0,1-4.24986,3.75176H206.67953a4.28978,4.28978,0,0,1-4.24985-3.75176l-7.05427-56.43411a4.28276,4.28276,0,0,1,4.24986-4.81413Z"
     transform="translate(-147 -194.75)"
     fill="#f2f2f2"
     id="path847"
     style="fill:#96a7f2;fill-opacity:1" />
  <circle
     cx="233.13798"
     cy="502.00509"
     r="6.92872"
     fill="#ccc"
     id="circle849" />
  <circle
     cx="670.80193"
     cy="502.00509"
     r="6.92872"
     fill="#ccc"
     id="circle851" />
  <path
     d="M507.16446,600.33045H398.61456a19.07553,19.07553,0,0,1-19.054-19.054V507.37016a19.07553,19.07553,0,0,1,19.054-19.054h108.5499a19.07553,19.07553,0,0,1,19.054,19.054v73.90632A19.07553,19.07553,0,0,1,507.16446,600.33045Z"
     transform="translate(-147 -194.75)"
     fill="#e6e6e6"
     id="path853" />
  <path
     d="M653.2449,600.90784H544.695a19.07553,19.07553,0,0,1-19.054-19.054V507.94756a19.07553,19.07553,0,0,1,19.054-19.054H653.2449a19.07553,19.07553,0,0,1,19.054,19.054v73.90631A19.07553,19.07553,0,0,1,653.2449,600.90784Z"
     transform="translate(-147 -194.75)"
     fill="#e6e6e6"
     id="path855" />
  <path
     d="M799.32535,601.48523H690.77545a19.07553,19.07553,0,0,1-19.054-19.054V508.525a19.07553,19.07553,0,0,1,19.054-19.054h108.5499a19.07553,19.07553,0,0,1,19.054,19.054v73.90631A19.07553,19.07553,0,0,1,799.32535,601.48523Z"
     transform="translate(-147 -194.75)"
     fill="#e6e6e6"
     id="path857" />
  <rect
     x="215.81619"
     y="401.5387"
     width="478.08147"
     height="99.889"
     fill="#e6e6e6"
     id="rect859" />
  <path
     d="M380.138,696.75509H359.35183c-10.50641,0-19.054-9.705-19.054-21.6342V570.8834H380.138Z"
     transform="translate(-147 -194.75)"
     fill="#e6e6e6"
     id="path861" />
  <path
     d="M838.58808,696.75509H817.80193V554.7164h39.84012V672.34219C857.64205,685.80353,849.09449,696.75509,838.58808,696.75509Z"
     transform="translate(-147 -194.75)"
     fill="#e6e6e6"
     id="path863" />
  <path
     d="M526.79582,617.07485H380.138V585.89562q73.32919-42.06328,146.65784,0Z"
     transform="translate(-147 -194.75)"
     fill="#ccc"
     id="path865" />
  <path
     d="M672.87627,617.65224H526.21843V586.473q73.32919-42.06327,146.65784,0Z"
     transform="translate(-147 -194.75)"
     fill="#ccc"
     id="path867" />
  <path
     d="M818.95672,618.22963H672.29888V587.05041q73.3292-42.06328,146.65784,0Z"
     transform="translate(-147 -194.75)"
     fill="#ccc"
     id="path869" />
  <circle
     cx="204.84572"
     cy="368.62729"
     r="34.06619"
     fill="#ccc"
     id="circle871" />
  <circle
     cx="703.71334"
     cy="367.47251"
     r="34.06619"
     fill="#ccc"
     id="circle873" />
  <path
     d="M750.36376,495.48413a10.52663,10.52663,0,0,1,.10713,1.654l40.83394,28.14389,10.88943-5.1551,9.92791,15.41722-18.39069,10.99952a8,8,0,0,1-9.5486-1.002l-41.35443-38.38235a10.4971,10.4971,0,1,1,7.53531-11.67516Z"
     transform="translate(-147 -194.75)"
     fill="#ffb8b8"
     id="path875"
     style="opacity:0" />
  <path
     d="M792.09163,522.86016a4.49518,4.49518,0,0,1,2.4465-2.83816l20.5327-9.408a12.49742,12.49742,0,0,1,13.69556,20.90858L811.792,546.53208a4.5,4.5,0,0,1-6.75219-.91657l-12.39752-19.04843A4.495,4.495,0,0,1,792.09163,522.86016Z"
     transform="translate(-147 -194.75)"
     fill="#99c33d"
     id="path877"
     style="opacity:0" />
  <path
     d="M749.8491,497.31856l-.20515.01484-.56042-7.74517c-.17913-2.47572-1.78059-4.37732-3.57694-4.24735l0,0-11.90631.86151c-1.79636.13-5.10216,2.38665-4.923,4.86237l.14434,1.9948,2.93018,40.49581c.17914,2.47572,3.77538,4.233,5.57173,4.103h0l11.90632-.86152c1.79635-.13,3.10737-2.24231,2.92824-4.718v0l-2.11518-29.23228.20514-.01484Z"
     fill="#3f3d56"
     id="path879"
     style="opacity:0"
     transform="translate(-147 -194.75)" />
  <path
     d="M748.39349,489.6696l3.07,42.42808c.13377,1.84892-.84532,3.42644-2.18687,3.52355l-11.96344.86564c-1.34155.097-2.53754-1.3231-2.67135-3.172l-3.07-42.42808c-.13376-1.84892.84533-3.42644,2.18688-3.52355l1.45131-.105a1.84749,1.84749,0,0,0,.78429,2.02782.88852.88852,0,0,0,.44286.08594l6.821-.49355c.63763-.0468,1.1026-.79715,1.03854-1.676a2.13193,2.13193,0,0,0-.12848-.59245l1.55392-.11243C747.0637,486.40055,748.25969,487.82069,748.39349,489.6696Z"
     fill="#fff"
     id="path881"
     style="opacity:0"
     transform="translate(-147 -194.75)" />
  <polygon
     points="433.561 392.89 429.615 381.283 472.509 360.539 478.333 377.671 433.561 392.89"
     fill="#ffb8b8"
     id="polygon883"
     style="opacity:0" />
  <path
     d="M570.31592,594.42579l-12.72313-37.42705.47339-.16095a15.38605,15.38605,0,0,1,19.52009,9.61488l.00032.00092,7.77074,22.8591Z"
     transform="translate(-147 -194.75)"
     fill="#2f2e41"
     id="path885"
     style="opacity:0" />
  <path
     d="M750.8026,595.92416a52.352,52.352,0,0,1-26.59248-5.56753L673.77144,556.0435l-58.89509,21.80873a6.52023,6.52023,0,0,1-8.11284-3.652l-2.88654-6.94309a6.46712,6.46712,0,0,1,3.33919-8.42458l56.267-25.26822a32.88554,32.88554,0,0,1,21.50752-1.86025l78.1124,19.90533,20.64717,24.52014-.22949.31622C773.38514,590.43,761.36215,595.1601,750.8026,595.92416Z"
     transform="translate(-147 -194.75)"
     fill="#2f2e41"
     id="path887"
     style="opacity:0" />
  <circle
     cx="667.59709"
     cy="274.15238"
     r="24.56103"
     fill="#ffb8b8"
     id="circle889"
     style="opacity:0" />
  <path
     d="M789.38494,587.062l-39.52931-29.41727L776.814,538.48518c-.77119-2.48158-4.19175-16.66967,14.51625-26.34092,5.92149-3.06082,10.188-5.69591,12.68079-7.83109a19.1416,19.1416,0,0,1,12.73791-4.64673,18.974,18.974,0,0,1,17.831,24.5604c-3.901,12.68032-10.11471,29.48263-17.565,37.51831a232.61337,232.61337,0,0,1-27.33117,25.09258Z"
     transform="translate(-147 -194.75)"
     fill="#99c33d"
     id="path891"
     style="opacity:0" />
  <polygon
     points="439.829 403.176 435.883 391.568 478.777 370.825 484.601 387.956 439.829 403.176"
     fill="#ffb8b8"
     id="polygon893"
     style="opacity:0" />
  <path
     d="M576.5838,604.71131l-12.72312-37.427.47339-.16095a15.38606,15.38606,0,0,1,19.52009,9.61487l.00031.00093,7.77074,22.8591Z"
     transform="translate(-147 -194.75)"
     fill="#2f2e41"
     id="path895"
     style="opacity:0;" />
  <path
     d="M757.07049,606.20969a52.35209,52.35209,0,0,1-26.59248-5.56753L680.03933,566.329l-58.89509,21.80874a6.52026,6.52026,0,0,1-8.11285-3.65206l-2.88653-6.94308a6.46711,6.46711,0,0,1,3.33919-8.42458l56.267-25.26822a32.88547,32.88547,0,0,1,21.50752-1.86025L769.371,561.8949,790.01813,586.415l-.22949.31621C779.653,600.7155,767.63,605.44562,757.07049,606.20969Z"
     transform="translate(-147 -194.75)"
     fill="#2f2e41"
     id="path897"
     style="opacity:0;" />
  <path
     d="M745.73344,524.94715a10.527,10.527,0,0,1,.805,1.44889l48.95175,7.95077,7.6337-9.321,15.57282,9.682-11.91036,17.81433a8,8,0,0,1-9.05817,3.18268l-53.80572-16.98049a10.4971,10.4971,0,1,1,1.811-13.77718Z"
     transform="translate(-147 -194.75)"
     fill="#ffb8b8"
     id="path899"
     style="opacity:0" />
  <path
     d="M795.16429,531.82126a4.49517,4.49517,0,0,1,.99576-3.61233l14.52749-17.2932a12.49742,12.49742,0,0,1,21.3288,13.03148L823.1028,544.779a4.5,4.5,0,0,1-6.49444,2.06264L797.249,534.93547A4.49494,4.49494,0,0,1,795.16429,531.82126Z"
     transform="translate(-147 -194.75)"
     fill="#99c33d"
     id="path901"
     style="opacity:0" />
  <path
     d="M808.03069,495.9518a53.614,53.614,0,0,0,11.276-32.06407,33.1019,33.1019,0,0,1-11.20613,5.41262c-4.29157,1.143-9.0096,1.3729-13.05121-.46813-5.68859-2.59126-9.05322-9.19992-8.4076-15.41747s4.94246-11.77179,10.53709-14.56013a24.858,24.858,0,0,1,18.26706-1.10575,21.71889,21.71889,0,0,1,23.33416-3.114c8.69367,4.267,13.5018,14.14816,14.33558,23.79658s-1.64493,19.24168-4.10249,28.609l-.27767,1.05838c-.7651,2.91631-2.98912,8.51158-2.98912,8.51158s-12.916-2.54892-18.04727-4.18286C820.2615,495.11567,808.03069,495.9518,808.03069,495.9518Z"
     transform="translate(-147 -194.75)"
     fill="#2f2e41"
     id="path903"
     style="opacity:0" />
  <path
     d="M746.46278,498.30568l-10.52376.76148a1,1,0,0,1-.14434-1.99479l10.52376-.76147a1,1,0,1,1,.14434,1.99478Z"
     fill="#3f3d56"
     id="path905"
     style="opacity:0"
     transform="translate(-147 -194.75)" />
  <path
     d="M746.82362,503.29265l-10.52375.76147a1,1,0,1,1-.14434-1.99478l10.52375-.76148a1,1,0,0,1,.14434,1.99479Z"
     fill="#3f3d56"
     id="path907"
     style="opacity:0"
     transform="translate(-147 -194.75)" />
  <path
     d="M747.18447,508.27961l-10.52376.76147a1,1,0,0,1-.14434-1.99478l10.52376-.76148a1,1,0,0,1,.14434,1.99479Z"
     fill="#3f3d56"
     id="path909"
     style="opacity:0"
     transform="translate(-147 -194.75)" />
  <path
     d="M1052,705.25H148a1,1,0,0,1,0-2h904a1,1,0,0,1,0,2Z"
     transform="translate(-147 -194.75)"
     fill="#3f3d56"
     id="path911" />
  <polygon
     points="276.52,428.761 258.426,428.761 258.428,476.049 270.688,476.049 "
     fill="#a0616a"
     id="polygon2779"
     transform="translate(194.65053,6.4608468)"
     style="fill:#ffccaa" />
  <path
     d="m 488.9827,493.89241 -38.53072,0.002 -6.8e-4,-14.88687 23.64384,-0.001 a 14.88688,14.88688 0 0 1 14.88756,14.8862 v 0 z"
     fill="#2f2e41"
     id="path2781" />
  <polygon
     points="280.671,418.671 263.407,424.088 277.566,469.207 289.263,465.536 "
     fill="#a0616a"
     id="polygon2783"
     transform="translate(194.65053,6.4608468)"
     style="fill:#ffccaa" />
  <path
     d="m 509.88128,475.77893 -36.76302,11.53677 -4.45738,-14.20388 22.55916,-7.0794 a 14.88686,14.88686 0 0 1 18.66127,9.7465 v 0 z"
     fill="#2f2e41"
     id="path2785" />
  <path
     d="m 464.01439,453.90256 -22.42725,-58.87109 c -5.03149,1.18164 -47.22656,10.51855 -61.35888,-4.52832 -4.84327,-5.15723 -5.78785,-12.62891 -2.80762,-22.208 l 8.24756,-10.3643 0.25634,0.0137 c 3.11841,0.16406 76.43531,4.27344 81.46119,26.38867 4.23754,18.64454 11.97656,53.40528 14.24731,63.61524 a 4.51573,4.51573 0 0 1 -2.814,5.18359 l -9.01929,3.38184 a 4.46228,4.46228 0 0 1 -1.572,0.28613 4.51293,4.51293 0 0 1 -4.21336,-2.89743 z"
     fill="#2f2e41"
     id="path2787" />
  <path
     d="m 451.01439,460.90256 -22.42725,-58.87109 c -5.03174,1.18164 -47.22656,10.51757 -61.35888,-4.52832 -4.84327,-5.15723 -5.78785,-12.62891 -2.80762,-22.208 l 8.24756,-10.3643 0.25634,0.0137 c 3.11841,0.16406 76.43531,4.27344 81.46119,26.38867 4.23754,18.64454 11.97656,53.40528 14.24731,63.61524 a 4.51573,4.51573 0 0 1 -2.814,5.18359 l -9.01929,3.38184 a 4.46228,4.46228 0 0 1 -1.572,0.28613 4.51293,4.51293 0 0 1 -4.21336,-2.89743 z"
     fill="#2f2e41"
     id="path2789" />
  <path
     d="m 430.84086,346.68474 a 19.19641,19.19641 0 0 1 -16.4845,-9.37159 l -7.12256,-12.06591 16.92933,-9.25293 7.18835,9.856 48.77356,-5.13867 a 10.56012,10.56012 0 0 1 0.79919,-1.23389 v 0 a 11.0157,11.0157 0 0 1 7.8733,-4.314 10.89328,10.89328 0 0 1 8.49267,3.01221 11.02274,11.02274 0 0 1 1.85986,13.56347 11.00367,11.00367 0 0 1 -16.1134,3.15088 10.39918,10.39918 0 0 1 -0.82287,-0.70019 l -46.7146,11.91064 a 18.83682,18.83682 0 0 1 -4.65833,0.58398 z"
     fill="#a0616a"
     id="path2791"
     style="fill:#ffccaa" />
  <path
     d="m 364.10353,378.40354 a 4.50692,4.50692 0 0 1 -1.8186,-4.34864 c 2.78247,-18.34277 -0.41895,-44.61914 -3.59473,-63.43261 a 24.79543,24.79543 0 0 1 27.55933,-28.76172 79.86445,79.86445 0 0 1 9.91284,1.9541 v 0 a 24.59626,24.59626 0 0 1 18.582,24.46777 c -0.47485,18.1543 3.21142,40.80567 4.81836,49.70117 a 4.51862,4.51862 0 0 1 -0.83374,3.51075 4.39229,4.39229 0 0 1 -3.09546,1.75 c -17.80811,1.81738 -37.01221,10.50195 -46.87451,15.5166 a 4.50061,4.50061 0 0 1 -2.04956,0.501 4.42883,4.42883 0 0 1 -2.60593,-0.85842 z"
     fill="#99c33d"
     id="path2793" />
  <path
     d="m 412.1743,331.09201 a 4.47083,4.47083 0 0 1 -2.47363,-2.39746 l -9.9314,-22.94238 a 11.49973,11.49973 0 1 1 21.10718,-9.13574 l 9.93164,22.94238 a 4.5057,4.5057 0 0 1 -2.342,5.917 l -12.8479,5.56153 a 4.46857,4.46857 0 0 1 -3.44385,0.0547 z"
     fill="#99c33d"
     id="path2795" />
  <circle
     cx="384.42181"
     cy="257.26016"
     fill="#a0616a"
     id="circle2797"
     style="fill:#ffccaa"
     r="24.561029" />
  <path
     d="m 369.57905,279.08086 a 3.97443,3.97443 0 0 1 -5.69016,0.32691 44.42586,44.42586 0 0 1 -12.67228,-16.54878 c -3.19306,-7.611 -3.661,-16.899 -0.027,-24.03305 3.072,-6.03078 8.58662,-9.86968 14.09195,-13.00723 a 22.99349,22.99349 0 0 1 6.84781,-2.89429 8.99361,8.99361 0 0 1 7.154,1.40678 7.54423,7.54423 0 0 1 2.878,7.22723 22.35408,22.35408 0 0 1 9.80208,-7.35654 11.36522,11.36522 0 0 1 7.55375,-0.50594 c 3.53554,1.18009 6.15253,4.75026 7.60882,8.58606 a 19.14076,19.14076 0 0 1 1.25546,9.26373 11.12855,11.12855 0 0 1 -4.2691,7.67142 c -2.88387,1.98989 -6.59927,1.78779 -9.95313,0.90708 -3.35386,-0.88071 -6.60888,-2.37392 -10.02126,-2.79024 -3.41238,-0.41632 -7.19423,0.4863 -9.22732,3.52991 -1.43176,2.14338 -1.7693,4.96687 -2.06144,7.65827 l -1.51947,13.99864 a 18.54788,18.54788 0 0 1 -1.27762,5.83956 3.25084,3.25084 0 0 1 -0.47309,0.72048 z"
     fill="#2f2e41"
     id="path2799" />
  <path
     d="m 422.08153,372.33073 a 11.01884,11.01884 0 0 1 -6.53393,-6.15772 10.25849,10.25849 0 0 1 -0.35913,-1.019 l -52.322,-14.89307 a 10.88006,10.88006 0 0 1 -7.86109,-10.34277 l -0.12768,-20.20166 19.28588,0.51611 1.25684,12.13428 44.74072,20.08691 a 10.56863,10.56863 0 0 1 1.31153,-0.66455 h 2.4e-4 a 11.01,11.01 0 1 1 0.60864,20.54151 z"
     fill="#a0616a"
     id="path2801"
     style="fill:#ffccaa" />
  <path
     d="m 355.17767,328.58517 a 4.47084,4.47084 0 0 1 -1.11986,-3.2577 l 1.534,-24.9526 a 11.49972,11.49972 0 1 1 22.956,1.41236 l -1.53376,24.95272 a 4.50569,4.50569 0 0 1 -4.76751,4.21506 l -13.97358,-0.85915 a 4.46863,4.46863 0 0 1 -3.09531,-1.51069 z"
     fill="#99c33d"
     id="path2803" />
  <path
     d="M 491.71836,340.96085 H 477.5827 a 1.8178,1.8178 0 0 1 -1.81577,-1.64688 l -2.82949,-29.00177 h 23.42618 l -2.82949,29.00141 a 1.81783,1.81783 0 0 1 -1.81577,1.64724 z"
     fill="#99c33d"
     id="path2805" />
  <path
     d="m 496.32621,313.96085 h -23.35136 a 1.82647,1.82647 0 0 1 -1.82432,-1.82432 v -4.37838 a 1.82647,1.82647 0 0 1 1.82432,-1.82433 h 23.35136 a 1.82647,1.82647 0 0 1 1.82432,1.82433 v 4.37838 a 1.82647,1.82647 0 0 1 -1.82432,1.82432 z"
     fill="#3f3d56"
     id="path2807"
     style="fill:#96a7f2;fill-opacity:1" />
  <path
     d="m 838.14985,416.34509 c -6.07289,25.01574 -26.87386,40.50862 -26.87386,40.50862 0,0 -10.95491,-25.06565 -4.88202,-50.08141 6.07288,-25.01575 26.87385,-40.5086 26.87385,-40.5086 0,0 10.95488,25.06566 4.88203,50.08139 z"
     fill="#99c33d"
     id="path867-0"
     style="stroke-width:0.764796" />
  <path
     d="m 782.90349,416.34509 c 6.07289,25.01574 26.8739,40.50862 26.8739,40.50862 0,0 10.95491,-25.06565 4.88202,-50.08141 -6.07288,-25.01575 -26.87386,-40.5086 -26.87386,-40.5086 0,0 -10.95494,25.06566 -4.88206,50.08139 z"
     fill="#99c33d"
     id="path869-5"
     style="stroke-width:0.764796" />
  <path
     d="m 791.82717,410.96894 c 16.66408,18.07654 18.69949,45.86437 18.69949,45.86437 0,0 -24.98243,-1.52001 -41.64652,-19.59654 -16.66409,-18.07653 -18.69948,-45.86437 -18.69948,-45.86437 0,0 24.98242,1.52001 41.64651,19.59654 z"
     fill="#3f3d56"
     id="path871"
     style="fill:#3f8956;fill-opacity:1;stroke-width:0.764796" />
  <path
     d="m 829.22614,410.96894 c -16.66409,18.07654 -18.69948,45.86437 -18.69948,45.86437 0,0 24.98242,-1.52001 41.64651,-19.59654 16.66409,-18.07653 18.69948,-45.86437 18.69948,-45.86437 0,0 -24.98242,1.52001 -41.64651,19.59654 z"
     fill="#3f3d56"
     id="path873"
     style="fill:#3f8356;fill-opacity:1;stroke-width:0.764796" />
  <path
     d="m 840.77954,510.5 h -60.13346 l -10.46013,-39.73667 a 14.575343,16.241809 0 0 1 13.98604,-20.81344 h 52.60503 a 14.575336,16.241801 0 0 1 14.03552,20.62108 z"
     fill="#3f3d56"
     id="path941"
     style="fill:#96a7f2;fill-opacity:1;stroke-width:0.764796" />
  <circle
     cx="589.8139"
     cy="135.85396"
     fill="#3f3d56"
     id="circle6660"
     style="stroke-width:0.471962"
     r="99.349998" />
  <circle
     cx="589.8139"
     cy="135.85396"
     fill="#ffffff"
     id="circle6662"
     style="stroke-width:0.471962"
     r="91.125671" />
  <circle
     cx="589.48474"
     cy="136.18292"
     fill="#3f3d56"
     id="circle6664"
     style="stroke-width:0.471962"
     r="12.172019" />
  <rect
     x="586.85291"
     y="49.333939"
     width="5.263577"
     height="9.8692064"
     fill="#3f3d56"
     id="rect6666"
     style="stroke-width:0.471962" />
  <rect
     x="586.85291"
     y="213.1627"
     width="5.263577"
     height="9.8692064"
     fill="#3f3d56"
     id="rect6668"
     style="stroke-width:0.471962" />
  <rect
     x="133.55113"
     y="-512.50513"
     width="5.2635775"
     height="9.8692064"
     transform="rotate(90)"
     fill="#3f3d56"
     id="rect6670"
     style="stroke-width:0.471962" />
  <rect
     x="133.55112"
     y="-676.3335"
     width="5.2635775"
     height="9.8692064"
     transform="rotate(90)"
     fill="#3f3d56"
     id="rect6672"
     style="stroke-width:0.471962" />
  <polygon
     points="460.455,304.493 579.88,370.635 450.924,326.286 "
     fill="#3f3d56"
     id="polygon6674"
     transform="matrix(0.47196348,0,0,0.47196347,373.15627,-12.528175)" />
  <path
     sodipodi:type="star"
     style="opacity:0;fill:#000000;stroke:#000000;stroke-width:0.791"
     id="path7632"
     sodipodi:sides="5"
     sodipodi:cx="334.28662"
     sodipodi:cy="-84.988121"
     sodipodi:r1="71.12027"
     sodipodi:r2="35.560139"
     sodipodi:arg1="0.77131459"
     sodipodi:arg2="1.3996331"
     inkscape:flatsided="false"
     inkscape:rounded="0"
     inkscape:randomized="0"
     d="m 385.27949,-35.411718 -44.93596,-14.535894 -37.44921,28.776545 -0.0615,-47.228476 -38.94057,-26.723873 44.89794,-14.652904 13.38262,-45.29281 27.80997,38.17248 47.21148,-1.26862 -27.71044,38.244796 z"
     inkscape:transform-center-x="3.7433768"
     inkscape:transform-center-y="-3.1319784" />
  <rect
     style="opacity:0;fill:#000000;stroke:#000000;stroke-width:0.791"
     id="rect7656"
     width="146.60451"
     height="33.995251"
     x="198.30562"
     y="-53.825813" />
  <polygon
     points="450.924,326.286 460.455,304.493 579.88,370.635 "
     fill="#3f3d56"
     id="polygon6674-9"
     transform="matrix(0,-0.47196348,0.47196347,0,444.47914,346.00106)" />
</svg>
