<?xml version="1.0" encoding="UTF-8" standalone="no"?>
<svg
   xmlns:osb="http://www.openswatchbook.org/uri/2009/osb"
   xmlns:dc="http://purl.org/dc/elements/1.1/"
   xmlns:cc="http://creativecommons.org/ns#"
   xmlns:rdf="http://www.w3.org/1999/02/22-rdf-syntax-ns#"
   xmlns:svg="http://www.w3.org/2000/svg"
   xmlns="http://www.w3.org/2000/svg"
   xmlns:xlink="http://www.w3.org/1999/xlink"
   xmlns:sodipodi="http://sodipodi.sourceforge.net/DTD/sodipodi-0.dtd"
   xmlns:inkscape="http://www.inkscape.org/namespaces/inkscape"
   id="a6165653-2719-4fed-8ed9-8fe7d02b0919"
   width="777.80549"
   height="639.55194"
   viewBox="0 0 777.80549 639.55194"
   version="1.1"
   sodipodi:docname="draw-health2.svg"
   inkscape:version="1.0.2 (e86c8708, 2021-01-15)">
  <metadata
     id="metadata922">
    <rdf:RDF>
      <cc:Work
         rdf:about="">
        <dc:format>image/svg+xml</dc:format>
        <dc:type
           rdf:resource="http://purl.org/dc/dcmitype/StillImage" />
      </cc:Work>
    </rdf:RDF>
  </metadata>
  <defs
     id="defs920">
    <linearGradient
       inkscape:collect="always"
       id="linearGradient2992">
      <stop
         style="stop-color:#ffffff;stop-opacity:1;"
         offset="0"
         id="stop2988" />
      <stop
         style="stop-color:#ffffff;stop-opacity:0;"
         offset="1"
         id="stop2990" />
    </linearGradient>
    <linearGradient
       id="linearGradient2961"
       osb:paint="solid">
      <stop
         style="stop-color:#ffffff;stop-opacity:1;"
         offset="0"
         id="stop2959" />
    </linearGradient>
    <linearGradient
       inkscape:collect="always"
       id="linearGradient1009"
       osb:paint="gradient">
      <stop
         style="stop-color:#0f0000;stop-opacity:0.95317727;"
         offset="0"
         id="stop1005" />
      <stop
         style="stop-color:#ffffff;stop-opacity:0;"
         offset="1"
         id="stop1007" />
    </linearGradient>
    <linearGradient
       inkscape:collect="always"
       xlink:href="#linearGradient2992"
       id="linearGradient2994"
       x1="277.47287"
       y1="305.63343"
       x2="711.47287"
       y2="305.63343"
       gradientUnits="userSpaceOnUse" />
  </defs>
  <sodipodi:namedview
     pagecolor="#ffffff"
     bordercolor="#666666"
     borderopacity="1"
     objecttolerance="10"
     gridtolerance="10"
     guidetolerance="10"
     inkscape:pageopacity="0"
     inkscape:pageshadow="2"
     inkscape:window-width="1680"
     inkscape:window-height="997"
     id="namedview918"
     showgrid="false"
     inkscape:zoom="0.72173602"
     inkscape:cx="338.24765"
     inkscape:cy="520.10276"
     inkscape:window-x="0"
     inkscape:window-y="25"
     inkscape:window-maximized="1"
     inkscape:current-layer="a6165653-2719-4fed-8ed9-8fe7d02b0919"
     inkscape:document-rotation="0" />
  <path
     d="M941.53245,725.07007c13.35843-15.199,76.26477-90.00934,31.55383-102.34248-33.58077-9.26295-37.322,41.69916-36.1949,75.89894-5.37716-23.04158-15.813-49.95781-34.14772-38.0819-26.42393,17.11543,23.08826,54.99167,36.02171,64.28979.21236,1.89073.35246,2.94155.35246,2.94155s.5305-.57846,1.47618-1.643c.73881.51734,1.14973.79519,1.14973.79519S941.675,726.2579,941.53245,725.07007Z"
     transform="translate(-211.09726 -130.22403)"
     fill="#e6e6e6"
     id="path861" />
  <path
     d="M264.28147,766.67679c15.3-17.40808,87.3493-103.09155,36.14-117.21722-38.46149-10.60926-42.74646,47.75982-41.45557,86.93029-6.15869-26.3905-18.11126-57.21881-39.11084-43.61682-30.26446,19.603,26.444,62.98432,41.25721,73.63385.24322,2.16553.40368,3.36908.40368,3.36908s.60761-.66254,1.69074-1.88183c.84619.59252,1.31683.91076,1.31683.91076S264.44474,768.03726,264.28147,766.67679Z"
     transform="translate(-211.09726 -130.22403)"
     fill="#e6e6e6"
     id="path863" />
  <path
     d="M795.40274,414.90335h-294a7.5,7.5,0,0,1,0-15h294a7.5,7.5,0,0,1,0,15Z"
     transform="translate(-211.09726 -130.22403)"
     fill="#fff"
     id="path867" />
  <path
     d="M795.40274,463.40335h-294a7.5,7.5,0,0,1,0-15h294a7.5,7.5,0,0,1,0,15Z"
     transform="translate(-211.09726 -130.22403)"
     fill="#fff"
     id="path873" />
  <path
     d="M795.40274,511.90335h-294a7.5,7.5,0,0,1,0-15h294a7.5,7.5,0,0,1,0,15Z"
     transform="translate(-211.09726 -130.22403)"
     fill="#fff"
     id="path875" />
  <path
     d="M795.40274,560.40335h-294a7.5,7.5,0,0,1,0-15h294a7.5,7.5,0,0,1,0,15Z"
     transform="translate(-211.09726 -130.22403)"
     fill="#fff"
     id="path877" />
  <path
     d="M795.40274,608.90335h-294a7.5,7.5,0,0,1,0-15h294a7.5,7.5,0,0,1,0,15Z"
     transform="translate(-211.09726 -130.22403)"
     fill="#fff"
     id="path879" />
  <path
     d="M795.40274,657.40335h-294a7.5,7.5,0,0,1,0-15h294a7.5,7.5,0,0,1,0,15Z"
     transform="translate(-211.09726 -130.22403)"
     fill="#fff"
     id="path881" />
  <circle
     cx="322.30549"
     cy="159.42932"
     r="39.5"
     fill="#fff"
     id="circle883" />
  <path
     d="M503.50718,428.18833l-58.90306,31.31555-.74561-26.09629c19.22553-3.20948,37.51669-8.7974,54.42941-17.8946l6.1605-15.22008a10.31753,10.31753,0,0,1,17.53643-2.67788l0,0a10.31752,10.31752,0,0,1-.90847,14.06885Z"
     transform="translate(-211.09726 -130.22403)"
     fill="#ffb8b8"
     id="path887" />
  <path
     d="M359.58341,608.993v0a11.57378,11.57378,0,0,1,1.46928-9.36311L373.992,579.77208a22.6122,22.6122,0,0,1,29.335-7.73927h0c-5.438,9.25647-4.67994,17.37679,1.87806,24.43365A117.63085,117.63085,0,0,0,377.269,615.51139,11.57386,11.57386,0,0,1,359.58341,608.993Z"
     transform="translate(-211.09726 -130.22403)"
     fill="#2f2e41"
     id="path889" />
  <path
     d="M506.19,583.02865l0,0a22.20317,22.20317,0,0,1-18.87085,10.77909l-85.96027.65122-3.728-21.62265,38.026-11.18412-32.06116-24.60508,35.04359-41.00845L502.2893,555.363A22.20316,22.20316,0,0,1,506.19,583.02865Z"
     transform="translate(-211.09726 -130.22403)"
     fill="#2f2e41"
     id="path891" />
  <path
     d="M387.93788,730.90531H367.80646C349.73137,607.00759,331.33263,482.76345,385.70106,436.39l64.12232,10.43852-8.2017,54.4294-35.7892,41.00846Z"
     transform="translate(-211.09726 -130.22403)"
     fill="#2f2e41"
     id="path893" />
  <path
     d="M403.63439,768.97185h0a11.57385,11.57385,0,0,1-9.3632-1.46873L374.41263,754.565a22.61221,22.61221,0,0,1-7.741-29.33451v0c9.2568,5.43749,17.37707,4.67891,24.43355-1.87951a117.6303,117.6303,0,0,0,19.04656,27.93494A11.57385,11.57385,0,0,1,403.63439,768.97185Z"
     transform="translate(-211.09726 -130.22403)"
     fill="#2f2e41"
     id="path895" />
  <path
     d="M475.81051,350.27835H380.109c-17.6737-25.00341-19.748-48.91343,0-71.29391,0-9.89633,12.78255-17.9189,28.55061-17.9189h.00005c12.35162,0,23.30262,4.985,27.13873,12.35373Z"
     transform="translate(-211.09726 -130.22403)"
     fill="#2f2e41"
     id="path897" />
  <path
     d="M435.65682,353.62749l-37.28042-8.9473c6.19168-12.6739,6.70156-26.77618,3.728-41.75406l25.35068-.74561C428.24943,320.80591,430.65254,338.20673,435.65682,353.62749Z"
     transform="translate(-211.09726 -130.22403)"
     fill="#ffb8b8"
     id="path899" />
  <path
     d="M445.90274,469.27835c-27.13873,18.49307-46.31417.63272-60.94729-26.92346,2.03338-16.86188-1.259-37.04061-7.35671-58.96635a40.1376,40.1376,0,0,1,24.50567-48.40124l0,0,32.06116,13.421c27.22362,22.19038,32.582,46.227,22.36825,71.5784Z"
     transform="translate(-211.09726 -130.22403)"
     fill="#31ade0"
     id="path901" />
  <path
     d="M367.80646,372.2677l-29.82434,15.65778,52.9382,31.31555,7.366,18.16951a9.63674,9.63674,0,0,1-5.78926,12.73088h0a9.63674,9.63674,0,0,1-12.76159-8.54442l-.74489-12.66307-67.2838-22.20366a15.73308,15.73308,0,0,1-9.87265-9.61147v0a15.73306,15.73306,0,0,1,5.90261-18.30259l54.10485-37.11844Z"
     transform="translate(-211.09726 -130.22403)"
     fill="#ffb8b8"
     id="path903" />
  <path
     d="M397.63079,375.25014c-12.43861-5.45111-23.74934.47044-38.026,5.21925l-2.23683-39.51724c14.17612-7.55568,27.69209-9.59281,40.26285-3.728Z"
     transform="translate(-211.09726 -130.22403)"
     fill="#31ade0"
     id="path905" />
  <path
     d="M474.05565,350.27835H452.94743c-13.13752-24.23557-12.54109-67.05554-40.77728-57.51207-18.14071-10.76664-7.73195,31.48445-12.24283,57.51207h-18.357c-4.98808-25.43029-5.05734-50.91272.81059-71.63526a9.65549,9.65549,0,0,1,3.51179-7.05923,19.95187,19.95187,0,0,1,2.94512-2.2377c6.48684-4.0867,10.84335-6.41448,20.32-6.41448a57.20354,57.20354,0,0,1,15.68763,2.15712c.6636.19439,1.31974.403,1.95349.62106.87239.29868,1.71484.6258,2.52016.97662,4.14562,1.78259,7.40384,4.19573,8.9473,7.2157C456.13119,295.20786,465.25,322.08887,474.05565,350.27835Z"
     transform="translate(-211.09726 -130.22403)"
     fill="#2f2e41"
     id="path907" />
  <circle
     cx="201.41293"
     cy="167.72864"
     r="23.80211"
     fill="#ffb8b8"
     id="circle909" />
  <path
     d="M436.65233,288.77186c-7.16073-9.76016-25.83491,1.88251-48.28429,10.2009V275.85071c18.46723-8.12972,29.236-10.47468,41.48368-2.04018Z"
     transform="translate(-211.09726 -130.22403)"
     fill="#2f2e41"
     id="path911" />
  <path
     d="m 703.97287,541.63343 h -419 a 7.5082,7.5082 0 0 1 -7.5,-7.5 V 77.133425 a 7.5082,7.5082 0 0 1 7.5,-7.5 h 419 a 7.5082,7.5082 0 0 1 7.5,7.5 V 534.13343 a 7.5082,7.5082 0 0 1 -7.5,7.5 z m -419,-469.000005 a 4.50493,4.50493 0 0 0 -4.5,4.5 V 534.13343 a 4.50492,4.50492 0 0 0 4.5,4.5 h 419 a 4.50491,4.50491 0 0 0 4.5,-4.5 V 77.133425 a 4.50492,4.50492 0 0 0 -4.5,-4.5 z"
     fill="#e6e6e6"
     id="path38"
     style="opacity:1;mix-blend-mode:normal;fill:url(#linearGradient2994);fill-opacity:1;fill-rule:nonzero;stroke:#000000;stroke-opacity:1;stroke-linejoin:round;stroke-width:3.5;stroke-miterlimit:4;stroke-dasharray:none" />
  <circle
     cx="371.43512"
     cy="230.13637"
     r="9.8430204"
     fill="#e6e6e6"
     id="circle40" />
  <circle
     cx="412.44769"
     cy="230.13637"
     r="9.8430204"
     fill="#e6e6e6"
     id="circle42" />
  <circle
     cx="453.4603"
     cy="230.13637"
     r="9.8430204"
     fill="#31ade0"
     id="circle44" />
  <circle
     cx="494.47287"
     cy="230.13637"
     r="9.8430204"
     fill="#31ade0"
     id="circle46" />
  <circle
     cx="535.48547"
     cy="230.13637"
     r="9.8430204"
     fill="#31ade0"
     id="circle48" />
  <circle
     cx="576.49805"
     cy="230.13637"
     r="9.8430204"
     fill="#e6e6e6"
     id="circle50" />
  <circle
     cx="617.51062"
     cy="230.13637"
     r="9.8430204"
     fill="#e6e6e6"
     id="circle52" />
  <circle
     cx="371.43512"
     cy="261.30594"
     r="9.8430204"
     fill="#e6e6e6"
     id="circle54" />
  <circle
     cx="412.44769"
     cy="261.30594"
     r="9.8430204"
     fill="#e6e6e6"
     id="circle56" />
  <circle
     cx="453.4603"
     cy="261.30594"
     r="9.8430204"
     fill="#e6e6e6"
     id="circle58" />
  <circle
     cx="494.47287"
     cy="261.30594"
     r="9.8430204"
     fill="#e6e6e6"
     id="circle60" />
  <circle
     cx="535.48547"
     cy="261.30594"
     r="9.8430204"
     fill="#e6e6e6"
     id="circle62" />
  <circle
     cx="576.49805"
     cy="261.30594"
     r="9.8430204"
     fill="#e6e6e6"
     id="circle64" />
  <circle
     cx="617.51062"
     cy="261.30594"
     r="9.8430204"
     fill="#e6e6e6"
     id="circle66" />
  <circle
     cx="371.43512"
     cy="292.47549"
     r="9.8430204"
     fill="#31ade0"
     id="circle68" />
  <circle
     cx="412.44769"
     cy="292.47549"
     r="9.8430204"
     fill="#31ade0"
     id="circle70" />
  <circle
     cx="453.4603"
     cy="292.47549"
     r="9.8430204"
     fill="#31ade0"
     id="circle72" />
  <circle
     cx="494.47287"
     cy="292.47549"
     r="9.8430204"
     fill="#e6e6e6"
     id="circle74" />
  <circle
     cx="535.48547"
     cy="292.47549"
     r="9.8430204"
     fill="#e6e6e6"
     id="circle76" />
  <circle
     cx="576.49805"
     cy="292.47549"
     r="9.8430204"
     fill="#e6e6e6"
     id="circle78" />
  <circle
     cx="617.51062"
     cy="292.47549"
     r="9.8430204"
     fill="#e6e6e6"
     id="circle80" />
  <circle
     cx="371.43512"
     cy="323.64505"
     r="9.8430204"
     fill="#e6e6e6"
     id="circle82" />
  <circle
     cx="412.44769"
     cy="323.64505"
     r="9.8430204"
     fill="#e6e6e6"
     id="circle84" />
  <circle
     cx="371.43512"
     cy="354.81464"
     r="9.8430204"
     fill="#e6e6e6"
     id="circle86" />
  <circle
     cx="412.44769"
     cy="354.81464"
     r="9.8430204"
     fill="#e6e6e6"
     id="circle88" />
  <circle
     cx="453.4603"
     cy="354.81464"
     r="9.8430204"
     fill="#e6e6e6"
     id="circle90" />
  <circle
     cx="453.4603"
     cy="323.64505"
     r="9.8430204"
     fill="#e6e6e6"
     id="circle92" />
  <circle
     cx="494.47287"
     cy="323.64505"
     r="9.8430204"
     fill="#31ade0"
     id="circle94" />
  <circle
     cx="535.48547"
     cy="323.64505"
     r="9.8430204"
     fill="#31ade0"
     id="circle96" />
  <circle
     cx="576.49805"
     cy="323.64505"
     r="9.8430204"
     fill="#31ade0"
     id="circle98" />
  <circle
     cx="617.51062"
     cy="323.64505"
     r="9.8430204"
     fill="#e6e6e6"
     id="circle100" />
  <path
     id="a332a05d-d774-4fd2-8531-ab97682a63e9"
     data-name="Path 40"
     d="m 419.96154,143.13178 a 5.94683,5.94683 0 0 0 0,11.89205 h 149.08572 a 5.94683,5.94683 0 1 0 0.19525,-11.89205 q -0.0976,-0.002 -0.19525,0 z"
     fill="#3f3d56" />
  <path
     d="m 602.85625,141.47613 a 1.17,1.17 0 0 0 0,1.65472 l 5.02282,5.02287 h -12.38581 a 1.17006,1.17006 0 0 0 0,2.34012 h 12.38581 l -5.02282,5.02287 a 1.1700461,1.1700461 0 1 0 1.65467,1.65472 l 7.0203,-7.02029 a 1.1701,1.1701 0 0 0 0,-1.65472 l -7.0203,-7.02029 a 1.17,1.17 0 0 0 -1.65467,0 z"
     fill="#e6e6e6"
     id="path103"
     style="fill:#1a1a1a" />
  <path
     d="m 386.0895,141.47613 a 1.17,1.17 0 0 1 0,1.65472 l -5.02282,5.02287 h 12.38581 a 1.17006,1.17006 0 1 1 0,2.34012 h -12.38581 l 5.02282,5.02287 a 1.1700496,1.1700496 0 0 1 -1.65468,1.65472 l -7.02029,-7.02029 a 1.1701,1.1701 0 0 1 0,-1.65472 l 7.02029,-7.02029 a 1.17,1.17 0 0 1 1.65468,0 z"
     fill="#e6e6e6"
     id="path105"
     style="fill:#1a1a1a" />
  <path
     d="m 411.62744,427.48034 a 21.32655,21.32655 0 1 0 0,42.65309 h 165.69087 a 21.32655,21.32655 0 1 0 0,-42.65309 z"
     fill="#e6e6e6"
     id="path107" />
  <path
     d="M 284.3196,110.39804 A 34.27248,34.27248 0 1 1 318.59208,76.125555 34.31124,34.31124 0 0 1 284.3196,110.39804 Z"
     fill="#31ade0"
     id="path109" />
  <path
     d="m 297.8426,72.744845 h -10.14219 v -10.14233 a 3.38081,3.38081 0 1 0 -6.76162,0 v 10.14233 h -10.14233 a 3.38076,3.38076 0 0 0 0,6.76152 h 10.14233 v 10.14232 a 3.38081,3.38081 0 0 0 6.76162,0 v -10.14232 h 10.14219 a 3.38076,3.38076 0 1 0 0,-6.76152 z"
     fill="#ffffff"
     id="path111" />
  <use
     x="0"
     y="0"
     xlink:href="#path887"
     id="use1092" />
  <use
     x="0"
     y="0"
     xlink:href="#path891"
     id="use1094" />
</svg>
