<?xml version="1.0" encoding="UTF-8" standalone="no"?>
<svg
   xmlns:dc="http://purl.org/dc/elements/1.1/"
   xmlns:cc="http://creativecommons.org/ns#"
   xmlns:rdf="http://www.w3.org/1999/02/22-rdf-syntax-ns#"
   xmlns:svg="http://www.w3.org/2000/svg"
   xmlns="http://www.w3.org/2000/svg"
   xmlns:xlink="http://www.w3.org/1999/xlink"
   xmlns:sodipodi="http://sodipodi.sourceforge.net/DTD/sodipodi-0.dtd"
   xmlns:inkscape="http://www.inkscape.org/namespaces/inkscape"
   id="a4bcfc6d-da0f-4ee2-80ea-b3481570728c"
   data-name="Layer 1"
   width="770.48566"
   height="539.09729"
   viewBox="0 0 770.48568 539.0973"
   version="1.1"
   sodipodi:docname="draw_office.svg"
   inkscape:version="1.0.2 (e86c8708, 2021-01-15)">
  <metadata
     id="metadata2383">
    <rdf:RDF>
      <cc:Work
         rdf:about="">
        <dc:format>image/svg+xml</dc:format>
        <dc:type
           rdf:resource="http://purl.org/dc/dcmitype/StillImage" />
        <dc:title>in_the_office</dc:title>
      </cc:Work>
    </rdf:RDF>
  </metadata>
  <sodipodi:namedview
     pagecolor="#ffffff"
     bordercolor="#666666"
     borderopacity="1"
     objecttolerance="10"
     gridtolerance="10"
     guidetolerance="10"
     inkscape:pageopacity="0"
     inkscape:pageshadow="2"
     inkscape:window-width="1680"
     inkscape:window-height="997"
     id="namedview2381"
     showgrid="false"
     inkscape:zoom="0.96089048"
     inkscape:cx="183.33971"
     inkscape:cy="289.261"
     inkscape:window-x="0"
     inkscape:window-y="25"
     inkscape:window-maximized="1"
     inkscape:current-layer="a4bcfc6d-da0f-4ee2-80ea-b3481570728c"
     inkscape:document-rotation="0" />
  <defs
     id="defs2200">
    <linearGradient
       id="a43ae663-b469-4e5a-8886-296432196b31"
       x1="362.92001"
       y1="175.84"
       x2="362.92001"
       gradientUnits="userSpaceOnUse">
      <stop
         offset="0"
         stop-color="gray"
         stop-opacity="0.25"
         id="stop2190" />
      <stop
         offset="0.54"
         stop-color="gray"
         stop-opacity="0.12"
         id="stop2192" />
      <stop
         offset="1"
         stop-color="gray"
         stop-opacity="0.1"
         id="stop2194" />
    </linearGradient>
    <linearGradient
       id="c04665b3-8429-49d7-b7f7-d55cb9164332"
       x1="679.81"
       y1="433"
       x2="679.81"
       y2="229.03"
       xlink:href="#a43ae663-b469-4e5a-8886-296432196b31"
       gradientTransform="translate(-292.19563,-221.94276)" />
    <linearGradient
       id="8497327b-2adb-4787-b13a-16d8e52b02c9"
       x1="271.26001"
       y1="701.41998"
       x2="271.26001"
       y2="181"
       xlink:href="#a43ae663-b469-4e5a-8886-296432196b31" />
    <linearGradient
       id="3db0f1d5-214e-432c-a06d-0b506d0d68e9"
       x1="377.67001"
       y1="381.60001"
       x2="377.67001"
       y2="247.22"
       gradientTransform="matrix(-1,0,0,1,652,0)"
       xlink:href="#a43ae663-b469-4e5a-8886-296432196b31" />
  </defs>
  <title
     id="title2202">in_the_office</title>
  <ellipse
     cx="385.24283"
     cy="410.45731"
     rx="385.24283"
     ry="128.64"
     fill="#f5f5f5"
     id="ellipse2242"
     style="stroke-width:0.924987" />
  <path
     d="m 401.70437,194.15724 c 0,0 12.44,-61.09 60,-55.43 0,0 32.81,2.26 39.6,23.76 v 47.51 z"
     fill="#535461"
     id="path2244" />
  <path
     d="m 513.06437,93.537237 c -5.58,-0.63 -10.87,-3 -16.07,-5.32 -8.74,-3.95 -17.69,-8.12 -24.45,-15.45 -10.16,-11 -13.85,-27.24 -21,-40.87 a 52.19,52.19 0 0 0 -10.47,-14.33 39.13,39.13 0 0 0 -12.11,-7.51 41,41 0 0 0 -27.47,-1.0000005 l 5,-0.83 -21.39,6.8300005 c -2.66,0.86 -5.58,1.95 -6.93,4.64 -1.35,2.69 -0.49,6.54 1.43,9 1.92,2.46 4.62,3.89 7.24,5.27 l 2.25,1.18 a 27.18,27.18 0 0 0 2.85,26.42 v 21.93 a 38.2,38.2 0 0 1 -16.52,2.1 11.79,11.79 0 0 0 -4.16,2.42 c -2.61,2 -5.92,6 -7.27,13.390003 -2.27,12.46 -28,54.9 -30.68,59.26 l -42,11 0.25,0.24 -0.81,0.21 c 0,0 0.33,0.31 0.85,0.86 -4.74,0.32 -13.08,0.3 -19.71,-2.82 -6.8,-3.2 -17.72,0.08 -23.8,2.4 a 2.59,2.59 0 0 0 -0.37,4.66 58.9,58.9 0 0 0 26.77,7.63 c 10.26,0.54 18.66,0.61 24.41,0.55 a 6.41,6.41 0 0 1 -1.29,4.94 l 50.19,-7.18 a 27.48,27.48 0 0 0 4.15,-2.91 35.67,35.67 0 0 0 7.87,-8.72 l 10.81,-14.13 c 0.68,2.44 7.73,28.34 5.36,36.93 l -2.53,9.52 14.78,1.53 v -0.32 l 44.73,6 v -1 h 0.08 l 0.19,-8.39 51.85,-1.67 c 0,0 9,-7.31 5.07,-19 -3.93,-11.69 -2.48,-45.58 -2.48,-45.58 a 190.25,190.25 0 0 0 -6.15,-27.77 130.39,130.39 0 0 0 33.27,-9.380003 c 5.16,-2.22 10.37,-4.91 14,-9.6 -4.16,4.2 -10.16,5.5 -15.74,4.87 z"
     fill="url(#c04665b3-8429-49d7-b7f7-d55cb9164332)"
     id="path2246"
     style="fill:url(#c04665b3-8429-49d7-b7f7-d55cb9164332)" />
  <rect
     x="391.80438"
     y="36.057236"
     width="42"
     height="65"
     fill="#fe5858"
     id="rect2248"
     style="fill:#bd5826;fill-opacity:1" />
  <rect
     x="391.80438"
     y="36.057236"
     width="42"
     height="65"
     opacity="0.1"
     id="rect2250"
     style="fill:none;fill-opacity:1;fill-rule:evenodd" />
  <path
     d="m 400.49437,59.947237 a 23.2,23.2 0 0 1 2.48,24.21 c -6.42,13.8 -2.49,33.670003 2.68,36.700003 5.17,3.03 25.7,7.16 32.11,-1.66 6.41,-8.82 6.05,-34.300003 3.94,-38.000003 -2.11,-3.7 -17.75,-6.83 -17.08,-27.72 z"
     fill="#f2b08d"
     id="path2252" />
  <path
     d="m 397.80437,85.617237 c 0,0 8.24,55.240003 36.14,17.220003 l -2.31,104 -50.45,-6.73 z"
     opacity="0.1"
     id="path2254" />
  <path
     d="m 397.73437,86.607237 c 0,0 8.24,55.240003 36.14,17.220003 l -2.31,104 -50.45,-6.73 z"
     fill="#f1c413"
     id="path2256"
     style="fill:#bec4df;fill-opacity:1" />
  <path
     d="m 428.53437,184.05724 c 0,0 -15.17,1.92 -25.67,-2.66 0,0 -20,5.41 -18,10.11 2,4.7 47.89,5 47.89,5 z"
     fill="#f2b08d"
     id="path2258" />
  <path
     d="m 298.20437,170.58724 c 0,0 -13.19,2.12 -22.71,-2.36 -6.58,-3.1 -17.16,0.08 -23.06,2.33 a 2.51,2.51 0 0 0 -0.36,4.51 57.06,57.06 0 0 0 25.93,7.39 c 19.36,1 31.9,0.32 31.9,0.32 z"
     fill="#f2b08d"
     id="path2260" />
  <path
     d="m 425.09437,111.39724 -7.68,74 7.12,-1.26 c 0,0 11,9.13 1.48,14.62 l 55.07,-1.7 c 0,0 8.72,-7.08 4.91,-18.45 -3.81,-11.37 -2.4,-44.16 -2.4,-44.16 0,0 -5.67,-41.500003 -16.93,-43.670003 0,0 -22.77,-4.46 -36.07,-19.26 z"
     opacity="0.1"
     id="path2262" />
  <path
     d="m 426.08437,111.49724 -7.68,74 7.12,-1.26 c 0,0 11,9.13 1.48,14.62 l 55.07,-1.77 c 0,0 8.72,-7.08 4.91,-18.45 -3.81,-11.37 -2.4,-44.16 -2.4,-44.16 0,0 -5.67,-41.500003 -16.93,-43.670003 0,0 -22.77,-4.46 -36.07,-19.26 z"
     fill="#39447a"
     id="path2264"
     style="fill:#39443c;fill-opacity:1" />
  <path
     d="m 404.40437,77.567237 c 0,0 -12.86,10.89 -29.15,9.2 0,0 -8.21,2.14 -10.52,14.880003 -2.31,12.74 -29.93,57.76 -29.93,57.76 l -41,10.71 c 0,0 11.81,11.2 6.65,17.66 l 48.62,-6.93 a 33.06,33.06 0 0 0 11.06,-10.79 l 11,-14.33 c 0,0 7.65,27.24 5.25,36 l -2.45,9.23 14.32,1.49 c 0,0 0.7,-36.22 4.07,-50.29 1.46,-6.09 2.72,-12.21 3.64,-18.4 2.34,-15.8 6,-39.830003 7.37,-43.000003 z"
     opacity="0.1"
     id="path2266" />
  <path
     d="m 404.95437,77.127237 c 0,0 -12.86,10.93 -29.15,9.2 0,0 -8.21,2.14 -10.52,14.880003 -2.31,12.74 -29.94,57.77 -29.94,57.77 l -41,10.71 c 0,0 11.81,11.2 6.65,17.66 l 48.62,-6.93 a 33.06,33.06 0 0 0 11.1,-10.82 l 11,-14.33 c 0,0 7.65,27.24 5.25,36 l -2.45,9.23 14.29,1.44 c 0,0 0.7,-36.22 4.07,-50.29 1.46,-6.09 2.72,-12.21 3.64,-18.4 2.34,-15.8 6,-39.830003 7.37,-43.000003 z"
     fill="#39447a"
     id="path2268"
     style="fill:#39444e;fill-opacity:1" />
  <path
     d="m 428.59437,67.307237 c -2.35,-3.71 -4.36,-5.29 -4.13,-12.36 l -24.12,6.48 a 23.32,23.32 0 0 1 4.77,12.92 26.42,26.42 0 0 0 5.25,1.09 c 6.59,0.69 13.22,-4.59 18.23,-8.13 z"
     opacity="0.1"
     id="path2270" />
  <circle
     cx="-4.9077535"
     cy="415.92804"
     r="26.299999"
     transform="rotate(-84.08)"
     fill="#f2b08d"
     id="circle2272" />
  <path
     d="m 375.69437,123.48724 c 0,0 4.76,7 1.84,11.17 -2.92,4.17 -3.59,10.6 -2.52,14.71"
     opacity="0.1"
     id="path2274" />
  <path
     d="m 452.63437,122.48724 c 0,0 8.79,40.33 6.41,44.08"
     opacity="0.1"
     id="path2276" />
  <path
     d="m 432.74437,177.96724 c 0,0 24.92,1.92 23.5,-3.72"
     opacity="0.1"
     id="path2278" />
  <path
     d="m 401.05437,12.057237 a 39.75,39.75 0 0 1 26.61,1 37.91,37.91 0 0 1 11.76,7.31 50.56,50.56 0 0 1 10.14,13.88 c 6.9,13.21 10.48,28.95 20.32,39.6 6.55,7.09 15.22,11.14 23.69,15 5,2.27 10.16,4.55 15.57,5.16 5.41,0.61 11.22,-0.65 15.25,-4.71 -3.48,4.54 -8.53,7.15 -13.53,9.3 a 125.13,125.13 0 0 1 -62.54,9.570003 c -6,-0.64 -12,-1.74 -17.56,-4.4 -4,-1.92 -7.88,-4.930003 -9.46,-9.440003 -3.64,-10.4 6.58,-21.44 4.66,-32.41 -1,-5.63 -5.09,-10 -9.65,-12.7 -4.56,-2.7 -9.65,-4 -14.52,-5.8 a 136,136 0 0 1 -14.93,-7.13 c -2.54,-1.34 -5.16,-2.75 -7,-5.11 -1.84,-2.36 -2.75,-6 -1.38,-8.69 1.37,-2.69 4.14,-3.66 6.71,-4.5 l 20.73,-6.71"
     fill="#fe5858"
     id="path2280"
     style="fill:#bd5826;fill-opacity:1" />
  <polygon
     points="806.61,331.23 383.51,296.16 329.21,307.47 332.6,383.27 336.31,383.72 340.52,497.53 755.71,572.19 799.83,534.86 799.83,411.47 805.48,408.16 "
     fill="#ededf4"
     id="polygon2282"
     transform="translate(-145.28563,-114.44276)" />
  <polygon
     points="807.18,331.23 806.05,408.16 760.23,429.65 759.66,349.33 "
     opacity="0.05"
     id="polygon2284"
     transform="translate(-144.71563,-114.44276)" />
  <polygon
     points="799.83,411.55 800.39,532.6 756.27,569.93 759.1,429.65 "
     opacity="0.05"
     id="polygon2286"
     transform="translate(-144.71563,-114.44276)" />
  <polygon
     points="759.44,439.81 759.66,430.03 336.56,384.4 336.87,388.24 "
     opacity="0.05"
     id="polygon2288"
     transform="rotate(1.6375012,4479.8046,-4708.3373)" />
  <polygon
     points="799.83,411.55 757.97,430.03 757.97,439.83 799.83,415.99 "
     opacity="0.05"
     id="polygon2290"
     transform="translate(-143.62424,-108.40485)" />
  <polygon
     points="328.64,307.47 382.94,296.16 806.05,331.23 758.53,349.33 "
     fill="#f4f4f8"
     id="polygon2292"
     transform="translate(-144.71563,-114.44276)" />
  <ellipse
     cx="705.0144"
     cy="361.09723"
     rx="32.57"
     ry="11.96"
     fill="#cd9494"
     id="ellipse2294" />
  <ellipse
     cx="705.0144"
     cy="359.76721"
     rx="16.620001"
     ry="6.0999999"
     opacity="0.05"
     id="ellipse2296" />
  <path
     d="m 672.45437,358.43724 c 0,0 35.89,19.94 65.14,2.66 0,0 -4,69.12 -23.93,75.77 h -26.59 c 0,0 -22.6,-46.53 -14.62,-78.43 z"
     fill="#ff7361"
     id="path2298"
     style="fill:#ffc261;fill-opacity:1" />
  <path
     d="m 733.14437,231.77724 c 9.13,33.39 -29.82,128.51 -29.82,128.51 0,0 -82,-62 -91.09,-95.43 a 62.68,62.68 0 0 1 120.91,-33.08 z"
     fill="#99c33d"
     id="path2300" />
  <path
     d="m 733.14437,231.77724 c 9.13,33.39 -29.82,128.51 -29.82,128.51 0,0 -82,-62 -91.09,-95.43 a 62.68,62.68 0 0 1 120.91,-33.08 z"
     opacity="0.1"
     id="path2302"
     style="opacity:1;fill:#ac3549;fill-opacity:1" />
  <path
     d="m 656.48437,188.05724 c 0,0 51,77 47.17,172.42"
     fill="none"
     stroke="#535461"
     stroke-miterlimit="10"
     id="path2304" />
  <path
     d="m 746.16437,292.80724 c 0,0 -46.26,-25.16 -40.36,67.73 0,0 38.59,-1.38 52.28,-32.86 a 27.3,27.3 0 0 0 -11.2,-34.48 z"
     fill="#99c33d"
     id="path2306"
     style="opacity:1;fill:#c34849;fill-opacity:1" />
  <path
     d="m 746.92437,292.96724 c 0,0 -6,48.22 -41.16,67.57"
     fill="none"
     stroke="#535461"
     stroke-miterlimit="10"
     id="path2308"
     style="opacity:0.418733" />
  <path
     d="m 733.23437,363.35724 c -1.35,15.9 -6.86,65.29 -23.56,70.85 h -23.87 c 0.76,1.7 1.22,2.66 1.22,2.66 h 26.59 c 19.94,-6.65 23.93,-75.77 23.93,-75.77 a 48.4,48.4 0 0 1 -4.31,2.26 z"
     opacity="0.05"
     id="path2310" />
  <circle
     cx="585.04364"
     cy="49.293716"
     r="37.330002"
     fill="#535461"
     id="circle2312"
     style="opacity:0.650138" />
  <circle
     cx="585.04364"
     cy="49.293716"
     fill="#ededf4"
     id="circle2314"
     r="31.68"
     style="opacity:0.650138" />
  <circle
     cx="585.04364"
     cy="49.293716"
     fill="#535461"
     id="circle2316"
     r="2.26"
     style="opacity:0.650138" />
  <line
     x1="598.62366"
     y1="25.533707"
     x2="585.04364"
     y2="49.293716"
     fill="none"
     stroke="#535461"
     stroke-linecap="round"
     stroke-miterlimit="10"
     id="line2318"
     style="opacity:0.650138" />
  <line
     x1="585.69366"
     y1="49.543716"
     x2="599.18365"
     y2="56.643707"
     fill="none"
     stroke="#535461"
     stroke-linecap="round"
     stroke-miterlimit="10"
     stroke-width="2"
     id="line2320"
     style="opacity:0.650138" />
  <path
     d="m 233.78635,200.6868 a 10.05577,10.05577 0 0 1 -14.16116,-6.10061 l -35.70082,-1.55895 10.8896,-15.04162 32.23261,3.78644 a 10.11028,10.11028 0 0 1 6.73977,18.91474 z"
     fill="#ffb8b8"
     id="path1588" />
  <path
     d="m 134.66786,186.43364 -19.63257,-37.811 a 31.3182,31.3182 0 0 1 2.564,-33.03857 c 0.69946,-0.9336 1.44165,-1.8418 2.20605,-2.69874 a 30.39792,30.39792 0 0 1 25.07736,-10.09085 31.40231,31.40231 0 0 1 24.11206,14.08106 l 9.42823,14.252 c 0.96508,0.86182 13.94287,12.8374 9.11523,28.42041 l -0.83008,14.94287 a 4.52344,4.52344 0 0 1 -3.4751,4.1333 l -43.553,10.11866 a 4.49435,4.49435 0 0 1 -5.01221,-2.30909 z"
     fill="#99c33d"
     id="path1590"
     style="fill:#558ee5;fill-opacity:1" />
  <path
     d="m 120.89854,258.19012 a 10.05577,10.05577 0 0 1 1.56841,-15.33935 l -9.22949,-34.52239 17.61677,5.87226 6.06366,31.88276 a 10.11027,10.11027 0 0 1 -16.01932,12.10672 z"
     fill="#ffb8b8"
     id="path1592" />
  <path
     d="m 116.57146,241.85601 a 4.4626,4.4626 0 0 1 -2.46118,-3.31592 l -6.07739,-58.96 A 50.33629,50.33629 0 0 1 107.674,165.09034 l 7.28516,-44.11865 a 10.06808,10.06808 0 0 1 10.7334,-8.86182 v 0 a 10.08789,10.08789 0 0 1 9.301,11.23975 l -5.94777,50.60986 6.81128,59.69141 a 4.47622,4.47622 0 0 1 -2.34937,4.47852 l -12.88452,3.67968 a 4.44955,4.44955 0 0 1 -4.05176,0.0469 z"
     fill="#99c33d"
     id="path1594"
     style="fill:#5590e5;fill-opacity:1" />
  <polygon
     points="173.796,502.075 170.717,454.528 152.94,457.9 161.751,504.359 "
     fill="#ffb8b8"
     id="polygon1596"
     transform="translate(52.430843,-82.702783)" />
  <path
     d="m 210.3638,418.30648 23.721,-4.49868 0.001,-1.8e-4 a 15.386,15.386 0 0 1 17.98342,12.25056 l 0.0931,0.49125 -38.83826,7.36553 z"
     fill="#2f2e41"
     id="path1598" />
  <polygon
     points="67.422,504.733 73.254,457.445 55.16,457.446 55.162,504.734 "
     fill="#ffb8b8"
     id="polygon1600"
     transform="translate(52.430843,-82.702783)" />
  <path
     d="m 104.46572,418.02822 24.1438,-10e-4 h 0.001 a 15.38605,15.38605 0 0 1 15.38645,15.38626 v 0.5 l -39.53052,0.001 z"
     fill="#2f2e41"
     id="path1602" />
  <circle
     cx="143.46364"
     cy="67.627823"
     r="24.561029"
     fill="#ffb8b8"
     id="circle1604" />
  <path
     d="m 105.57435,403.02593 a 4.52272,4.52272 0 0 1 -1.19507,-3.4043 l 16.71753,-151.751 c -0.14379,-1.4209 -2.4143,-27.1875 16.009,-60.15625 l 0.1018,-0.18213 49.36792,-13.68994 5.45874,23.02636 36.58277,200.21094 a 4.486,4.486 0 0 1 -3.80542,4.94336 l -12.7334,1.91016 a 4.50191,4.50191 0 0 1 -4.98608,-3.18457 L 163.98036,265.71929 a 1.50036,1.50036 0 0 0 -2.87769,-0.0137 l -35.36816,135.50879 a 4.52284,4.52284 0 0 1 -4.32153,3.24414 h -12.54663 a 4.51522,4.51522 0 0 1 -3.292,-1.43262 z"
     fill="#2f2e41"
     id="path1606" />
  <path
     d="m 209.91224,197.95318 -53.19238,-9.12061 a 17.40944,17.40944 0 0 1 -14.16211,-13.62209 l -11.10693,-52.4585 a 14.30958,14.30958 0 0 1 13.41284,-17.26171 v 0 a 14.38357,14.38357 0 0 1 14.79614,12.604 l 5.574,46.7583 46.9248,12.19238 a 4.49882,4.49882 0 0 1 3.03418,4.26514 l -0.02,12.21924 a 4.49624,4.49624 0 0 1 -5.2605,4.42383 z"
     fill="#99c33d"
     id="path1608"
     style="fill:#5588e5;fill-opacity:1" />
  <path
     d="m 164.35657,61.926287 c 3.90962,-0.80832 7.711,-3.40948 8.7554,-7.26275 0.91236,-3.36611 -0.43741,-6.99535 -2.55031,-9.77 a 19.73745,19.73745 0 0 0 -23.64558,-5.57725 c 0.37737,-1.98479 -1.11552,-3.94291 -2.95263,-4.78364 a 13.75273,13.75273 0 0 0 -5.95486,-0.79972 c -6.38994,0.0893 -13.193,0.30274 -18.47651,3.89776 -4.21305,2.86667 -6.88794,7.58032 -8.27374,12.48409 -1.3858,4.90377 -1.61217,10.04939 -1.8301,15.14056 -0.38195,8.92283 3.11413,27.70321 3.11413,27.70321 0,0 12.36326,3.39891 17.7795,4.97366 5.82024,1.69221 15.64048,3.384433 21.46072,5.076643 1.48969,0.43312 3.4846,0.67631 4.23322,-0.68249 0.59765,-1.08479 -0.0935,-2.406103 -0.78855,-3.431243 -3.06038,-4.514 -6.56636,-8.77139 -8.92068,-13.69069 -2.35432,-4.9193 -3.456,-10.76465 -1.43463,-15.82988 2.02137,-5.06523 15.57501,-6.63995 19.48462,-7.44826 z"
     fill="#2f2e41"
     id="path1610" />
  <ellipse
     cx="340.49908"
     cy="347.19296"
     fill="#e6e6e6"
     id="circle3744"
     style="fill:#001900;fill-opacity:1;stroke-width:0.452564"
     rx="44.563213"
     ry="44.82233" />
  <ellipse
     cx="13.582528"
     cy="-485.37805"
     fill="#99c33d"
     id="circle3746"
     style="stroke-width:0.452595"
     rx="37.461349"
     ry="37.032528"
     transform="matrix(-0.68146894,0.73184703,-0.72058301,-0.69336868,0,0)" />
  <polygon
     points="67.146,101.741 81.088,90.896 92.44,105.492 130.789,65.011 143.612,77.16 91.121,132.566 "
     fill="#ffffff"
     id="polygon3756"
     transform="matrix(0.43968108,0.10496447,-0.10079809,0.44176453,305.54751,293.61258)" />
  <text
     xml:space="preserve"
     style="font-weight:bold;font-size:30.7157px;line-height:2.15;font-family:sans-serif;-inkscape-font-specification:'sans-serif Bold';stroke-width:0.767894"
     x="310.8194"
     y="212.61356"
     id="text908"
     transform="matrix(0.97593776,0.11171088,-0.10568811,1.0125579,0,0)"><tspan
       sodipodi:role="line"
       id="tspan906"
       x="310.8194"
       y="212.61356"
       style="stroke-width:0.767894">Check-in</tspan></text>
</svg>
