<?xml version="1.0" encoding="UTF-8" standalone="no"?>
<svg
   xmlns:dc="http://purl.org/dc/elements/1.1/"
   xmlns:cc="http://creativecommons.org/ns#"
   xmlns:rdf="http://www.w3.org/1999/02/22-rdf-syntax-ns#"
   xmlns:svg="http://www.w3.org/2000/svg"
   xmlns="http://www.w3.org/2000/svg"
   xmlns:sodipodi="http://sodipodi.sourceforge.net/DTD/sodipodi-0.dtd"
   xmlns:inkscape="http://www.inkscape.org/namespaces/inkscape"
   version="1.1"
   id="Layer_1"
   x="0px"
   y="0px"
   viewBox="0 0 33.000001 33.000001"
   xml:space="preserve"
   sodipodi:docname="draw_cal_checkmark.svg"
   inkscape:version="1.0.2 (e86c8708, 2021-01-15)"
   width="33"
   height="33"><metadata
     id="metadata857"><rdf:RDF><cc:Work
         rdf:about=""><dc:format>image/svg+xml</dc:format><dc:type
           rdf:resource="http://purl.org/dc/dcmitype/StillImage" /><dc:title /></cc:Work></rdf:RDF></metadata><defs
     id="defs855" /><sodipodi:namedview
     pagecolor="#ffffff"
     bordercolor="#666666"
     borderopacity="1"
     objecttolerance="10"
     gridtolerance="10"
     guidetolerance="10"
     inkscape:pageopacity="0"
     inkscape:pageshadow="2"
     inkscape:window-width="1440"
     inkscape:window-height="785"
     id="namedview853"
     showgrid="false"
     inkscape:zoom="8.7780523"
     inkscape:cx="16.56638"
     inkscape:cy="31.133516"
     inkscape:window-x="0"
     inkscape:window-y="25"
     inkscape:window-maximized="0"
     inkscape:current-layer="Layer_1"
     inkscape:document-rotation="0" /><style
     type="text/css"
     id="style846">.st0{fill:#050505;}</style><path
     style="color:#000000;font-style:normal;font-variant:normal;font-weight:normal;font-stretch:normal;font-size:medium;line-height:normal;font-family:sans-serif;font-variant-ligatures:normal;font-variant-position:normal;font-variant-caps:normal;font-variant-numeric:normal;font-variant-alternates:normal;font-variant-east-asian:normal;font-feature-settings:normal;font-variation-settings:normal;text-indent:0;text-align:start;text-decoration:none;text-decoration-line:none;text-decoration-style:solid;text-decoration-color:#000000;letter-spacing:normal;word-spacing:normal;text-transform:none;writing-mode:lr-tb;direction:ltr;text-orientation:mixed;dominant-baseline:auto;baseline-shift:baseline;text-anchor:start;white-space:normal;shape-padding:0;shape-margin:0;inline-size:0;clip-rule:nonzero;display:inline;overflow:visible;visibility:visible;isolation:auto;mix-blend-mode:normal;color-interpolation:sRGB;color-interpolation-filters:linearRGB;solid-color:#000000;solid-opacity:1;vector-effect:none;fill:#808080;fill-opacity:1;fill-rule:nonzero;stroke-width:0.255397;stroke-linecap:butt;stroke-linejoin:miter;stroke-miterlimit:4;stroke-dasharray:none;stroke-dashoffset:0;stroke-opacity:1;color-rendering:auto;image-rendering:auto;shape-rendering:auto;text-rendering:auto;enable-background:accumulate;stop-color:#000000;stop-opacity:1;stroke:none;opacity:1"
     d="m 21.524826,1.379547 c 0,-0.69705395 0.630125,-1.26324335 1.409232,-1.26324335 0.779108,0 1.409232,0.5661894 1.409232,1.26324335 v 5.5337003 c 0,0.6970539 -0.630124,1.2632434 -1.409232,1.2632434 -0.779107,0 -1.409232,-0.5661895 -1.409232,-1.2632434 z m -12.7001855,0 c 0,-0.69705395 0.6301246,-1.26324335 1.4092325,-1.26324335 0.779107,0 1.409232,0.5661894 1.409232,1.26324335 v 5.5337003 c 0,0.6970539 -0.630125,1.2632434 -1.409232,1.2632434 -0.7791079,0 -1.4092325,-0.5661895 -1.4092325,-1.2632434 z m 2.7793865,21.320236 c -0.310177,-0.325826 -0.319946,-0.865309 -0.02198,-1.204488 0.297966,-0.33918 0.791319,-0.349862 1.101497,-0.02404 l 2.41792,2.555865 5.37804,-6.297522 c 0.293081,-0.344521 0.786435,-0.363216 1.101497,-0.04273 0.315062,0.320484 0.332159,0.859967 0.03908,1.204488 l -5.917798,6.933149 v 0 l -0.0098,0.01068 c -0.297966,0.33918 -0.791319,0.349862 -1.101497,0.02404 z M 3.1559616,12.219937 H 30.041277 V 5.8503068 c 0,-0.2136564 -0.0806,-0.4086179 -0.210041,-0.5528359 C 29.701791,5.1559235 29.5235,5.0677903 29.325671,5.0677903 h -2.576673 c -0.432294,0 -0.78155,-0.3819108 -0.78155,-0.8546256 0,-0.4727147 0.349256,-0.8546255 0.78155,-0.8546255 h 2.576673 c 0.627682,0 1.196748,0.280424 1.609504,0.7317731 0.412756,0.4513491 0.669202,1.0736233 0.669202,1.7599945 v 7.2269262 17.367594 c 0,0.686371 -0.256446,1.308645 -0.669202,1.759994 -0.412756,0.451349 -0.981822,0.731773 -1.609504,0.731773 H 3.8715682 C 3.243886,32.936594 2.67482,32.65617 2.262064,32.204821 1.8493079,31.750801 1.5928619,31.128527 1.5928619,30.442156 V 13.077233 5.8503068 c 0,-0.6863712 0.256446,-1.3086454 0.6692021,-1.7599945 C 2.67482,3.6389632 3.243886,3.3585392 3.8715682,3.3585392 h 2.752521 c 0.4322947,0 0.7815498,0.3819108 0.7815498,0.8546255 0,0.4727148 -0.3492551,0.8546256 -0.7815498,0.8546256 h -2.752521 c -0.1953874,0 -0.3736785,0.088133 -0.505565,0.2296806 C 3.236559,5.4390182 3.1559616,5.6339797 3.1559616,5.8503068 Z M 30.041277,13.931859 H 3.1559616 v 16.510297 c 0,0.213656 0.080597,0.408618 0.2100416,0.552836 0.1294442,0.141547 0.3077352,0.22968 0.505565,0.22968 H 29.325671 c 0.195387,0 0.373678,-0.08813 0.505565,-0.22968 0.129444,-0.141548 0.210041,-0.336509 0.210041,-0.552836 z M 13.909599,5.0677903 c -0.432294,0 -0.781549,-0.3819108 -0.781549,-0.8546256 0,-0.4727147 0.349255,-0.8546255 0.781549,-0.8546255 h 5.248596 c 0.432295,0 0.78155,0.3819108 0.78155,0.8546255 0,0.4727148 -0.349255,0.8546256 -0.78155,0.8546256 z"
     id="path848" /><path
     d="m 11.604027,22.699783 c -0.310177,-0.325826 -0.319946,-0.865309 -0.02198,-1.204488 0.297966,-0.33918 0.791319,-0.349862 1.101497,-0.02404 l 2.41792,2.555865 5.37804,-6.297522 c 0.293081,-0.344521 0.786435,-0.363216 1.101497,-0.04273 0.315062,0.320484 0.332159,0.859967 0.03908,1.204488 l -5.917798,6.933151 v 0 l -0.0098,0.01068 c -0.297966,0.33918 -0.791319,0.349863 -1.101497,0.02404 z"
     id="path864"
     style="fill:#98c33e;fill-opacity:1;stroke-width:0.255397" /></svg>
