<?xml version="1.0" encoding="UTF-8" standalone="no"?>
<svg
   xmlns:dc="http://purl.org/dc/elements/1.1/"
   xmlns:cc="http://creativecommons.org/ns#"
   xmlns:rdf="http://www.w3.org/1999/02/22-rdf-syntax-ns#"
   xmlns:svg="http://www.w3.org/2000/svg"
   xmlns="http://www.w3.org/2000/svg"
   xmlns:sodipodi="http://sodipodi.sourceforge.net/DTD/sodipodi-0.dtd"
   xmlns:inkscape="http://www.inkscape.org/namespaces/inkscape"
   version="1.1"
   id="Layer_1"
   x="0px"
   y="0px"
   viewBox="0 0 122.88 122.88"
   style="enable-background:new 0 0 122.88 122.88"
   xml:space="preserve"
   sodipodi:docname="calendar-checkmark-line.svg"
   inkscape:version="1.0.2-2 (e86c870879, 2021-01-15)"><metadata
     id="metadata857"><rdf:RDF><cc:Work
         rdf:about=""><dc:format>image/svg+xml</dc:format><dc:type
           rdf:resource="http://purl.org/dc/dcmitype/StillImage" /></cc:Work></rdf:RDF></metadata><defs
     id="defs855" /><sodipodi:namedview
     pagecolor="#ffffff"
     bordercolor="#666666"
     borderopacity="1"
     objecttolerance="10"
     gridtolerance="10"
     guidetolerance="10"
     inkscape:pageopacity="0"
     inkscape:pageshadow="2"
     inkscape:window-width="1920"
     inkscape:window-height="1017"
     id="namedview853"
     showgrid="false"
     inkscape:zoom="0.98257229"
     inkscape:cx="20.705399"
     inkscape:cy="-26.634967"
     inkscape:window-x="-8"
     inkscape:window-y="-8"
     inkscape:window-maximized="1"
     inkscape:current-layer="Layer_1" /><style
     type="text/css"
     id="style846">.st0{fill:#050505;}</style><path
     class="st0"
     d="M 81.61,4.73 C 81.61,2.12 84.19,0 87.38,0 c 3.19,0 5.77,2.12 5.77,4.73 v 20.72 c 0,2.61 -2.58,4.73 -5.77,4.73 -3.19,0 -5.77,-2.12 -5.77,-4.73 z m -52,0 C 29.61,2.12 32.19,0 35.38,0 c 3.19,0 5.77,2.12 5.77,4.73 v 20.72 c 0,2.61 -2.58,4.73 -5.77,4.73 -3.19,0 -5.77,-2.12 -5.77,-4.73 z m 11.38,79.83 c -1.27,-1.22 -1.31,-3.24 -0.09,-4.51 1.22,-1.27 3.24,-1.31 4.51,-0.09 l 9.9,9.57 22.02,-23.58 c 1.2,-1.29 3.22,-1.36 4.51,-0.16 1.29,1.2 1.36,3.22 0.16,4.51 L 57.77,96.26 v 0 l -0.04,0.04 c -1.22,1.27 -3.24,1.31 -4.51,0.09 z M 6.4,45.32 H 116.48 V 21.47 c 0,-0.8 -0.33,-1.53 -0.86,-2.07 -0.53,-0.53 -1.26,-0.86 -2.07,-0.86 H 103 c -1.77,0 -3.2,-1.43 -3.2,-3.2 0,-1.77 1.43,-3.2 3.2,-3.2 h 10.55 c 2.57,0 4.9,1.05 6.59,2.74 1.69,1.69 2.74,4.02 2.74,6.59 v 27.06 65.03 c 0,2.57 -1.05,4.9 -2.74,6.59 -1.69,1.69 -4.02,2.74 -6.59,2.74 H 9.33 c -2.57,0 -4.9,-1.05 -6.59,-2.74 C 1.05,118.45 0,116.12 0,113.55 V 48.53 21.47 C 0,18.9 1.05,16.57 2.74,14.88 4.43,13.19 6.76,12.14 9.33,12.14 H 20.6 c 1.77,0 3.2,1.43 3.2,3.2 0,1.77 -1.43,3.2 -3.2,3.2 H 9.33 c -0.8,0 -1.53,0.33 -2.07,0.86 -0.53,0.53 -0.86,1.26 -0.86,2.07 z m 110.08,6.41 H 6.4 v 61.82 c 0,0.8 0.33,1.53 0.86,2.07 0.53,0.53 1.26,0.86 2.07,0.86 h 104.22 c 0.8,0 1.53,-0.33 2.07,-0.86 0.53,-0.53 0.86,-1.26 0.86,-2.07 z M 50.43,18.54 c -1.77,0 -3.2,-1.43 -3.2,-3.2 0,-1.77 1.43,-3.2 3.2,-3.2 h 21.49 c 1.77,0 3.2,1.43 3.2,3.2 0,1.77 -1.43,3.2 -3.2,3.2 z"
     id="path848"
     style="fill:#676e74;fill-opacity:1" /><path
     d="m 40.99,84.56 c -1.27,-1.22 -1.31,-3.24 -0.09,-4.51 1.22,-1.27 3.24,-1.31 4.51,-0.09 l 9.9,9.57 22.02,-23.58 c 1.2,-1.29 3.22,-1.36 4.51,-0.16 1.29,1.2 1.36,3.22 0.16,4.51 L 57.77,96.260005 v 0 l -0.04,0.04 c -1.22,1.27 -3.24,1.31 -4.51,0.09 z"
     id="path864"
     style="fill:#98c33e;fill-opacity:1" /><circle
     id="path892"
     style="fill:#98c33e;stroke:#000000"
     cx="118.56634"
     cy="24.934551"
     r="0.12708989" /></svg>
