<?xml version="1.0" encoding="UTF-8" standalone="no"?>
<svg
   xmlns:dc="http://purl.org/dc/elements/1.1/"
   xmlns:cc="http://creativecommons.org/ns#"
   xmlns:rdf="http://www.w3.org/1999/02/22-rdf-syntax-ns#"
   xmlns:svg="http://www.w3.org/2000/svg"
   xmlns="http://www.w3.org/2000/svg"
   xmlns:xlink="http://www.w3.org/1999/xlink"
   xmlns:sodipodi="http://sodipodi.sourceforge.net/DTD/sodipodi-0.dtd"
   xmlns:inkscape="http://www.inkscape.org/namespaces/inkscape"
   id="b098510b-f452-4b85-993b-a1bbfe267c61"
   width="1105.04"
   height="782.74"
   viewBox="0 0 1105.04 782.74"
   version="1.1"
   sodipodi:docname="draw_patient_inicio.svg"
   inkscape:version="1.0.2 (e86c8708, 2021-01-15)">
  <metadata
     id="metadata6162">
    <rdf:RDF>
      <cc:Work
         rdf:about="">
        <dc:format>image/svg+xml</dc:format>
        <dc:type
           rdf:resource="http://purl.org/dc/dcmitype/StillImage" />
      </cc:Work>
    </rdf:RDF>
  </metadata>
  <sodipodi:namedview
     pagecolor="#ffffff"
     bordercolor="#666666"
     borderopacity="1"
     objecttolerance="10"
     gridtolerance="10"
     guidetolerance="10"
     inkscape:pageopacity="0"
     inkscape:pageshadow="2"
     inkscape:window-width="1650"
     inkscape:window-height="946"
     id="namedview6160"
     showgrid="false"
     inkscape:zoom="0.53903619"
     inkscape:cx="983.77275"
     inkscape:cy="167.57512"
     inkscape:window-x="0"
     inkscape:window-y="25"
     inkscape:window-maximized="0"
     inkscape:current-layer="b098510b-f452-4b85-993b-a1bbfe267c61"
     inkscape:document-rotation="0" />
  <defs
     id="defs5823">
    <linearGradient
       id="ac3cc305-f6db-42f4-bbbd-32121ee27a74"
       x1="403.57"
       y1="833.5"
       x2="403.57"
       y2="218.16"
       gradientUnits="userSpaceOnUse">
      <stop
         offset="0"
         stop-color="gray"
         stop-opacity="0.25"
         id="stop5815" />
      <stop
         offset="0.54"
         stop-color="gray"
         stop-opacity="0.12"
         id="stop5817" />
      <stop
         offset="1"
         stop-color="gray"
         stop-opacity="0.1"
         id="stop5819" />
    </linearGradient>
    <linearGradient
       id="ad14f186-b27f-416c-b629-0bafa2f1236e"
       x1="940.67"
       y1="825.72"
       x2="940.67"
       y2="263.72"
       xlink:href="#ac3cc305-f6db-42f4-bbbd-32121ee27a74" />
    <linearGradient
       id="ac3cc305-f6db-42f4-bbbd-32121ee27a74-1"
       x1="403.57001"
       y1="833.5"
       x2="403.57001"
       y2="218.16"
       gradientUnits="userSpaceOnUse"
       gradientTransform="translate(1081.0935,213.83316)">
      <stop
         offset="0"
         stop-color="gray"
         stop-opacity="0.25"
         id="stop2484" />
      <stop
         offset="0.54"
         stop-color="gray"
         stop-opacity="0.12"
         id="stop2486" />
      <stop
         offset="1"
         stop-color="gray"
         stop-opacity="0.1"
         id="stop2488" />
    </linearGradient>
  </defs>
  <title
     id="title5825">medicine</title>
  <ellipse
     cx="897.05"
     cy="767.09"
     rx="121.59"
     ry="15.65"
     fill="#31ade0"
     opacity="0.1"
     id="ellipse5829" />
  <path
     d="M61.08,396.83H162.57V535.16H68.51c-.25,1.42-.49,2.85-.75,4.28h94.81V651c-.17-.05-.32-.11-.48-.17-2.68-1.06-5.34-2.18-8-3.38l-1.7-.77q-4-1.89-8-4c-.93-.49-1.86-1-2.78-1.52A166.42,166.42,0,0,1,101.73,610c-.34-.33-.66-.68-1-1-1.62-1.76-3.21-3.54-4.75-5.36l-1.7-2c-1.82-2.23-3.58-4.52-5.29-6.84-.25-.34-.49-.68-.75-1a148.88,148.88,0,0,1-17.2-31.1c-.14-.33-.26-.69-.39-1Q68.59,556.4,67,551c-.46-1.51-.9-3-1.28-4.57-.14-.46-.26-.91-.37-1.36C59.67,522.9,59,499.87,59,477c0-2.67,0-5.35,0-8,0-9.25.11-18.56.27-27.86,0-2.41.1-4.81.15-7.23q.21-9.21.6-18.42c.06-1.71.14-3.41.23-5.11q0-1.47.15-2.94C60.64,403.88,60.84,400.35,61.08,396.83Z"
     transform="translate(-47.24 -58.63)"
     fill="#31ade0"
     opacity="0.1"
     id="path5831" />
  <path
     d="M162.57,242.81H106.9a422,422,0,0,1,29.61-40.76c8.27-10.16,17-20.06,26.06-29.6Z"
     transform="translate(-47.24 -58.63)"
     fill="#31ade0"
     opacity="0.1"
     id="path5833" />
  <path
     d="M162.57,247.09V392.55H61.4c0-.42.07-.85.1-1.27.09-1.15.18-2.3.28-3.44.11-1.34.23-2.69.36-4s.27-2.91.42-4.36.29-2.92.46-4.37.32-2.9.5-4.34.34-2.9.53-4.34c.15-1.2.31-2.39.47-3.59.23-1.69.47-3.39.73-5.07,0-.25.07-.51.11-.75a345.9,345.9,0,0,1,7.45-36.52,270.08,270.08,0,0,1,12.55-37,277.75,277.75,0,0,1,18.88-36.36Z"
     transform="translate(-47.24 -58.63)"
     fill="#31ade0"
     opacity="0.1"
     id="path5835" />
  <path
     d="M186.8,396.82V535.16H403.57V396.82Zm0,142.61v118.8c1.24.26,2.47.51,3.69.72,1.66.32,3.31.61,5,.86.32.05.65.1,1,.13.66.11,1.34.2,2,.29,1.67.23,3.33.42,5,.57.79.08,1.59.15,2.39.21l1.93.15h0c1.05.08,2.09.14,3.12.17.64,0,1.28.06,1.94.08.5,0,1,0,1.52,0s1.26,0,1.89,0c.86,0,1.72,0,2.57,0H220c.86,0,1.72,0,2.57-.08h.06c.59,0,1.19,0,1.79-.08a4.19,4.19,0,0,0,.5,0c.5,0,1,0,1.48-.07l.35,0,3.35-.26c1.1-.1,2.21-.23,3.33-.35l2.28-.27a199.45,199.45,0,0,0,27.45-5.84c20.22-5.64,40-13.53,60.21-19.31,26.13-7.45,55-11.11,80.25-2V539.43ZM403.57,242.81V58.64a278.67,278.67,0,0,0-70.43,8.26C278.25,80.69,229,110.6,186.8,148.8v94h10.88v4.27H186.8V392.55H403.57V247.08H242.35v-4.27ZM682,180.6c-13.58-.48-27.08-4.78-39.29-11.42-23.35-12.7-42-32.31-62.84-48.86-43.3-34.47-97-55.27-152.09-60.43V242.81H737.23L738,242Zm28.19-5,29.89,32.8V167C730.07,168.24,721.3,171.19,710.23,175.56Zm29.89,512.13V539.43H676.39c-.17-.63-.34-1.27-.54-1.91.19.64.35,1.28.53,1.91H427.82V646.68c2.36,1.75,4.69,3.59,7,5.46h0c2.49,2,4.95,4.11,7.42,6.18l2.49,2.06c1.19,1,2.39,2,3.6,2.94q3.6,2.92,7.27,5.76c1.21,1,2.45,1.9,3.68,2.84a501.22,501.22,0,0,0,61.63,40.31q7.23,4,14.59,7.81c3.27,1.67,6.56,3.33,9.86,4.94q7.44,3.63,15,7h0a550.84,550.84,0,0,0,146,42.53q16.79,2.48,33.71,3.9V687.72l1,0ZM427.82,247.08V392.55h312.3V247.08Zm0,149.74V535.16h312.3V396.82Zm336.54-230V213l38.15-41.86Q783.55,168.08,764.36,166.77Zm0,230.05V535.16h303.75V396.82ZM1067,698.71l1.07-159.28H764.36V780a544.73,544.73,0,0,0,58.7-.7h0l.34,0q14-.88,27.87-2.56l.21,0a513.24,513.24,0,0,0,143.2-38.21m132-318.93c-1.14-2.69-2.33-5.36-3.54-8-2.26-5-4.65-9.86-7.11-14.72h-23.7V535.16h59.92C1152.22,496,1142.31,456,1126.71,419.55Zm-34.35,119.88v137c16.88-16.18,31.14-34.69,41.41-55.85,12.35-25.48,18-53.07,18.46-81.17Zm0-182.92v36h21.48A390,390,0,0,0,1092.36,356.51Zm-206-162.6c-1.58-.6-3.16-1.21-4.75-1.8a433.62,433.62,0,0,0-51.31-15.42l-58.38,64.07h0L770.77,242l.75.82H979.3A444.41,444.41,0,0,0,886.36,193.91Zm99.06,53.17H768.62l-4.26,3.9V392.55H801.7l.06,0,0,0h266.39V324A432.8,432.8,0,0,0,985.42,247.08Z"
     fill="#31ade0"
     opacity="0.1"
     id="path5837"
     transform="translate(-47.24 -58.63)" />
  <path
     d="M162.57,320.46v72.09H61.4c0-.42.07-.85.1-1.27.09-1.15.18-2.3.28-3.44.11-1.34.23-2.69.36-4s.27-2.91.42-4.36.29-2.92.46-4.37.32-2.9.5-4.34.34-2.9.53-4.34c.15-1.2.31-2.39.47-3.59.23-1.69.47-3.39.73-5.07,0-.25.07-.51.11-.75a345.9,345.9,0,0,1,7.45-36.52Z"
     transform="translate(-47.24 -58.63)"
     fill="#31ade0"
     opacity="0.1"
     id="path5839" />
  <path
     d="M61.08,396.83H162.57V535.16H68.51c-.25,1.42-.49,2.85-.75,4.28h94.81V651c-.17-.05-.32-.11-.48-.17-2.68-1.06-5.34-2.18-8-3.38l-1.7-.77q-4-1.89-8-4c-.93-.49-1.86-1-2.78-1.52A166.42,166.42,0,0,1,101.73,610c-.34-.33-.66-.68-1-1-1.62-1.76-3.21-3.54-4.75-5.36l-1.7-2c-1.82-2.23-3.58-4.52-5.29-6.84-.25-.34-.49-.68-.75-1a148.88,148.88,0,0,1-17.2-31.1c-.14-.33-.26-.69-.39-1Q68.59,556.4,67,551c-.46-1.51-.9-3-1.28-4.57-.14-.46-.26-.91-.37-1.36C59.67,522.9,59,499.87,59,477c0-2.67,0-5.35,0-8,0-9.25.11-18.56.27-27.86,0-2.41.1-4.81.15-7.23q.21-9.21.6-18.42c.06-1.71.14-3.41.23-5.11q0-1.47.15-2.94C60.64,403.88,60.84,400.35,61.08,396.83Z"
     transform="translate(-47.24 -58.63)"
     fill="#31ade0"
     opacity="0.1"
     id="path5841" />
  <polygon
     points="215.87 209.28 215.87 333.92 139.56 333.92 139.56 209.28 150.44 209.28 150.44 167.08 195.1 167.08 195.1 209.28 215.87 209.28"
     fill="#31ade0"
     opacity="0.1"
     id="polygon5843" />
  <rect
     x="139.57"
     y="338.19"
     width="76.3"
     height="138.33"
     fill="#31ade0"
     opacity="0.1"
     id="rect5845" />
  <path
     d="M186.8,539.44h76.31v115a199.11,199.11,0,0,1-27.45,5.83l-2.28.28c-1.12.13-2.23.24-3.33.35s-2.24.19-3.35.26l-.35,0c-.48,0-1,.06-1.47.07l-.51,0c-.6,0-1.2.06-1.8.08h0c-.85.05-1.7.06-2.57.07-.37,0-.72,0-1.09,0-.86,0-1.71,0-2.57,0l-1.89,0c-.51,0-1,0-1.53,0l-1.93-.07c-1,0-2.08-.11-3.12-.18h0l-1.92-.14-2.39-.22c-1.68-.15-3.35-.34-5-.57l-2-.28-1-.14c-1.67-.26-3.32-.54-5-.86-1.23-.21-2.45-.47-3.69-.72Z"
     transform="translate(-47.24 -58.63)"
     fill="#31ade0"
     opacity="0.1"
     id="path5847" />
  <rect
     x="629.96"
     y="194.56"
     width="62.92"
     height="139.35"
     fill="#31ade0"
     opacity="0.1"
     id="rect5849" />
  <polygon
     points="692.89 338.19 692.89 476.53 380.58 476.53 380.58 416.86 546.93 416.86 546.93 452.06 629.96 452.06 629.96 338.19 692.89 338.19"
     fill="#31ade0"
     opacity="0.1"
     id="polygon5851" />
  <path
     d="M741.12,687.76l-1,0v90.75q-16.9-1.43-33.7-3.89A550.87,550.87,0,0,1,560.36,732q-20.13-9.06-39.44-19.78a503.26,503.26,0,0,1-61.64-40.31q-7.36-5.64-14.53-11.54c-3.31-2.73-6.6-5.53-9.93-8.25-2.31-1.87-4.64-3.71-7-5.47V539.44H676.37c-.17-.64-.34-1.28-.52-1.91.19.63.37,1.27.54,1.91h63.73V687.7C740.46,687.71,740.79,687.74,741.12,687.76Z"
     transform="translate(-47.24 -58.63)"
     fill="#31ade0"
     opacity="0.1"
     id="path5853" />
  <path
     d="M904.22,242.81h-41V230.07H881.6V192.12q2.39.87,4.76,1.79v36.16h17.86Z"
     transform="translate(-47.24 -58.63)"
     fill="#31ade0"
     opacity="0.1"
     id="path5855" />
  <path
     d="M1003,392.55H801.72s0,0,.07.05l-.09-.05H764.36V253.2h10.58v103h48.35v-61h39.94V247.09h41v48.15h39.94v61H1003Z"
     transform="translate(-47.24 -58.63)"
     fill="#31ade0"
     opacity="0.1"
     id="path5857" />
  <path
     d="M764.36,396.82V535.16H1003V396.82ZM1067.78,698l.33-109.5H1003v-49H764.36V780a544.73,544.73,0,0,0,58.7-.7h0l.34,0q14-.88,27.87-2.56l.21,0a513.24,513.24,0,0,0,143.2-38.21"
     transform="translate(-47.24 -58.63)"
     fill="#31ade0"
     opacity="0.1"
     id="path5859" />
  <path
     d="M1096.57,539.44h55.67c-.49,28.09-6.13,55.68-18.47,81.16-10.27,21.17-24.54,39.68-41.4,55.85v-88h4.2Z"
     transform="translate(-47.24 -58.63)"
     fill="#31ade0"
     opacity="0.1"
     id="path5861" />
  <path
     d="M1152.27,535.16h-55.7V419.55h30.14C1142.31,456,1152.22,496,1152.27,535.16Z"
     transform="translate(-47.24 -58.63)"
     fill="#31ade0"
     opacity="0.1"
     id="path5863" />
  <rect
     x="659.18"
     y="233.3"
     width="33.71"
     height="43.69"
     fill="#31ade0"
     opacity="0.1"
     id="rect5865" />
  <rect
     x="659.18"
     y="323.86"
     width="33.71"
     height="10.06"
     fill="#31ade0"
     opacity="0.1"
     id="rect5867" />
  <rect
     x="659.18"
     y="338.19"
     width="33.71"
     height="29.35"
     fill="#31ade0"
     opacity="0.1"
     id="rect5869" />
  <rect
     x="659.18"
     y="414.42"
     width="33.71"
     height="43.69"
     fill="#31ade0"
     opacity="0.1"
     id="rect5871" />
  <rect
     x="659.18"
     y="504.98"
     width="33.71"
     height="43.69"
     fill="#31ade0"
     opacity="0.1"
     id="rect5873" />
  <path
     d="M740.12,687.7c.34,0,.67,0,1,.06l-1,0v10.15h-33.7V654.17h33.7Z"
     transform="translate(-47.24 -58.63)"
     fill="#31ade0"
     opacity="0.1"
     id="path5875" />
  <path
     d="M740.12,744.71v33.75q-16.9-1.43-33.7-3.89V744.71Z"
     transform="translate(-47.24 -58.63)"
     fill="#31ade0"
     opacity="0.1"
     id="path5877" />
  <rect
     x="380.58"
     y="473.32"
     width="144.47"
     height="3.21"
     fill="#31ade0"
     opacity="0.1"
     id="rect5879" />
  <rect
     x="380.58"
     y="480.8"
     width="144.47"
     height="12.3"
     fill="#31ade0"
     opacity="0.1"
     id="rect5881" />
  <rect
     x="380.58"
     y="533.42"
     width="144.47"
     height="19.78"
     fill="#31ade0"
     opacity="0.1"
     id="rect5883" />
  <path
     d="M572.28,652.15v19.78h-113q-7.36-5.62-14.54-11.54c-3.31-2.73-6.59-5.53-9.93-8.24Z"
     transform="translate(-47.24 -58.63)"
     fill="#31ade0"
     opacity="0.1"
     id="path5885" />
  <path
     d="M572.28,712.24V732H560.35q-20.11-9.07-39.43-19.79Z"
     transform="translate(-47.24 -58.63)"
     fill="#31ade0"
     opacity="0.1"
     id="path5887" />
  <rect
     x="775.83"
     y="351.6"
     width="28.44"
     height="28.44"
     fill="#31ade0"
     opacity="0.1"
     id="rect5889" />
  <rect
     x="160.05"
     y="219.09"
     width="28.44"
     height="28.44"
     fill="#31ade0"
     opacity="0.1"
     id="rect5891" />
  <rect
     x="160.05"
     y="285.15"
     width="28.44"
     height="28.44"
     fill="#31ade0"
     opacity="0.1"
     id="rect5893" />
  <rect
     x="160.05"
     y="351.21"
     width="28.44"
     height="28.44"
     fill="#31ade0"
     opacity="0.1"
     id="rect5895" />
  <rect
     x="160.05"
     y="417.26"
     width="28.44"
     height="28.44"
     fill="#31ade0"
     opacity="0.1"
     id="rect5897" />
  <rect
     x="160.05"
     y="483.32"
     width="28.44"
     height="28.44"
     fill="#31ade0"
     opacity="0.1"
     id="rect5899" />
  <rect
     x="160.05"
     y="549.38"
     width="28.44"
     height="28.44"
     fill="#31ade0"
     opacity="0.1"
     id="rect5901" />
  <rect
     x="884.4"
     y="351.6"
     width="28.44"
     height="28.44"
     fill="#31ade0"
     opacity="0.1"
     id="rect5903" />
  <rect
     x="775.83"
     y="421.75"
     width="28.44"
     height="28.44"
     fill="#31ade0"
     opacity="0.1"
     id="rect5905" />
  <rect
     x="884.4"
     y="421.75"
     width="28.44"
     height="28.44"
     fill="#31ade0"
     opacity="0.1"
     id="rect5907" />
  <rect
     x="775.83"
     y="491.89"
     width="28.44"
     height="28.44"
     fill="#31ade0"
     opacity="0.1"
     id="rect5909" />
  <rect
     x="884.4"
     y="491.89"
     width="28.44"
     height="28.44"
     fill="#31ade0"
     opacity="0.1"
     id="rect5911" />
  <rect
     x="775.83"
     y="562.04"
     width="28.44"
     height="28.44"
     fill="#31ade0"
     opacity="0.1"
     id="rect5913" />
  <rect
     x="884.4"
     y="562.04"
     width="28.44"
     height="28.44"
     fill="#31ade0"
     opacity="0.1"
     id="rect5915" />
  <rect
     x="775.83"
     y="632.19"
     width="28.44"
     height="28.44"
     fill="#31ade0"
     opacity="0.1"
     id="rect5917" />
  <rect
     x="884.4"
     y="632.19"
     width="28.44"
     height="28.44"
     fill="#31ade0"
     opacity="0.1"
     id="rect5919" />
  <polygon
     points="775.83 720.67 775.83 702.33 804.26 702.33 804.26 718.06 775.83 720.67"
     fill="#31ade0"
     opacity="0.1"
     id="polygon5921" />
  <path
     d="M65.24,357v16.27h97.33V357Zm9.7,15.25H67V358h8Zm9.69,0h-8V358h8Zm9.67,0h-8V358h8Zm9.69,0H96V358h8Zm9.68,0h-8V358h8Zm9.69,0h-8V358h8Zm9.69,0h-8V358h8Zm9.68,0h-8V358h8Zm9.68,0h-8V358h8Zm9.68,0h-8V358h8Z"
     transform="translate(-47.24 -58.63)"
     fill="#31ade0"
     opacity="0.1"
     id="path5923" />
  <path
     d="M65.24,404.34v16.27h97.33V404.34Zm9.7,15.24H67V405.37h8Zm9.69,0h-8V405.37h8Zm9.67,0h-8V405.37h8Zm9.69,0H96V405.37h8Zm9.68,0h-8V405.37h8Zm9.69,0h-8V405.37h8Zm9.69,0h-8V405.37h8Zm9.68,0h-8V405.37h8Zm9.68,0h-8V405.37h8Zm9.68,0h-8V405.37h8Z"
     transform="translate(-47.24 -58.63)"
     fill="#31ade0"
     opacity="0.1"
     id="path5925" />
  <path
     d="M65.24,451.7V468h97.33V451.7Zm9.7,15.24H67V452.72h8Zm9.69,0h-8V452.72h8Zm9.67,0h-8V452.72h8Zm9.69,0H96V452.72h8Zm9.68,0h-8V452.72h8Zm9.69,0h-8V452.72h8Zm9.69,0h-8V452.72h8Zm9.68,0h-8V452.72h8Zm9.68,0h-8V452.72h8Zm9.68,0h-8V452.72h8Z"
     transform="translate(-47.24 -58.63)"
     fill="#31ade0"
     opacity="0.1"
     id="path5927" />
  <path
     d="M65.24,499.06v16.25h97.33V499.06Zm9.7,15.24H67V500.07h8Zm9.69,0h-8V500.07h8Zm9.67,0h-8V500.07h8Zm9.69,0H96V500.07h8Zm9.68,0h-8V500.07h8Zm9.69,0h-8V500.07h8Zm9.69,0h-8V500.07h8Zm9.68,0h-8V500.07h8Zm9.68,0h-8V500.07h8Zm9.68,0h-8V500.07h8Z"
     transform="translate(-47.24 -58.63)"
     fill="#31ade0"
     opacity="0.1"
     id="path5929" />
  <path
     d="M65.66,546.41c.39,1.53.83,3.06,1.29,4.57v-3.55h8v14.22H70.67c.13.33.26.69.39,1h91.51V546.41Zm19,15.24h-8V547.43h8Zm9.67,0h-8V547.43h8Zm9.69,0H96V547.43h8Zm9.68,0h-8V547.43h8Zm9.69,0h-8V547.43h8Zm9.69,0h-8V547.43h8Zm9.68,0h-8V547.43h8Zm9.68,0h-8V547.43h8Zm9.68,0h-8V547.43h8Z"
     transform="translate(-47.24 -58.63)"
     fill="#31ade0"
     opacity="0.1"
     id="path5931" />
  <path
     d="M88.26,593.77c.25.32.49.68.75,1H94.3v6.83c.57.68,1.13,1.36,1.71,2v-8.87h8V609h-3.24c.32.33.63.68,1,1h60.83V593.77ZM113.67,609h-8V594.79h8Zm9.69,0h-8V594.79h8Zm9.69,0h-8V594.79h8Zm9.68,0h-8V594.79h8Zm9.68,0h-8V594.79h8Zm9.68,0h-8V594.79h8Z"
     transform="translate(-47.24 -58.63)"
     fill="#31ade0"
     opacity="0.1"
     id="path5933" />
  <path
     d="M141.65,641.12c.91.52,1.84,1,2.78,1.52v-.5h8v4.5l1.7.79v-5.29h8v8.65a2.5,2.5,0,0,0,.48.18v-9.85Z"
     transform="translate(-47.24 -58.63)"
     fill="#31ade0"
     opacity="0.1"
     id="path5935" />
  <path
     d="M801.72,392.55h0l.06,0Zm-61.6,295.14v0l1,0ZM675.85,537.52c.19.64.35,1.28.53,1.91h0C676.22,538.8,676.05,538.16,675.85,537.52Zm125.87-145h0l.06,0Zm-604-149.74v4.27h44.67v-4.27ZM740.12,687.69v0l1,0ZM675.85,537.52c.19.64.35,1.28.53,1.91h0C676.22,538.8,676.05,538.16,675.85,537.52Zm125.87-145h0l.06,0Zm-61.6,295.14v0l1,0ZM675.85,537.52c.19.64.35,1.28.53,1.91h0C676.22,538.8,676.05,538.16,675.85,537.52Z"
     transform="translate(-47.24 -58.63)"
     fill="#31ade0"
     opacity="0.1"
     id="path5937" />
  <circle
     cx="370.08"
     cy="445.36"
     r="2.7"
     opacity="0.1"
     id="circle5995" />
  <ellipse
     cx="132.73"
     cy="744.94"
     rx="97.44"
     ry="15.65"
     fill="#31ade0"
     opacity="0.1"
     id="ellipse6041" />
  <rect
     x="129.6"
     y="445.14"
     width="6.27"
     height="141.17"
     fill="#535461"
     id="rect6043" />
  <path
     d="M222.51,644.51l-.39,6.36-.56,9-.23,3.74-.55,9-.24,3.74-.56,9-6.32,102.07a17.3,17.3,0,0,1-17.26,16.22H163.54a17.29,17.29,0,0,1-17.25-16.22L140,685.28l-.56-9-.23-3.74-.56-9-.23-3.74-.56-9-.4-6.36a9,9,0,0,1,9-9.51h67.21A8.94,8.94,0,0,1,222.51,644.51Z"
     transform="translate(-47.24 -58.63)"
     fill="#3f3d56"
     id="path6045" />
  <polygon
     points="174.88 592.24 174.32 601.21 91.14 601.21 90.58 592.24 174.88 592.24"
     fill="#9d9cb5"
     id="polygon6047" />
  <polygon
     points="174.09 604.95 173.54 613.93 91.93 613.93 91.37 604.95 174.09 604.95"
     fill="#9d9cb5"
     id="polygon6049" />
  <polygon
     points="173.3 617.68 172.75 626.65 92.72 626.65 92.16 617.68 173.3 617.68"
     fill="#9d9cb5"
     id="polygon6051" />
  <path
     d="M128.25,556.68C164.76,583.1,180,624.42,180,624.42s-44-1.51-80.52-27.93-51.73-67.73-51.73-67.73S91.73,530.26,128.25,556.68Z"
     transform="translate(-47.24 -58.63)"
     fill="#31ade0"
     id="path6053" />
  <path
     d="M47.72,528.76s45.68,25.35,60.33,46.34S180,624.42,180,624.42"
     transform="translate(-47.24 -58.63)"
     fill="none"
     stroke="#535461"
     stroke-miterlimit="10"
     stroke-width="2"
     id="path6055" />
  <path
     d="M151.82,503.46C171.69,517.83,180,540.32,180,540.32s-23.95-.82-43.83-15.19S108,488.26,108,488.26,131.94,489.08,151.82,503.46Z"
     transform="translate(-47.24 -58.63)"
     fill="#31ade0"
     id="path6057" />
  <path
     d="M108,488.26s24.86,13.8,32.83,25.22S180,540.32,180,540.32"
     transform="translate(-47.24 -58.63)"
     fill="none"
     stroke="#535461"
     stroke-miterlimit="10"
     stroke-width="2"
     id="path6059" />
  <path
     d="M208.85,539.18c-22.83,25.09-27.66,57.88-27.66,57.88s32.19-7.9,55-33,27.66-57.88,27.66-57.88S231.68,514.09,208.85,539.18Z"
     transform="translate(-47.24 -58.63)"
     fill="#31ade0"
     id="path6061" />
  <path
     d="M263.87,506.19s-29.74,25.72-37.3,43.44-45.38,47.43-45.38,47.43"
     transform="translate(-47.24 -58.63)"
     fill="none"
     stroke="#535461"
     stroke-miterlimit="10"
     stroke-width="2"
     id="path6063" />
  <path
     d="M1046.91,530.35s-16.51-82.14-10.19-92.36c0,0,.23-9.5-.15-21.61,0-.46,0-.92,0-1.39a30.76,30.76,0,0,0,3.47,2,28.08,28.08,0,0,0,18.9,2.44l-5-5.57c-1.2-1.33-2.45-2.77-2.71-4.53s.46-3.33,1.08-4.9c4.75-12,5-27.09-4.15-36.25-7.73-7.7-9.61-17.64-18-24.67-6.13-5.15-9.5-12.7-12.68-20-2.69-6.17-5.4-12.39-6.94-18.93-1.2-5.11-1.68-10.4-3.33-15.39s-4.74-9.84-9.57-12.07c-1.72-.79-3.63-1.24-5.2-2.29-2.06-1.39-3.3-3.65-4.79-5.63-7.57-10-32.92-4.11-44.92-.05a25.27,25.27,0,0,0-8.88,4.92l.11-.18c.09-.15.2-.3.3-.45a15.78,15.78,0,0,0-3.36,3.75c-1.75,2.77-2.48,6-3.94,9-1.76,3.55-11.55,13.46-7.34,17.45a3.55,3.55,0,0,0,1,.64,8.65,8.65,0,0,0,5,.5l-.18.43a29.23,29.23,0,0,0-2.17,11.09c0,16.43,13.55,29.75,30.28,29.75a30.57,30.57,0,0,0,9.27-1.43c.07.38.13.76.2,1.14,0,.15.05.3.07.45v0l-.53.74a1,1,0,0,0-.09-.13l-15.7,21.94c-2.4,1.69-16.22,11.69-17,19.19-.82,8.21-1.64,17.82-1.64,17.82l-.11,2.06a6.18,6.18,0,0,1-5,1.35c-4.9-.8-4.9,18-4.9,18s-3.26,3-5.5.4-8.16,6.21-8.16,6.21l-37.1,1.6h0l-.85.05-2-6.19a2.61,2.61,0,0,0-3.27-1.67,3,3,0,0,0-.45.19l-.14.08-.26.18-.13.12a2,2,0,0,0-.2.21l-.12.14-.06.06h0a2.52,2.52,0,0,0-.36,2.24l1.72,5.31c-7.16,1.44-14.48,5.5-8.51,16.68l-30.26-5.59,9.79,8.22,50.54,10.43c-.67,1.2-.23,2.94,1.86,5.39,9,10.57,25.4,13.44,32,14.18a56.81,56.81,0,0,0,6.49,11l-.57,10.53s-16.71,80.26-19.77,84.33a47.57,47.57,0,0,0,4.23-5.57c-4.85,16.49-11.63,39.06-13.41,42.44-2.86,5.4-5.51,27.25-2.25,28.65,1,.43,3.86.22,7.94-.09v1.81l-.18,68.59s.82,42.07-1.43,46.08-2.85,12.42-2.85,12.42-9,16.59-16.13,23.26a1.07,1.07,0,0,1-.16.14l-.22-1.56s-8.57,10.82-27.53,10.21c0,0-11.41,7.42,5.51,7.82s38.53-.6,38.53-.6,15.09-23,27.73-20v17.43h3.87V804.6a15.87,15.87,0,0,0,6.89-10.43,12.68,12.68,0,0,0-4.52-11.73,7.5,7.5,0,0,1-2.47-5.48l-.14.12c0-.35-.09-.71-.13-1.08-1.11-9-2.5-27.57,2.41-41.31,6.73-18.84,8.77-45.08,3.87-60.7a139.56,139.56,0,0,1-3.89-15.21c-.12-.65-.23-1.27-.33-1.85a78.85,78.85,0,0,1,9.93,2c11.35,3.13,36.18,3.71,57.38,3.54.05.58.11,1.19.18,1.8A65.5,65.5,0,0,0,998,676.79c2.66,8,3.88,43.27,3.88,43.27s3.43,29,1.56,40.8c-1,6.56-2,13.15-2.57,19.77v.13s-5.62,16-9.73,24.69c-.1.22-.21.44-.31.65a13,13,0,0,0-3.21.71s-5.51,11-11,12.82-3.67,7.81,8.76,5.61,31.2-4,31.2-4l.81-11.22,3.82-4.78-1,11.19,4.07-.8-.54-13.61,6.25-7.82s7.55-6.72-3.67-19.94v.29c-.12-.19-.23-.39-.36-.58l0-.06c-1.86-2.88-3.34-8.25-.63-17.78,4.9-17.22,7.75-32.85,7.75-32.85s10.94-41.87-2.21-61.68l.58,0a33.32,33.32,0,0,1-2.83-8.8q-.1-.54-.18-1.11c9.73-.56,19.28-2.32,27.07-6.12C1055.48,645.53,1050.79,546.17,1046.91,530.35Zm-123.53-69.3v.2l-2,.1Zm-6.86.95a2.21,2.21,0,0,0-.9.43,8.88,8.88,0,0,0-1.57,4.11l-3.12-.7s-2.19-.47-5.34-1l-1.49-1.5C908.2,463,912.46,462.5,916.52,462Z"
     transform="translate(-47.24 -58.63)"
     fill="url(#ad14f186-b27f-416c-b629-0bafa2f1236e)"
     id="path6065" />
  <polygon
     points="972.51 743.53 971.32 757.7 975.31 756.9 974.71 741.53 972.51 743.53"
     fill="#1d2366"
     id="polygon6067"
     style="fill:#241f1c" />
  <path
     d="M928.72,734.88c-4.81,13.7-3.45,32.19-2.37,41.17.4,3.32.77,5.34.77,5.34s-7.19,16.38-7.79,17-21.16,13.17-21.16,13.17l-14.37,8.39s-14.58-6.39-7.59-8.59a10.61,10.61,0,0,0,3.77-2.57c7-6.65,15.79-23.18,15.79-23.18s.6-8.39,2.8-12.38,1.4-45.92,1.4-45.92l.17-68.35,0-8.91,27.35.2a61.89,61.89,0,0,0,1.18,9,137.59,137.59,0,0,0,3.81,15.16C937.3,690,935.3,716.11,928.72,734.88Z"
     transform="translate(-47.24 -58.63)"
     fill="#ffb0b1"
     id="path6069" />
  <path
     d="M927.12,781.39s-7.19,16.38-7.79,17-21.16,13.17-21.16,13.17l-14.37,8.39s-14.58-6.39-7.59-8.59a10.61,10.61,0,0,0,3.77-2.57l.62,4.37,4.79-.2,41-36.89C926.75,779.37,927.12,781.39,927.12,781.39Z"
     transform="translate(-47.24 -58.63)"
     opacity="0.1"
     id="path6071" />
  <path
     d="M926.62,777l-41.23,37.14-4.79.2-1-7s-8.38,10.78-27,10.18c0,0-11.18,7.39,5.39,7.79s37.73-.6,37.73-.6,14.78-23,27.15-20v17.37h3.8V804.55a15.79,15.79,0,0,0,6.74-10.4A12.74,12.74,0,0,0,929,782.47,7.53,7.53,0,0,1,926.62,777Z"
     transform="translate(-47.24 -58.63)"
     fill="#1d2366"
     id="path6073"
     style="fill:#241f1c" />
  <path
     d="M1023.55,756.24c-2.66,9.5-1.21,14.85.61,17.72l0,.06a32.75,32.75,0,0,1,4.78,11.67l.16.9-18.76,27.35-10.18,4s-16.37-5.59-13.38-7.19c.75-.39,1.92-2.47,3.26-5.34,4-8.65,9.52-24.61,9.52-24.61v-.13c.58-6.59,1.5-13.16,2.52-19.7,1.83-11.77-1.53-40.66-1.53-40.66s-1.2-35.13-3.8-43.12a65.93,65.93,0,0,1-2.33-12.44c-.54-5-.66-9.12-.66-9.12s10.78-15,30.54,1.2a21.74,21.74,0,0,1,4.13,4.48c13.65,19.42,2.66,62.2,2.66,62.2S1028.34,739.07,1023.55,756.24Z"
     transform="translate(-47.24 -58.63)"
     fill="#ffb0b1"
     id="path6075" />
  <path
     d="M1029.13,786.59l-18.76,27.35-10.18,4s-16.37-5.59-13.38-7.19c.75-.39,1.92-2.47,3.26-5.34,6.93-.06,10.52,6.54,10.52,6.54l8.78-1.4s11.58-22.76,14.18-24.15.4-10.39.4-10.39v-2.29c.07.08.13.17.21.25l0,.06a32.75,32.75,0,0,1,4.78,11.67Z"
     transform="translate(-47.24 -58.63)"
     opacity="0.1"
     id="path6077" />
  <path
     d="M1001.19,812.54s-5-9.18-14.58-5.79c0,0-5.39,11-10.78,12.78s-3.59,7.78,8.59,5.59,30.54-4,30.54-4l.8-11.19,12.38-15.77s7.38-6.69-3.6-19.86v2.29s2.2,9-.4,10.39S1010,811.14,1010,811.14Z"
     transform="translate(-47.24 -58.63)"
     fill="#1d2366"
     id="path6079"
     style="fill:#241f1c" />
  <path
     d="M927.52,650.23a61.89,61.89,0,0,0,1.18,9c-11.26-1.65-21.71-.83-28.56-.29l0-8.91Z"
     transform="translate(-47.24 -58.63)"
     opacity="0.1"
     id="path6081" />
  <path
     d="M1029.54,663.8s-16,.78-35.08.94c-.54-5-.66-9.12-.66-9.12s10.78-15,30.54,1.2a21.74,21.74,0,0,1,4.13,4.48A24.4,24.4,0,0,0,1029.54,663.8Z"
     transform="translate(-47.24 -58.63)"
     opacity="0.1"
     id="path6083" />
  <path
     d="M1029.54,662s-70.08,3.39-91.44-2.6-42.53-.8-45.72-2.19-.6-23.16,2.2-28.55,18.16-59.9,18.16-59.9l14.78-77.06,15.57-4.29,1.1-.31,27.13-7.48,19.88-5.49s39.53,154.33,36.14,165.71a29.14,29.14,0,0,0-.58,13.39A33.42,33.42,0,0,0,1029.54,662Z"
     transform="translate(-47.24 -58.63)"
     fill="#1d2366"
     id="path6085"
     style="fill:#aa8800" />
  <path
     d="M876,439s-14,15-3.4,23.36,17.57.8,17.57.8Z"
     transform="translate(-47.24 -58.63)"
     fill="#c7daf5"
     id="path6087" />
  <path
     d="M876,439s-14,15-3.4,23.36,17.57.8,17.57.8Z"
     transform="translate(-47.24 -58.63)"
     opacity="0.1"
     id="path6089" />
  <path
     d="M989.11,340.38s-1.64,1.56-4.11,3.86c-3.52,3.29-8.73,8.1-13.35,12.13-6.4,5.57-11.68,9.66-9.79,6.17s1.53-9.57.59-15.26c-.07-.38-.13-.76-.2-1.13a104.8,104.8,0,0,0-3.09-12.36s10.34-13.36,16.06-18.63c2.13-2,3.62-2.82,3.71-1.43.1,1.87,1.5,6,3.24,10.38.05.14.1.27.16.41,1.16,3,2.47,6.08,3.62,8.74C987.71,337.34,989.11,340.38,989.11,340.38Z"
     transform="translate(-47.24 -58.63)"
     fill="#ffb0b1"
     id="path6091" />
  <path
     d="M982.33,324.52a29.68,29.68,0,0,1-19.88,22.76,104.07,104.07,0,0,0-3.29-13.49s19.47-25.15,19.77-20.06C979,315.66,980.52,319.94,982.33,324.52Z"
     transform="translate(-47.24 -58.63)"
     opacity="0.1"
     id="path6093" />
  <path
     d="M960.51,354l2.52-3.55s1.67,10.18,7.81,5.69,6.44,33.79,6.44,33.79l-6.59,98.53-47.62-2.85L924.42,438l5.39-24,13.33-34.89,7.93-11.53Z"
     transform="translate(-47.24 -58.63)"
     opacity="0.1"
     id="path6095" />
  <path
     d="M977.28,390.54l-6,89.09-.63,9.44-26.55-1.59-1-.06-20-1.2,1.35-47.62,5.39-24,13.33-34.89,7.93-11.53,9.44-13.63,2.52-3.54s1.67,10.18,7.81,5.69l.13-.09h0C977,352.81,977.28,390.54,977.28,390.54Z"
     transform="translate(-47.24 -58.63)"
     fill="#1d2366"
     id="path6097"
     style="fill:#806600" />
  <path
     d="M930.51,406.26s-2.39,5-7.19,4.19-4.79,18-4.79,18-3.19,3-5.39.4-8,6.19-8,6.19l-36.34,1.6s16.17,7.39,13,29.75c0,0,54.9-3.4,56.7-8.59S930.51,406.26,930.51,406.26Z"
     transform="translate(-47.24 -58.63)"
     fill="#fff"
     id="path6099" />
  <path
     d="M930.51,406.26s-2.39,5-7.19,4.19-4.79,18-4.79,18-3.19,3-5.39.4-8,6.19-8,6.19l-36.34,1.6s16.17,7.39,13,29.75c0,0,54.9-3.4,56.7-8.59S930.51,406.26,930.51,406.26Z"
     transform="translate(-47.24 -58.63)"
     opacity="0.03"
     id="path6101" />
  <polygon
     points="777.66 389.76 787.24 397.94 866.1 414.51 856.32 404.53 777.66 389.76"
     fill="#fff"
     id="polygon6103" />
  <path
     d="M960.66,357.15c-1.31,2-5.06,12.24-8.19,21.18-2.61,7.45-4.79,14-4.79,14s-5.09,33.14-7.69,39.13-1.19,29.35-1.19,29.35l-9.69,57.69s-4.39,29.75-11.17,47.52c-6.69,17.49-14.14,25.69-14.37,25.95,3-4.06,19.35-84,19.35-84l5.4-100.82s.79-9.58,1.59-17.77,17-19.37,17-19.37l15.62-22.21C964.1,349.9,963.05,353.56,960.66,357.15Z"
     transform="translate(-47.24 -58.63)"
     fill="#fff"
     id="path6105" />
  <path
     d="M919.93,486.72s-23-1-34.14-14.38S911.54,467,911.54,467l9.59,2.2Z"
     transform="translate(-47.24 -58.63)"
     fill="#ffb0b1"
     id="path6107" />
  <path
     d="M1027.34,639.85a29.14,29.14,0,0,0-.58,13.39c-25.09,1.78-51.93-5-51.93-5-5,4.6-18.17,11.38-18.17,11.38l-7.18-89c-4.59-12-6.39-74.87-6.39-74.87s.41-3.29,1-8.22c0-.12,0-.25.05-.37,1.79-13.77,5.34-39.62,7.08-43.11,2.4-4.8-7.38-17.57-7.38-17.57l4.45-37.95.54-4.58c9.38-4.19,16.57-17.57,16.57-17.57l5.52-9.67h0c6-3.85,6.31,33.88,6.31,33.88l-6,89.09,19.88-5.49S1030.73,628.47,1027.34,639.85Z"
     transform="translate(-47.24 -58.63)"
     opacity="0.1"
     id="path6109" />
  <path
     d="M1053.09,646c-27.35,13.58-77.06,1-77.06,1-5,4.6-18.17,11.38-18.17,11.38l-7.19-89c-4.58-12-6.38-74.87-6.38-74.87s5.78-46.91,8.18-51.7c.7-1.4.36-3.48-.47-5.72a72.38,72.38,0,0,1-4.38-33.49l1.92-16.31.53-4.57c9.39-4.2,16.58-17.58,16.58-17.58l5-8.76,9.2-16.14,4.36-7.64.74.67,5.65,5.12s2.4,2,6,5c7.83,6.6,21.36,18.22,28.34,25.33,6.14,6.26,8.08,30.61,8.64,48.94.37,12.07.15,21.53.15,21.53-6.19,10.19,10,92,10,92C1048.5,547,1053.09,646,1053.09,646Z"
     transform="translate(-47.24 -58.63)"
     fill="#fff"
     id="path6111" />
  <path
     d="M1000.59,364.94S981.82,400.67,984,414.25s8.38,28.95,5.39,32.54a11.05,11.05,0,0,1-8.79,4.39c-3,.2-11,5.79-11,6.39s-7.39.6-14,3.4-16.37,4.39-16.37,4.39-19-.6-20.77,1.2-3.59,12.57.2,21.16,8,15,11.18,16.17,23.36-5.59,39.73-7.19,34.14-14.57,34.14-14.57,19.57-7,23-18.77-4.19-76.46-4.19-76.46S1016.76,356.75,1000.59,364.94Z"
     transform="translate(-47.24 -58.63)"
     opacity="0.03"
     id="path6113" />
  <path
     d="M998.19,361.94s-18.77,35.74-16.57,49.31S990,440.2,987,443.8a11,11,0,0,1-8.78,4.39c-3,.2-11,5.79-11,6.39s-7.39.6-14,3.39-16.37,4.39-16.37,4.39-19-.6-20.76,1.2-3.6,12.58.2,21.16,8,15,11.18,16.17,23.36-5.59,39.73-7.18,34.14-14.58,34.14-14.58,19.56-7,22.95-18.76-4.19-76.47-4.19-76.47S1014.36,353.76,998.19,361.94Z"
     transform="translate(-47.24 -58.63)"
     opacity="0.03"
     id="path6115" />
  <path
     d="M1000,363.14s-18.77,35.74-16.57,49.31,8.38,28.95,5.39,32.54a11,11,0,0,1-8.79,4.4c-3,.2-11,5.79-11,6.38s-7.38.6-14,3.4-16.37,4.39-16.37,4.39-19-.6-20.77,1.2-3.59,12.58.2,21.16,8,15,11.18,16.17,23.36-5.59,39.73-7.19,34.14-14.57,34.14-14.57,19.57-7,23-18.77S1022,385.1,1022,385.1,1016.16,355,1000,363.14Z"
     transform="translate(-47.24 -58.63)"
     fill="#fff"
     id="path6117" />
  <path
     d="M999.59,459s-15-3-9.78,2,5.19,9.38,11.58,9.18S999.59,459,999.59,459Z"
     transform="translate(-47.24 -58.63)"
     opacity="0.1"
     id="path6119" />
  <path
     d="M1024.94,566.58s-6.78,4.59,6.19,15.17S1024.94,566.58,1024.94,566.58Z"
     transform="translate(-47.24 -58.63)"
     opacity="0.1"
     id="path6121" />
  <path
     d="M1012,604.31c0,.6-2.4,22,6.58,27.35S1012,604.31,1012,604.31Z"
     transform="translate(-47.24 -58.63)"
     opacity="0.1"
     id="path6123" />
  <path
     d="M869.42,436.59c-7.24.25-22.88,2.46-14.77,17.59,7.17,13.39,19.22,4.44,26-2.35A25.55,25.55,0,0,0,869.42,436.59Z"
     transform="translate(-47.24 -58.63)"
     fill="#ffb0b1"
     id="path6125" />
  <path
     d="M881.39,451v0Z"
     transform="translate(-47.24 -58.63)"
     fill="#ffb0b1"
     id="path6127" />
  <path
     d="M880.74,451.71l.3-.31Z"
     transform="translate(-47.24 -58.63)"
     fill="#ffb0b1"
     id="path6129" />
  <path
     d="M997.6,344c-7.68,5.25-14.12,9.68-15.38,10.6-3.44,2.55-10,17.52-14.23,25.16-3.37,6.15-14.32,7.73-18.45,8.12l.53-4.57c9.39-4.2,16.58-17.58,16.58-17.58l18.56-32.54L991.6,339S994,341,997.6,344Z"
     transform="translate(-47.24 -58.63)"
     opacity="0.1"
     id="path6131" />
  <path
     d="M997.6,343.4c-7.68,5.25-14.12,9.68-15.38,10.61-3.44,2.54-10,17.51-14.23,25.15-3.37,6.15-14.32,7.73-18.45,8.12l.53-4.57c9.39-4.2,16.58-17.58,16.58-17.58l18.56-32.54,6.39,5.79S994,340.36,997.6,343.4Z"
     transform="translate(-47.24 -58.63)"
     fill="#dce7ff"
     id="path6133" />
  <path
     d="M982.82,317.92a29.61,29.61,0,0,1-5.22,16.81,29.66,29.66,0,1,1,5.22-16.81Z"
     transform="translate(-47.24 -58.63)"
     fill="#ffb0b1"
     id="path6135" />
  <path
     d="M1034.58,417.67a26.36,26.36,0,0,1-9.57-10.28c-1.67-3.3-2.78-7.11-5.63-9.45-2.57-2.1-6-2.61-9.2-3.55-10.52-3.11-19.34-12.71-19.67-23.67-.16-5.16,1.45-10.31.72-15.42a17.08,17.08,0,0,0-3.34-7.95,27.37,27.37,0,0,0-2.89-3.11c-1.4-1.32-2.87-2.6-4.15-4a15.53,15.53,0,0,1-2.1-2.85,13.71,13.71,0,0,1-1.15-2.65c-2-6.12-.18-13.38-2.38-19.57l-.12-.34c-.83-2.2-2.52-4.4-4.87-4.57s-4.36,1.78-6.6,2.65c-4.69,1.82-9.75-1.28-13.66-4.44s-8.32-6.77-13.29-6.07c-3.29.47-5.89,2.71-8.92,3.87a12.5,12.5,0,0,1-2.11.61,29.65,29.65,0,0,1,57.17,11.05,29.35,29.35,0,0,1-.65,6.19c.05.14.1.27.16.41,1.16,3,2.47,6.08,3.62,8.74l5.65,5.12s2.4,2,6,5c7.83,6.6,21.36,18.22,28.34,25.33C1032.08,375,1034,399.34,1034.58,417.67Z"
     transform="translate(-47.24 -58.63)"
     opacity="0.1"
     id="path6137" />
  <path
     d="M927.41,288c1.43-2.91,2.14-6.17,3.85-8.93,2.51-4,6.89-6.56,11.39-8.11,11.75-4.05,36.58-9.93,44,0,1.46,2,2.67,4.22,4.69,5.6,1.54,1.05,3.4,1.5,5.09,2.29,4.73,2.22,7.75,7.06,9.36,12s2.09,10.24,3.27,15.33c1.51,6.53,4.16,12.72,6.8,18.87,3.11,7.26,6.41,14.79,12.41,19.92,8.19,7,10,16.91,17.6,24.59,9,9.12,8.71,24.17,4.07,36.12-.61,1.57-1.3,3.21-1.06,4.88s1.48,3.19,2.65,4.52l4.92,5.55c-11.64,2.81-24.81-3.27-30.23-13.94-1.67-3.3-2.78-7.1-5.64-9.45-2.56-2.1-6-2.6-9.19-3.54-10.52-3.12-19.34-12.73-19.67-23.69-.16-5.15,1.45-10.3.72-15.4a17,17,0,0,0-3.35-8c-2.75-3.59-6.9-6-9.14-10-3.79-6.69-.91-15.38-3.64-22.56-.84-2.2-2.52-4.4-4.87-4.57s-4.36,1.78-6.61,2.65c-4.68,1.82-9.74-1.27-13.65-4.44s-8.32-6.77-13.3-6.06c-3.29.46-5.88,2.7-8.91,3.87-2.24.86-6.78,1.63-8.74-.26C916.09,301.43,925.68,291.56,927.41,288Z"
     transform="translate(-47.24 -58.63)"
     fill="#591d4b"
     id="path6139"
     style="fill:#502d16" />
  <path
     d="M1029,403.39c-1.68-3.3-2.78-7.1-5.64-9.44-2.56-2.1-6-2.61-9.2-3.55-10.51-3.11-19.33-12.72-19.67-23.68-.16-5.15,1.45-10.31.73-15.41a17.1,17.1,0,0,0-3.35-7.95c-2.76-3.59-6.91-6-9.14-10-3.79-6.68-.91-15.37-3.65-22.56-.83-2.19-2.52-4.39-4.86-4.57s-4.37,1.79-6.61,2.66c-4.68,1.82-9.75-1.28-13.65-4.44s-8.33-6.77-13.3-6.07c-3.29.47-5.89,2.71-8.91,3.87-2.24.86-6.79,1.64-8.75-.25-4.12-4,5.47-13.85,7.19-17.39,1.43-2.92,2.14-6.17,3.86-8.93.09-.15.19-.3.29-.45a15.88,15.88,0,0,0-3.29,3.74c-1.71,2.76-2.42,6-3.85,8.93-1.73,3.54-11.32,13.42-7.19,17.39,2,1.9,6.5,1.12,8.74.26,3-1.17,5.62-3.41,8.91-3.87,5-.71,9.4,2.9,13.3,6.06s9,6.26,13.66,4.44c2.24-.87,4.2-2.83,6.6-2.65s4,2.37,4.87,4.57c2.73,7.18-.15,15.87,3.64,22.56,2.24,3.93,6.39,6.39,9.14,10a17,17,0,0,1,3.35,8c.73,5.1-.88,10.25-.72,15.4.33,11,9.15,20.57,19.67,23.69,3.17.94,6.63,1.44,9.19,3.54,2.87,2.35,4,6.15,5.64,9.45,5.42,10.67,18.59,16.75,30.23,13.94l-2.32-2.62C1043.82,418.21,1033.61,412.47,1029,403.39Z"
     transform="translate(-47.24 -58.63)"
     opacity="0.1"
     id="path6141" />
  <path
     d="M960.06,357.75c-1.31,2-5.06,12.24-8.19,21.18-2.93-1.14-5.59-8.41-5.59-8.41L961.9,348.3C963.5,350.5,962.45,354.15,960.06,357.75Z"
     opacity="0.1"
     id="path6143"
     transform="translate(-47.24 -58.63)" />
  <path
     d="M960.66,357.15c-1.31,2-5.06,12.24-8.19,21.18-2.93-1.13-5.59-8.41-5.59-8.41l15.62-22.21C964.1,349.9,963.05,353.56,960.66,357.15Z"
     fill="#dce7ff"
     id="path6145"
     transform="translate(-47.24 -58.63)" />
  <path
     d="M869.84,459.31,861.18,432a2.55,2.55,0,0,1,1.66-3.21h0a2.56,2.56,0,0,1,3.2,1.66l8.66,27.28-.86,5.71Z"
     transform="translate(-47.24 -58.63)"
     fill="#be8b87"
     id="path6147" />
  <path
     d="M862,429.6h0a2.56,2.56,0,0,1,3.21,1.66l8.66,27.28-.65,4.28.63.66.86-5.71L866,430.49a2.56,2.56,0,0,0-3.2-1.66h0a2.56,2.56,0,0,0-1.33,1A3.48,3.48,0,0,1,862,429.6Z"
     transform="translate(-47.24 -58.63)"
     fill="#fff"
     opacity="0.1"
     id="path6149" />
  <polygon
     points="822.6 400.68 827.46 399.14 826.75 403.82 826.6 404.85 825.18 403.37 822.6 400.68"
     fill="#efc8c4"
     id="polygon6151" />
  <path
     d="M872.42,462a1,1,0,0,1,.31-.26.44.44,0,0,1,.47,0,1.24,1.24,0,0,1,.17.27.86.86,0,0,0,.62.41l-.15,1Z"
     transform="translate(-47.24 -58.63)"
     fill="#727a9c"
     id="path6153" />
  <path
     d="M861.13,441.7s17.37-.1,13.28,7.29-10.48,8.28-10.48,8.28Z"
     transform="translate(-47.24 -58.63)"
     fill="#ffb0b1"
     id="path6155" />
  <path
     d="m 696.38746,45.164458 h -0.67548 c -26.87506,0 -50.64293,14.084158 -64.31462,34.86699 -13.6717,-20.782832 -37.43956,-34.86699 -64.31463,-34.86699 h -0.67548 a 76.554309,75.81719 0 0 0 -75.82479,75.772592 c 0,24.8056 10.96978,60.00262 32.35996,88.96478 40.75391,55.186 108.45494,103.46817 108.45494,103.46817 0,0 67.70102,-48.27325 108.44593,-103.46817 21.39918,-28.96216 32.35996,-64.15918 32.35996,-88.96478 A 76.554309,75.81719 0 0 0 696.38746,45.164458 Z M 686.72361,214.1476 a 15.175766,15.029643 0 0 1 -14.11302,-9.65109 h -16.0674 a 5.0796035,5.0306936 0 0 1 -4.78239,-3.42515 l -4.9355,-14.72637 -15.61708,54.04427 a 5.0525844,5.0039346 0 0 1 -4.84544,3.61247 h -0.31522 a 4.9895396,4.9414969 0 0 1 -4.68332,-4.13873 l -16.09442,-95.8686 -11.76234,56.72909 a 5.0165588,4.9682559 0 0 1 -4.87246,3.77302 h -22.63306 a 5.0345716,4.9860952 0 1 1 0,-9.96327 h 18.67025 l 16.66182,-76.27209 a 5.0525844,5.0039346 0 0 1 9.90703,0.41031 l 16.43666,97.79525 13.99593,-48.35353 a 4.9535141,4.9058182 0 0 1 4.71034,-3.56786 h 0.0991 a 5.0255652,4.9771755 0 0 1 4.77338,3.42515 l 8.92531,26.58953 h 12.23067 a 15.094708,14.949366 0 1 1 14.33817,19.62328 z"
     fill="#31ade0"
     id="path6157"
     style="stroke-width:0.896292" />
  <path
     d="m 936.46419,310.5819 a 1.0511184,1.0486481 41.559816 0 1 -0.27127,-1.18287 c 5.16839,-12.12632 -2.2803,-28.31081 -2.33038,-28.50019 a 1.0239343,1.0215279 41.559816 0 1 0.49956,-1.36931 1.042057,1.039608 41.559816 0 1 1.37687,0.49586 c 0.32496,0.69887 7.89626,17.20949 2.36386,30.1971 a 1.0511184,1.0486481 41.559816 0 1 -1.36457,0.54199 1.0148729,1.0124878 41.559816 0 1 -0.27407,-0.18258 z"
     fill="#68e1fd"
     id="path3735"
     style="fill:#001900;fill-opacity:1;stroke-width:0.905071"
     inkscape:transform-center-x="35.015351"
     inkscape:transform-center-y="-4.0275982" />
  <path
     d="M 895.48281,329.23654 C 893.03583,299.08504 915.73934,292.37041 915.82,292.38 a 0.83659005,0.50852256 56.764076 0 0 0.32855,-0.62399 0.62744254,0.38139193 56.764076 0 0 -0.61803,-0.70235 c -0.34637,-0.0275 -23.80833,6.55747 -20.94304,37.23485 0.038,0.34616 0.92069,1.22305 0.89532,0.94803 z"
     fill="#68e1fd"
     id="path3739"
     style="fill:#000000;stroke-width:0.526004" />
  <path
     d="m 924.21317,346.51796 a 4.8645199,3.4890372 23.58397 0 1 -1.79444,-1.15159 c -1.40956,-1.29564 -1.92328,-3.04895 -1.54022,-5.22211 0.71758,-4.05543 8.84282,-30.83965 14.48375,-31.6224 a 2.727321,1.9561487 23.58397 0 1 2.63227,0.6873 c 3.36354,2.4607 3.05962,12.02656 2.88569,14.89639 l -1.62725,22.34391 c -0.5036,1.45276 -2.20762,3.54227 -5.34321,2.47298 l 0.48571,-1.9099 c 1.5166,0.5123 2.26595,-1.36365 2.27511,-1.38462 l 1.57914,-22.134 c 0.37355,-6.07795 -0.48875,-12.21485 -1.78553,-12.91202 -3.50407,0.49236 -11.78378,23.56439 -12.98994,30.33358 -0.26195,1.4771 -0.0133,2.62166 0.73322,3.3033 a 3.1898491,2.2878932 23.58397 0 0 2.23607,0.85757 l 0.51937,2.09905 a 6.3796983,4.5757865 23.58397 0 1 -2.74974,-0.65744 z"
     fill="#68e1fd"
     id="path3763"
     style="fill:#000000;stroke-width:0.675372" />
  <rect
     x="268.08826"
     y="254.28419"
     width="29.793745"
     height="30.647818"
     fill="#31ade0"
     opacity="0.1"
     id="rect5903-6"
     style="stroke-width:1.06251" />
  <rect
     x="268.08826"
     y="329.87997"
     width="29.793745"
     height="30.647818"
     fill="#31ade0"
     opacity="0.1"
     id="rect5907-7"
     style="stroke-width:1.06251" />
  <rect
     x="268.08826"
     y="405.465"
     width="29.793745"
     height="30.647818"
     fill="#31ade0"
     opacity="0.1"
     id="rect5911-9"
     style="stroke-width:1.06251" />
  <rect
     x="268.08826"
     y="481.06076"
     width="29.793745"
     height="30.647818"
     fill="#31ade0"
     opacity="0.1"
     id="rect5915-4"
     style="stroke-width:1.06251" />
  <rect
     x="268.08826"
     y="556.65662"
     width="29.793745"
     height="30.647818"
     fill="#31ade0"
     opacity="0.1"
     id="rect5919-1"
     style="stroke-width:1.06251" />
  <path
     d="M 215.44633,298.2192 Z"
     fill="#ffb0b1"
     id="path6127-6"
     style="stroke-width:1.06251" />
  <polygon
     points="809.608,417.001 818.608,399.001 809.608,399.001 800.608,408.001 "
     fill="#a0616a"
     id="polygon1158"
     transform="matrix(1.0711416,0,0,1.2865253,-497.2822,-144.11533)" />
  <path
     d="m 372.09313,268.8088 c 2.70549,1.32985 3.99214,4.96511 5.01176,8.25564 l 12.50546,40.36019 2.4341,7.8559 c 1.19364,3.8526 2.38811,7.70769 3.39768,11.6355 q 0.95793,3.72682 1.69104,7.52989 a 16.487107,19.802314 0 0 1 0.57649,6.67579 15.447103,18.553187 0 0 1 -2.21001,6.95496 51.836929,62.260236 0 0 1 -18.01193,22.18845 16.813461,20.194293 0 0 0 -9.77556,-15.35581 l 6.46648,-4.27164 a 11.693041,14.044264 0 0 0 3.62367,-3.18753 7.9595668,9.5600668 0 0 0 1.3837,-7.28595 26.072655,31.315313 0 0 0 -1.91969,-7.30947 166.09455,199.49263 0 0 1 -5.64,-19.88209 c -0.93917,-3.98781 -1.80208,-8.08618 -3.66341,-11.57579 -1.68855,-3.16569 -4.13375,-5.69718 -5.66805,-8.97422 -2.3383,-4.99429 -2.27832,-11.14362 -1.24584,-16.73761 0.87169,-4.72284 2.33359,-9.268 3.56347,-13.86581 0.96628,-3.61268 4.58416,-4.43414 7.48064,-3.0104 z"
     fill="#d0cde1"
     id="path1160"
     style="stroke-width:1.1739;fill:#ff8080" />
  <path
     d="m 312.47072,160.97685 c -4.97252,2.01697 -9.47741,6.73447 -10.49567,12.91847 -0.47202,2.86656 -0.18263,5.8465 -0.57983,8.72937 -0.92118,6.686 -5.29088,11.79216 -9.32114,16.53504 -4.03026,4.74288 -8.19228,10.25392 -8.48643,17.02164 -0.3221,7.41083 4.15269,14.35357 3.37838,21.71597 -0.8996,8.55361 -8.42148,14.09619 -10.2809,22.4235 -1.24162,5.56049 0.27985,11.55027 2.78304,16.4598 4.77007,9.35573 12.92357,15.70732 21.60645,19.11229 8.68286,3.40497 17.93027,4.12131 27.06379,4.23626 11.12102,0.13995 23.19556,-1.00677 31.55132,-9.82239 a 25.276294,30.35882 0 0 0 8.39133,-19.76419 c 0.79372,-10.21158 -2.75477,-20.76289 -0.3071,-30.58851 1.54052,-6.1837 5.40349,-11.83116 4.82699,-18.24848 -0.56363,-6.27453 -5.12637,-10.72204 -8.25646,-15.79097 -2.92251,-4.73274 -4.69588,-10.3218 -6.43392,-15.83206 l -5.94686,-18.8535 c -1.16905,-3.70627 -2.45271,-7.60428 -5.05805,-10.03683 -4.87722,-4.55391 -12.71969,-3.65918 -18.42278,-2.71994 -5.29079,0.87137 -10.92414,0.44075 -16.01216,2.50453 z"
     fill="#2f2e41"
     id="path1162"
     style="stroke-width:1.1739" />
  <path
     d="m 317.07095,223.11003 c 0,0 0.58205,20.9735 -1.16412,23.07085 -1.74618,2.09736 6.98491,16.07968 6.98491,16.07968 l 15.71601,-0.69911 8.14903,-7.69029 -6.98492,-11.18587 c 0,0 -2.9104,-18.17702 -0.58205,-22.37172 2.32833,-4.19471 -22.11886,2.79646 -22.11886,2.79646 z"
     fill="#a0616a"
     id="path1164"
     style="fill:#ffccaa;stroke-width:1.1739" />
  <polygon
     points="742.606,423.195 728.477,404.719 726.303,411.24 735.541,431.89 "
     fill="#a0616a"
     id="polygon1168"
     transform="matrix(1.0711416,0,0,1.2865253,-497.2822,-144.11533)" />
  <polygon
     points="691.253,648.441 695.057,650.614 701.578,649.527 709.186,646.81 712.446,634.312 718.424,618.009 701.578,618.009 697.774,639.203 "
     fill="#a0616a"
     id="polygon1170"
     transform="matrix(1.0711416,0,0,1.2865253,-497.2822,-144.11533)"
     style="fill:#ffccaa" />
  <polygon
     points="783.09,632.138 783.09,609.858 771.135,604.967 768.961,635.399 774.395,639.746 "
     fill="#a0616a"
     id="polygon1172"
     transform="matrix(1.0711416,0,0,1.2865253,-497.2822,-144.11533)"
     style="fill:#ffccaa" />
  <ellipse
     cx="326.67526"
     cy="205.98167"
     fill="#a0616a"
     id="circle1174"
     rx="20.954655"
     ry="25.168192"
     style="fill:#ffccaa;stroke-width:1.1739" />
  <path
     d="m 342.84497,239.83317 a 4.850193,5.8254638 0 0 0 -4.03757,-0.0933 32.76804,39.356997 0 0 0 -3.695,2.31298 17.116166,20.557865 0 0 1 -9.94802,2.173 3.4218152,4.1098695 0 0 1 -1.16251,-0.35939 5.5929868,6.7176177 0 0 1 -1.06557,-1.03287 6.1663582,7.4062819 0 0 0 -8.53839,0.88404 c -0.61547,0.92099 -1.03676,2.02061 -1.70841,2.88319 -1.73954,2.2341 -4.60989,2.3246 -7.15659,2.31906 a 66.36058,79.704284 0 0 0 -15.72334,1.73094 28.797822,34.588453 0 0 0 -13.80719,8.78749 10.515117,12.629485 0 0 0 -2.45274,4.20011 c -0.70233,2.17535 -0.61,4.61879 -1.24128,6.82533 -0.70301,2.45718 -2.2603,4.47339 -2.89058,6.95888 -0.47473,1.87207 -0.40856,3.95615 -1.2029,5.66485 3.4016,3.5363 6.28355,8.25214 9.68515,11.78843 2.25223,2.34148 4.61035,4.87433 5.4569,8.30453 a 22.633584,27.184718 0 0 1 0.50361,6.43982 c 0.42096,10.34126 5.09044,19.72224 10.3123,27.96006 a 26.251718,31.530381 0 0 0 5.08912,6.49395 22.088255,26.529735 0 0 0 8.78533,4.23705 c 5.94648,1.46093 12.0673,1.45351 18.1366,1.38096 6.2725,-0.075 12.65533,-0.23469 18.61763,-2.57576 a 16.553153,19.881641 0 0 0 7.86914,-5.86905 c 2.45269,-3.6177 3.40955,-8.85111 6.75536,-11.22107 a 12.277188,14.745871 0 0 0 2.28829,-1.64147 5.9357949,7.1293573 0 0 0 1.4019,-3.14279 40.531491,48.681514 0 0 0 1.91584,-13.56846 32.870313,39.479834 0 0 1 0.46596,-8.26138 23.38875,28.091731 0 0 1 2.50689,-6.83676 l 6.9335,-15.10328 c 0.56353,-1.22753 0.41731,-3.03374 0.4683,-4.43415 a 9.1034282,10.933934 0 0 0 -1.49124,-5.67043 40.278734,48.377932 0 0 0 -20.03538,-21.06472 8.2567122,9.9169618 0 0 1 -1.89238,-1.11359 7.786931,9.3527175 0 0 1 -1.73247,-2.48241 c -1.83958,-3.33023 -4.08737,-7.08183 -7.41026,-6.87381 z"
     fill="#d0cde1"
     id="path1176"
     style="stroke-width:1.1739;fill:#ff8080" />
  <path
     d="m 256.43006,322.08871 a 49.894703,59.927469 0 0 0 -2.99476,12.40319 25.087923,30.132571 0 0 0 2.26731,17.19373 c 3.73651,9.23796 11.09282,15.5035 16.28485,23.66393 4.82403,7.58206 7.69682,16.66989 11.87414,24.78688 -0.72849,-2.06626 0.15646,-4.45829 1.34856,-6.18604 1.19211,-1.72773 2.716,-3.16059 3.59009,-5.14371 a 12.486982,14.99785 0 0 0 1.10635,-4.86716 c 0.62355,-5.03314 0.96017,-10.50205 -1.17638,-14.89616 -1.60829,-3.30766 -4.38599,-5.50461 -6.58554,-8.27823 a 20.545908,24.677255 0 0 1 -5.20161,-21.36056 c 0.42346,-2.61658 1.202,-5.12856 1.78535,-7.70037 a 73.335254,88.081416 0 0 0 1.63609,-10.49821 l 2.62125,-21.62349 c 0.69719,-5.75128 1.28685,-12.11594 -1.42507,-16.92938 a 5.9049032,7.092254 0 0 0 -2.12756,-2.41767 7.6439979,9.1810436 0 0 0 -2.26397,-0.76574 c -2.85245,-0.55998 -6.71683,-2.06055 -8.10961,1.61088 -1.68095,4.43121 -2.8519,9.26155 -4.25907,13.83045 z"
     fill="#d0cde1"
     id="path1178"
     style="stroke-width:1.1739;fill:#ff8080" />
  <path
     d="m 356.33,333.92 c 0,0 -34.60248,8.03983 -42.75141,8.03983 h -14.5519 c 0,0 -5.23866,11.18588 -5.23866,22.37174 0,11.18586 -34.34236,167.788 -34.34236,167.788 0,0 -32.59615,128.63745 3.49244,129.33656 36.08859,0.6991 58.78941,2.79646 59.37157,-11.88493 0.58206,-14.68138 4.07451,-204.14206 4.07451,-204.14206 l 5.43316,97.41989 a 201.36056,241.8499 0 0 1 -4.62626,71.92374 c -2.60566,13.20927 -2.20141,27.69075 10.83459,30.60373 25.02926,5.59294 56.46125,0.69912 56.46125,-9.78762 0,-10.48674 -16.29815,-243.2926 -16.29815,-243.2926 0,0 -8.14903,-34.2567 -12.8056,-37.05321 C 360.72661,352.44656 356.33,333.92 356.33,333.92 Z"
     fill="#2f2e41"
     id="path1180"
     style="stroke-width:1.1739;fill:#deaa87" />
  <path
     d="m 247.80419,688.72168 12.80562,-5.59293 8.73111,-26.56644 9.31318,-1.39823 c 0,0 -5.23867,13.28322 -8.14903,15.38056 -2.91036,2.09735 -7.56696,19.57527 -7.56696,19.57527 0,0 2.32829,6.99117 -8.73111,9.78764 -11.05941,2.79647 -19.20844,4.89382 -19.20844,4.89382 0,0 -1.16415,-2.79647 4.07451,-9.78765 5.23867,-6.99117 11.35562,-18.7609 11.35562,-18.7609 z"
     fill="#2f2e41"
     id="path1182"
     style="stroke-width:1.1739" />
  <path
     d="m 326.38419,656.56229 -2.32833,20.9735 c 0,0 6.40285,11.18586 8.14903,11.18586 1.74617,0 11.05943,-9.78763 11.05943,-9.78763 0,0 -0.58206,-10.48675 0,-13.28321 0.58206,-2.79647 1.74617,-16.07968 0,-16.77881 -1.74629,-0.69912 -1.74629,15.5815 -1.74629,15.5815 l -7.56686,9.58671 -7.29608,-5.25432 z"
     fill="#2f2e41"
     id="path1184"
     style="stroke-width:1.1739" />
  <ellipse
     cx="328.42142"
     cy="191.30028"
     rx="22.700884"
     ry="14.681454"
     fill="#2f2e41"
     id="ellipse1186"
     style="stroke-width:1.1739" />
  <ellipse
     cx="306.4007"
     cy="693.65717"
     rx="123.71778"
     ry="30.544477"
     fill="#31ade0"
     opacity="0.1"
     id="ellipse5829-2"
     style="stroke-width:1.40921" />
</svg>
