<?xml version="1.0" encoding="UTF-8" standalone="no"?>
<svg
   xmlns:dc="http://purl.org/dc/elements/1.1/"
   xmlns:cc="http://creativecommons.org/ns#"
   xmlns:rdf="http://www.w3.org/1999/02/22-rdf-syntax-ns#"
   xmlns:svg="http://www.w3.org/2000/svg"
   xmlns="http://www.w3.org/2000/svg"
   xmlns:sodipodi="http://sodipodi.sourceforge.net/DTD/sodipodi-0.dtd"
   xmlns:inkscape="http://www.inkscape.org/namespaces/inkscape"
   id="fe80fb2b-bcaf-407e-919b-306adc32f78b"
   data-name="Layer 1"
   width="1032"
   height="741.75278"
   viewBox="0 0 1032 741.75278"
   version="1.1"
   sodipodi:docname="draw_list-doctor.svg"
   inkscape:version="1.0.2 (e86c8708, 2021-01-15)">
  <metadata
     id="metadata1004">
    <rdf:RDF>
      <cc:Work
         rdf:about="">
        <dc:format>image/svg+xml</dc:format>
        <dc:type
           rdf:resource="http://purl.org/dc/dcmitype/StillImage" />
        <dc:title>profile</dc:title>
      </cc:Work>
    </rdf:RDF>
  </metadata>
  <defs
     id="defs1002">
    <linearGradient
       id="ac3cc305-f6db-42f4-bbbd-32121ee27a74"
       x1="403.57001"
       y1="833.5"
       x2="403.57001"
       y2="218.16"
       gradientUnits="userSpaceOnUse"
       gradientTransform="translate(-241.85,-108.88719)">
      <stop
         offset="0"
         stop-color="gray"
         stop-opacity="0.25"
         id="stop2484" />
      <stop
         offset="0.54"
         stop-color="gray"
         stop-opacity="0.12"
         id="stop2486" />
      <stop
         offset="1"
         stop-color="gray"
         stop-opacity="0.1"
         id="stop2488" />
    </linearGradient>
  </defs>
  <sodipodi:namedview
     pagecolor="#ffffff"
     bordercolor="#666666"
     borderopacity="1"
     objecttolerance="10"
     gridtolerance="10"
     guidetolerance="10"
     inkscape:pageopacity="0"
     inkscape:pageshadow="2"
     inkscape:window-width="1680"
     inkscape:window-height="997"
     id="namedview1000"
     showgrid="false"
     inkscape:zoom="0.71545881"
     inkscape:cx="266.66765"
     inkscape:cy="384.14307"
     inkscape:window-x="0"
     inkscape:window-y="25"
     inkscape:window-maximized="1"
     inkscape:current-layer="fe80fb2b-bcaf-407e-919b-306adc32f78b" />
  <title
     id="title917">profile</title>
  <rect
     x="243"
     y="127.75278"
     width="737"
     height="499"
     rx="19.39764"
     fill="#f2f2f2"
     id="rect921" />
  <rect
     x="220.5"
     y="96.25278"
     width="737"
     height="499"
     rx="19.39764"
     fill="none"
     stroke="#3f3d56"
     stroke-miterlimit="10"
     id="rect923" />
  <line
     x1="220.5"
     y1="144.09298"
     x2="957.5"
     y2="144.09298"
     fill="none"
     stroke="#3f3d56"
     stroke-miterlimit="10"
     id="line925" />
  <rect
     x="661"
     y="256.25278"
     width="201"
     height="31"
     rx="7.09252"
     fill="#98c33e"
     opacity="0.3"
     id="rect927" />
  <rect
     x="622.5"
     y="342.25278"
     width="278"
     height="25"
     rx="7.09252"
     fill="#98c33e"
     opacity="0.3"
     id="rect929" />
  <rect
     x="622.5"
     y="410.25278"
     width="278"
     height="25"
     rx="7.09252"
     fill="#98c33e"
     opacity="0.3"
     id="rect931" />
  <rect
     x="622.5"
     y="478.25278"
     width="278"
     height="25"
     rx="7.09252"
     fill="#98c33e"
     opacity="0.3"
     id="rect933" />
  <rect
     x="671"
     y="246.25278"
     width="201"
     height="31"
     rx="7.09252"
     fill="none"
     stroke="#3f3d56"
     stroke-miterlimit="10"
     id="rect935" />
  <rect
     x="632.5"
     y="332.25278"
     width="278"
     height="25"
     rx="7.09252"
     fill="none"
     stroke="#3f3d56"
     stroke-miterlimit="10"
     id="rect937" />
  <rect
     x="632.5"
     y="400.25278"
     width="278"
     height="25"
     rx="7.09252"
     fill="none"
     stroke="#3f3d56"
     stroke-miterlimit="10"
     id="rect939" />
  <rect
     x="632.5"
     y="468.25278"
     width="278"
     height="25"
     rx="7.09252"
     fill="none"
     stroke="#3f3d56"
     stroke-miterlimit="10"
     id="rect941" />
  <circle
     cx="276.5"
     cy="126.25278"
     r="15"
     fill="#98c33e"
     opacity="0.3"
     id="circle943" />
  <circle
     cx="318.5"
     cy="126.25278"
     r="15"
     fill="#98c33e"
     opacity="0.3"
     id="circle945" />
  <circle
     cx="360.5"
     cy="126.25278"
     r="15"
     fill="#98c33e"
     opacity="0.3"
     id="circle947" />
  <circle
     cx="282.5"
     cy="120.25278"
     r="15"
     fill="none"
     stroke="#3f3d56"
     stroke-miterlimit="10"
     id="circle949" />
  <circle
     cx="324.5"
     cy="120.25278"
     r="15"
     fill="none"
     stroke="#3f3d56"
     stroke-miterlimit="10"
     id="circle951" />
  <circle
     cx="366.5"
     cy="120.25278"
     r="15"
     fill="none"
     stroke="#3f3d56"
     stroke-miterlimit="10"
     id="circle953" />
  <path
     d="M537.854,653.37916c-2.51135-11.56848-3.17724-27.36932-2.33252-38.36047,0,0-12.69836-55.78644-22.68994-60.99133l-.00305.003c-.153.19678-5.00195,6.55383-5.61706,26.22443-.62452,19.98284-7.69971,33.09655-7.69971,33.09655s2.28955,24.90766.98047,40.02777Z"
     transform="translate(-84.5 -79.12639)"
     fill="#98c33e"
     id="path955" />
  <path
     d="M630.22827,298.37916H399.77173A23.77169,23.77169,0,0,0,376,322.15083V629.6075a23.77168,23.77168,0,0,0,23.77173,23.77166h80.855c-2.7002-11.19934-6.057-28.69067-2.65735-40.85241l-.00159-.008.0022.00525c.15869-.56757.32727-1.12738.51611-1.67047a63.49747,63.49747,0,0,0,2.29175-24.35407,50.6095,50.6095,0,0,0,0-21.23175c-2.4978-11.65564-4.24634-23.10522-4.24634-23.10522s-1.377-15.40234-.1748-24.84424c.02661-.2074.05762-.404.08667-.60541-.42432-.09655-.66235-.15228-.66235-.15228s3.53881-16.02789,4.78759-26.22748c.29493-2.40783.683-5.46032,1.10315-8.71478a20.93993,20.93993,0,0,1-3.3927-.86035c-11.24035-3.9549-14.779-39.75751-14.779-39.75751V429.656s-3.74683-17.38092,9.36694-25.08258c12.62793-7.41644,17.66968-9.44617,18.02613-9.58643.09619-.06878.19018-.13128.28833-.20727a11.06127,11.06127,0,0,0,3.28967-4.23371q.02619-.42873.01233-.85211c-.21326-4.06665-3.04419-7.76507-5.73047-10.99225q-3.43653-4.12857-6.87341-8.25726a8.07194,8.07194,0,0,1-1.77027-2.86487,6.604,6.604,0,0,1-.187-1.80389q-.00275-.33691.004-.673.056-3.07836.16724-6.15545c.06445-1.79224.51562-4.05353,2.27075-4.42182.91284-.19159,2.12109.14246,2.60364-.65576a1.56534,1.56534,0,0,0,.11682-1.06054c-.00586.02661-.00733.05444-.015.0805-.00586-.03339-.01159-.06695-.01782-.09985a22.43656,22.43656,0,0,1-.65051-4.38636,5.84207,5.84207,0,0,1,.282-1.96984c1.01672-2.97516,4.51782-4.196,7.61133-4.75727,3.09375-.56134,6.56653-1.04425,8.5083-3.51709a26.9506,26.9506,0,0,1,1.68884-2.37384,6.62979,6.62979,0,0,1,3.16589-1.59674,17.49792,17.49792,0,0,1,11.50623,1.02118c1.49646.68286,2.99963,1.60248,4.64124,1.49841,1.70507-.108,3.16162-1.3081,4.84509-1.60009,2.71911-.47156,5.31872,1.56567,6.65869,3.97827a9.85108,9.85108,0,0,1,1.23279,5.02313,6.912,6.912,0,0,1-1.76416,4.74109c-1.17017,1.24145-2.91626,2.09418-3.4021,3.72955-.198.66565-.152,1.38257-.32691,2.05457-.02185.084-.05737.16241-.08606.24365.03211.04169.06714.08112.09888.123a21.231,21.231,0,0,1-10.33215,33.01928c-.00794.21058-.01624.42133-.01514.63306a9.173,9.173,0,0,0,2.8396,7.0647l18.54724,7.606s11.16565-1.3534,15.19495,15.30957a28.82628,28.82628,0,0,1,.68982,8.45746c-.14636,2.51251.19507,6.93573,3.05725,12.66,4.57934,9.15881,3.53857,30.18237-5.82837,32.26392-8.87231,1.97161-12.32361,1.14331-12.66382,1.05023l-.02014.3681c.14612,3.94489,1.55029,37.969,6.64758,42.086,1.40955,1.13849,1.14026,1.90753-.01635,2.42578l.0028.00336s.0094.21856.03113.612c.15308,2.48846.93994,11.96472,4.35254,17.357,3.956,6.24457,3.54077,42.25739,3.54077,42.25739l2.70386,21.23181s-1.66419,13.11371,0,15.4024c.94556,1.29785,2.09057,21.40351,2.905,38.56964h69.53027A23.77168,23.77168,0,0,0,654,629.6075V322.15083A23.77169,23.77169,0,0,0,630.22827,298.37916Z"
     transform="translate(-84.5 -79.12639)"
     fill="#98c33e"
     id="path957" />
  <rect
     x="267.5"
     y="192.25278"
     width="278"
     height="355"
     rx="23.77165"
     fill="none"
     stroke="#3f3d56"
     stroke-miterlimit="10"
     id="rect959" />
  <path
     d="M1019.38065,86.58377a22.982,22.982,0,0,0-19.80994,13.851c-4.9535,11.97382,1.42449,26.03885,10.999,34.77028s21.87358,13.72225,33.04831,20.28234c15.00952,8.81128,28.4968,21.04282,36.00691,36.74386s8.30888,35.15009-.51891,50.14991c-8.1937,13.9224-23.09255,22.2549-37.30219,29.9397"
     transform="translate(-84.5 -79.12639)"
     fill="none"
     stroke="#3f3d56"
     stroke-miterlimit="10"
     id="path987" />
  <ellipse
     cx="947.5"
     cy="8.5"
     rx="17.5"
     ry="8.5"
     fill="#98c33e"
     id="ellipse989" />
  <ellipse
     cx="961.5"
     cy="64.5"
     rx="17.5"
     ry="8.5"
     fill="#98c33e"
     id="ellipse991" />
  <ellipse
     cx="929.5"
     cy="73.5"
     rx="17.5"
     ry="8.5"
     fill="#98c33e"
     id="ellipse993" />
  <ellipse
     cx="979.5"
     cy="120.5"
     rx="17.5"
     ry="8.5"
     fill="#98c33e"
     id="ellipse995" />
  <ellipse
     cx="1014.5"
     cy="120.5"
     rx="17.5"
     ry="8.5"
     fill="#98c33e"
     id="ellipse997" />
  <ellipse
     cx="172.77"
     cy="716.39282"
     rx="97.440002"
     ry="15.65"
     fill="#31ade0"
     opacity="0.1"
     id="ellipse2496" />
  <path
     d="m 266.99,329.41281 c 0,0 -3.94,-0.55 -3.94,-6.29 0,-5.74 -2.82,-16.46 -2.82,-16.46 v 0 c 0,-0.05 -2.44,-18.67 -5.81,-21.63 -3.37,-2.96 -7.7,-20.34 -7.7,-20.34 0,0 -0.74,-9.43 -2.25,-11.46 -1.51,-2.03 -3.55,-7 -6.56,-14.09 -3.01,-7.09 -15.56,-12 -15.56,-12 0,0 -22.69,-13.16 -29.12,-17.45 v 0 a 9.86,9.86 0 0 1 -1.63,-1.23 c -1.12,-1.47 -6,-1.5 -6,-1.5 -0.51,-3.22 -1,-6.92 -1.16,-10.27 0,-0.36 0,-0.72 -0.05,-1.08 a 34.6,34.6 0 0 0 15.21,-18.82 c 0.12,-0.38 0.22,-0.78 0.33,-1.16 a 3.25,3.25 0 0 0 1.95,-1.76 c 0.58,-1.29 0.59,-2.8 1.31,-4 0.84,-1.42 2.44,-2.18 3.7,-3.25 3.18,-2.7 4,-7.25 3.85,-11.39 -0.1,-3.35 -0.64,-6.73 -0.43,-10.06 l 0.06,-0.84 c 0.06,-0.5 0.13,-1 0.22,-1.48 0.49,-2.48 1.56,-4.82 2.16,-7.28 0.6,-2.46 0.66,-5.23 -0.74,-7.35 -2.05,-3.11 -6.32,-3.73 -10.07,-4.05 -4.25,-0.36 -8.05,0.11 -10.77,-3.42 a 38.39,38.39 0 0 0 -4.28,-5.17 c -0.56,-0.52 -6,-3.84 -6,-4.06 a 24.31,24.31 0 0 0 -16.95,-1.3 c -2.82,0.82 -5.48,2.16 -8.34,2.83 -6.17,1.46 -13.27,-0.12 -18.51,3.41 -2.92,2 -4.67,5.18 -6.31,8.28 q -2,3.83 -4.06,7.65 c -2.21,4.19 -4.46,8.45 -5.39,13.09 a 20.78,20.78 0 0 0 -0.36,3.06 v 0 0.05 c 0,0.37 0,0.74 0,1.11 v 0.47 c 0,0.35 0,0.69 0.06,1 0.06,0.31 0.05,0.41 0.08,0.62 0.03,0.21 0.08,0.68 0.14,1 0.06,0.32 0.18,0.88 0.3,1.32 0.05,0.19 0.12,0.37 0.18,0.55 0.1,0.34 0.22,0.67 0.35,1 0.07,0.17 0.14,0.35 0.22,0.52 0.15,0.35 0.33,0.69 0.51,1 0.08,0.14 0.14,0.27 0.22,0.4 a 13.27,13.27 0 0 0 0.92,1.34 c 2.14,2.67 5.29,4.37 7.62,6.87 0,0.1 0,0.2 0,0.29 0,0.28 0,0.55 0,0.83 a 34.23,34.23 0 0 0 15.58,27.95 c 0,0.38 0.05,0.77 0.07,1.15 a 57.22,57.22 0 0 1 -0.11,8.91 4.2,4.2 0 0 0 -3.32,-1.48 4.79,4.79 0 0 0 -1.28,0.11 l -0.09,-0.07 v 0 0.09 c -2.2,0.54 -4.91,2.83 -7.5,9.34 0,0 -7.88,8.88 -13.88,8.51 -6,-0.37 -21.189996,9.24 -21.189996,9.24 0,0 -14.82,9.62 -18,19.42 a 136.86,136.86 0 0 1 -6.38,16.28 l -18.32,37.75 v 0 l -3.38,29.95 c 0,0 1.87,13.32 1.5,15.35 -0.37,2.03 7.69,20.34 7.69,20.34 0,0 26.63,46.79 37.509996,49.19 l 0.78,-0.55 a 6.38,6.38 0 0 0 1.47,0.55 l 2.24,-1.58 a 24.41,24.41 0 0 1 -0.17,5.28 c -1.5,4.62 0.56,34.77 3.18,40.68 2.62,5.91 1.69,83.4 1.69,83.4 l -0.37,6.84 c 0,0 0,0.22 0.09,0.6 l -0.09,1.62 0.27,0.14 a 19.26,19.26 0 0 1 -0.27,6.51 c -0.94,3 -1.32,11.48 -1.32,11.48 0,0 -7.49,47.87998 -3.94,57.49998 3.55,9.62 6.57,20.16 6.57,20.16 0,0 3.75,12 0.18,14.05 -3.57,2.05 -13.719996,5.49 -11.629996,10.49 1.899996,4.62 9.109996,17 10.179996,18.81 l -0.09,0.95 -1.47,15.93 a 20,20 0 0 0 1.69,6.08 c 1.61,3.47 4.74,7.07 10.69,6.68 1,-0.07 2.16,-0.19 3.28,-0.34 10.89,-1.46 24.3,-6.32 24.3,-6.32 a 9.91,9.91 0 0 1 -1.9,-1.57 v 0 a 5.49,5.49 0 0 1 -1.67,-4 c 0.16,-2.9 -5.27,-16.72 -6.62,-20.12 -0.21,-0.49 -0.32,-0.77 -0.32,-0.77 0,0 12.38,-12.94 10.32,-24.41 0,0 -13.7,-8 -9.19,-12.39 4.51,-4.39 12.57,-17 12.57,-17 0,0 0.37,-47.14998 0,-54.18998 a 58.3,58.3 0 0 1 0.69,-14.63 c 0.15,-0.73 0.33,-1.44 0.52,-2.14 a 130.55,130.55 0 0 0 18.84,1.43 c 2.3,0 4.64,0 7,-0.14 q 0,1 0.09,2.16 c 0.52,11.68 1.49,32.15998 2.28,39.76998 1.12,10.91 7.31,40.31 7.31,40.31 0,0 -11.81,7.58 2.06,26.26 0,0 0,6.77 -0.92,7.75 v 0 a 84.78,84.78 0 0 0 -2.37,9.76 c -0.58,3.52 -0.82,7.08 0.12,8.93 2.25,4.42 15.75,4.06 15.75,4.06 v 0 l 0.33,-0.06 a 19.35,19.35 0 0 1 14.29,4.31 c 5.13,4.12 24.6,2.31 35.14,1 4.13,-0.52 6.89,-1 6.89,-1 a 4,4 0 0 0 0.14,-1.44 v 0 c -0.11,-2.59 -2.14,-8.27 -15.9,-13.34 0,0 -12.94,-8.7 -12.76,-16.28 h -0.27 -1.5 c 1.09,-0.06 1.79,0 1.79,0 0,0 -5.07,-18.5 -3,-20 2.07,-1.5 -4.13,-22 -4.13,-22 0,0 -3.55,-34.4 -3.74,-36.81 a 21,21 0 0 1 0.93,-6.09998 l -0.93,-18.86 c 0,0 -0.18,-6.27 0,-8.31 a 41.5,41.5 0 0 0 -0.43,-5.29 c -0.09,-0.7 -0.18,-1.43 -0.28,-2.15 4.85,-1.23 8,-2.37 8,-2.37 l -0.56,-65.65 c 4.12,-8 4.88,-25.55 4.86,-38 0,-8 -0.36,-13.92 -0.36,-13.92 l 5.63,-9.19 c 0,0 1.3,-11 -0.76,-13.41 -0.91,-1.09 -0.5,-2.22 0.25,-3.15 a 10.46,10.46 0 0 1 1.23,-0.84 c 0,0 -0.06,-0.09 -0.13,-0.22 a 9.94,9.94 0 0 1 1.25,-0.89 c 0,0 -2,-3.1 -0.21,-4.41 1.68,1.14 3.18,2 4.32,2.7 -0.08,0.73 -0.16,1.15 -0.16,1.15 l 0.48,-1 c 1.1,0.62 1.77,1 1.77,1 0,0 8.82,-17.57 8.63,-20.16 -0.19,-2.59 6,-13.5 6,-13.5 0,0 0.75,-5.73 4.13,-8.13 3.38,-2.4 2.62,-19.79 2.62,-19.79 0,0 0.94,-9.06 3.19,-12.76 2.25,-3.7 -2.05,-8.69 -2.05,-8.69 z m -168.759996,-7.71 0.17,4.19 c -1,-1.61 -1.72,-2.77 -1.72,-2.77 z"
     fill="url(#ac3cc305-f6db-42f4-bbbd-32121ee27a74)"
     id="path2608"
     style="fill:url(#ac3cc305-f6db-42f4-bbbd-32121ee27a74)" />
  <path
     d="m 244.95,404.85281 -2.16,9.2 c 0,0 -17.3,-8.83 -20.42,-20.05 -3.12,-11.22 5.22,-15.48 5.22,-15.48 l 16.12,6.83 z"
     fill="#ffffff"
     id="path2610" />
  <path
     d="m 244.95,404.85281 -2.16,9.2 c 0,0 -17.3,-8.83 -20.42,-20.05 -3.12,-11.22 5.22,-15.48 5.22,-15.48 l 16.12,6.83 z"
     opacity="0.1"
     id="path2612" />
  <path
     d="m 147.86,717.96279 c 0,0 -16,5.88 -27,6.62 -5.84,0.39 -8.91,-3.19 -10.49,-6.64 a 20.1,20.1 0 0 1 -1.65,-6.05 l 1.43,-15.85 0.76,-8.44 23.37,-6.07 3.31,10.12 0.31,0.77 c 1.33,3.38 6.66,17.13 6.5,20 a 5.46,5.46 0 0 0 1.64,3.95 9.51,9.51 0 0 0 1.82,1.59 z"
     fill="#ffffff"
     id="path2614" />
  <path
     d="m 257.15,709.90279 a 4,4 0 0 1 -0.14,1.43 c 0,0 -34.22,5.71 -41.22,0 a 18.54,18.54 0 0 0 -14.4,-4.22 c 0,0 -13.24,0.36 -15.45,-4 -0.92,-1.83 -0.68,-5.38 -0.11,-8.88 a 84.59,84.59 0 0 1 2.32,-9.71 l 0.53,-0.42 3.15,-2.53 36.88,-1.09 h 0.28 c -0.18,7.54 12.52,16.19 12.52,16.19 13.49,5 15.48,10.65 15.64,13.23 z"
     fill="#ffffff"
     id="path2616" />
  <path
     d="m 257.15,709.90279 a 4.08,4.08 0 0 1 -0.15,1.43 c 0,0 -34.21,5.71 -41.21,0 a 18.54,18.54 0 0 0 -14.39,-4.22 c 0,0 -13.25,0.36 -15.45,-4 -0.92,-1.84 -0.69,-5.38 -0.12,-8.88 5.1,0.51 13.15,1.78 16.31,4.81 4.78,4.61 12.88,9.21 17.85,9.57 3.89,0.25 27.16,0.99 37.16,1.29 z"
     opacity="0.1"
     id="path2618" />
  <path
     d="m 147.86,717.96279 c 0,0 -16,5.88 -27,6.62 -5.84,0.39 -8.91,-3.19 -10.48,-6.65 4.07,1.37 9.72,2.81 12.69,1.49 3.52,-1.56 16,-2.57 23,-3 a 9.85,9.85 0 0 0 1.79,1.54 z"
     opacity="0.1"
     id="path2620" />
  <path
     d="m 171.6,244.11281 c -13.2,-5.13 -30.18,-22.08 -25.94,-30 a 17.72,17.72 0 0 0 1.65,-6.36 58.07,58.07 0 0 0 0.12,-9 123.25,123.25 0 0 0 -1.77,-14.64 c 0,0 41.21,0.93 38.81,7 -0.7,1.78 -0.81,4.87 -0.62,8.33 0.19,3.46 0.69,7.37 1.21,10.68 0.72,4.54 1.44,8 1.44,8 0,0 -2.52,3.53 -4,3.72 -1.48,0.19 8.04,29.58 -10.9,22.27 z"
     fill="#cf6f80"
     id="path2622" />
  <path
     d="m 137.87,692.42279 -0.31,0.34 c -12.32,-14.9 -27.22,3.67 -27.22,3.67 l -0.22,-0.39 0.76,-8.44 23.37,-6.07 3.31,10.12 z"
     opacity="0.1"
     id="path2624" />
  <path
     d="m 229,681.53279 c 0,0 -9,-0.19 -13.8,4.05 -4.8,4.24 -28,0.92 -27,0 a 3.29,3.29 0 0 0 0.52,-1.52 l 3.15,-2.53 36.88,-1.09 c 0.14,0.67 0.25,1.09 0.25,1.09 z"
     opacity="0.1"
     id="path2626" />
  <path
     d="m 153.2,564.52281 a 27.82,27.82 0 0 0 -1.52,5.13 58.71,58.71 0 0 0 -0.69,14.56 c 0.37,7 0,53.90998 0,53.90998 0,0 -7.91,12.51 -12.32,16.92 -4.41,4.41 9,12.33 9,12.33 2,11.4 -10.12,24.28 -10.12,24.28 -12.32,-14.9 -27.22,3.68 -27.22,3.68 0,0 -8.1,-14 -10.12,-19 -2.019996,-5 7.91,-8.46 11.4,-10.49 3.49,-2.03 -0.17,-14 -0.17,-14 0,0 -2.95,-10.49 -6.45,-20.06 -3.5,-9.57 3.86,-57.20998 3.86,-57.20998 0,0 0.38,-8.46 1.29,-11.41 a 19.08,19.08 0 0 0 0.27,-6.48 c -0.06,-0.73 -0.13,-1.34 -0.18,-1.75 -0.05,-0.41 -0.09,-0.6 -0.09,-0.6 l 0.14,-0.24 5,-9.32 c 0,0 40.32,13.88 37.92,19.75 z"
     fill="#31ade0"
     id="path2628"
     style="fill:#98c33e;fill-opacity:1" />
  <path
     d="m 229,680.43279 c 0,0 -9,-0.19 -13.8,4 -4.8,4.19 -28,0.92 -27,0 1,-0.92 0.92,-7.73 0.92,-7.73 -13.61,-18.58 -2,-26.12 -2,-26.12 0,0 -6.08,-29.25 -7.18,-40.1 -0.77,-7.58 -1.72,-27.94998 -2.23,-39.57998 -0.22,-5 -0.35,-8.44 -0.35,-8.44 l 11.12,-2.24 1.43,-0.29 26.82,-5.38 c 0,0 0.74,5 1.24,9.09 a 42.48,42.48 0 0 1 0.42,5.27 c -0.18,2 0,8.26 0,8.26 l 0.91,18.76998 a 21.32,21.32 0 0 0 -0.91,6.07 c 0.18,2.39 3.67,36.61 3.67,36.61 0,0 6.07,20.42 4,21.89 -2.07,1.47 2.94,19.92 2.94,19.92 z"
     fill="#31ade0"
     id="path2630"
     style="fill:#98c33e;fill-opacity:1" />
  <path
     d="m 184.47,191.11281 c -0.7,1.78 -0.81,4.87 -0.62,8.33 a 34.25,34.25 0 0 1 -36.42,-0.68 123.25,123.25 0 0 0 -1.77,-14.65 c 0,0 41.21,0.91 38.81,7 z"
     opacity="0.1"
     id="path2632" />
  <path
     d="m 200.4,169.01281 a 33.87,33.87 0 0 1 -1.68,10.61 34.22,34.22 0 0 1 -66.74,-9.79 c 0,-0.28 0,-0.54 0,-0.82 a 34.22,34.22 0 1 1 68.43,0 z"
     fill="#cf6f80"
     id="path2634" />
  <path
     d="m 171.6,244.11281 c -13.2,-5.13 -30.18,-22.08 -25.94,-30 a 17.72,17.72 0 0 0 1.65,-6.36 l 18.07,14.85 11.18,9.17 8.5,-21.64 c 0.72,4.54 1.44,8 1.44,8 0,0 -2.52,3.53 -4,3.72 -1.48,0.19 8.04,29.57 -10.9,22.26 z"
     opacity="0.1"
     id="path2636" />
  <polygon
     points="379.93,261.93 396.2,276.11 412.94,360 397.85,613.5 378.17,614.79 327.21,467.8 335.57,293.29 337.33,256.42 359.99,275.03 371.18,284.2 "
     fill="#31ade0"
     id="polygon2638"
     transform="translate(-194.61,-50.257197)"
     style="fill:#98c33e;fill-opacity:1" />
  <path
     d="m 153.2,564.52281 a 27.82,27.82 0 0 0 -1.52,5.13 145,145 0 0 1 -41.26,-12.89 l -0.27,-0.14 0.09,-1.61 0.05,-0.84 5,-9.32 c 0,0 40.31,13.8 37.91,19.67 z"
     opacity="0.1"
     id="path2640" />
  <path
     d="m 188.71,569.69281 a 101.24,101.24 0 0 1 -11.06,1.26 c -0.22,-5 -0.35,-8.44 -0.35,-8.44 l 11.12,-2.24 z"
     opacity="0.1"
     id="path2642" />
  <path
     d="m 217.91,563.69281 c -7.11,1.85 -18.09,3.93 -27.92,2.63 l -0.14,-6.34 26.82,-5.38 c 0,0 0.74,4.95 1.24,9.09 z"
     opacity="0.1"
     id="path2644" />
  <path
     d="m 189.81,567.48281 c -41,7 -78.55,-13.07 -78.55,-13.07 l 0.36,-6.8 c 0,0 0.93,-77.09 -1.65,-83 -2.58,-5.91 -4.59,-35.88 -3.13,-40.48 1.46,-4.6 -5.33,-73.58 -5.33,-73.58 l -1.1,-28 -40.259996,-16.31 18,-37.52 a 135.39,135.39 0 0 0 6.26,-16.2 c 3.13,-9.74 17.659996,-19.31 17.659996,-19.31 0,0 14.9,-9.56 20.79,-9.2 5.89,0.36 13.61,-8.46 13.61,-8.46 5.7,-14.53 10.86,-7.95 10.86,-7.95 0,0.69 0,0 -0.28,2.15 -2,15.95 32.34,66.35 32.83,67.24 v 0 l 3.27,79.66 3.31,100.81 z"
     opacity="0.1"
     id="path2646" />
  <path
     d="m 188.71,567.48281 c -41,7 -78.56,-13.07 -78.56,-13.07 l 0.37,-6.8 c 0,0 0.93,-77.09 -1.66,-83 -2.59,-5.91 -4.59,-35.88 -3.12,-40.48 1.47,-4.6 -5.33,-73.58 -5.33,-73.58 l -1.109996,-28 -40.28,-16.37 18,-37.52 a 137.51,137.51 0 0 0 6.26,-16.2 c 3.12,-9.74 17.659996,-19.31 17.659996,-19.31 0,0 14.9,-9.56 20.78,-9.2 5.88,0.36 13.61,-8.46 13.61,-8.46 5.71,-14.53 12,-7.95 12,-7.95 0,0.69 -0.6,1 -0.28,2.15 4.4,15.47 31.24,66.35 31.73,67.24 v 0 l 3.31,79.66 3.31,100.81 z"
     fill="#ffffff"
     id="path2648" />
  <path
     d="m 177.66,279.20281 c -4.41,-1.84 -27.77,-28.51 -27.77,-28.51 v -6.07 c -0.85,-2 -5.9,-0.78 -10,0.62 l 1.76,-36.87 2,1.66 c 4.38,15.46 33.5,68.28 34.01,69.17 z"
     opacity="0.1"
     id="path2650" />
  <path
     d="m 178.77,276.99281 c -4.42,-1.84 -27.78,-28.51 -27.78,-28.51 v -6.07 c -0.85,-2 -5.9,-0.78 -10,0.62 l 1.77,-36.87 2,1.66 c 4.39,15.46 33.52,68.29 34.01,69.17 z"
     fill="#ffffff"
     id="path2652" />
  <path
     d="m 111.26,410.00281 c 0.55,0 28.51,-2.94 28.51,-2.94 0,0 16.93,33.29 15.82,41.39 -1.11,8.1 -3.12,15.27 -9.93,14 -6.81,-1.27 -36.65,1 -36.65,1 z"
     opacity="0.1"
     id="path2654" />
  <path
     d="m 110.15,407.79281 c 0.55,0 28.51,-2.94 28.51,-2.94 0,0 16.92,33.3 15.82,41.39 -1.1,8.09 -3.13,15.27 -9.93,14 -6.8,-1.27 -36.65,1 -36.65,1 z"
     fill="#ffffff"
     id="path2656" />
  <path
     d="m 131.22,392.16281 c 0,0 25.66,13.79 26.21,18 0.55,4.21 -13.06,-1.84 -16,-2.57 a 36.61,36.61 0 0 0 -5.89,-0.92 l -19.61,0.53 z"
     fill="#cf6f80"
     id="path2658" />
  <circle
     cx="170.49998"
     cy="278.22281"
     r="2.7"
     opacity="0.1"
     id="circle2660" />
  <circle
     cx="170.49998"
     cy="277.12283"
     r="2.7"
     fill="#3f3d56"
     id="circle2662" />
  <circle
     cx="175.46999"
     cy="395.10281"
     r="2.7"
     opacity="0.1"
     id="circle2664" />
  <circle
     cx="175.46999"
     cy="393.99283"
     r="2.7"
     fill="#3f3d56"
     id="circle2666" />
  <circle
     cx="173.18997"
     cy="336.66281"
     r="2.7"
     opacity="0.1"
     id="circle2668" />
  <circle
     cx="173.18997"
     cy="335.56284"
     r="2.7"
     fill="#3f3d56"
     id="circle2670" />
  <path
     d="m 235.43,406.11281 c 0,0 1.84,2.76 0,4.05 -1.84,1.29 0.18,4.41 0.18,4.41 0,0 -4.59,2.69 -2.57,5.11 2.02,2.42 0.74,13.35 0.74,13.35 l -5.52,9.14 c 0,0 0.33,5.89 0.35,13.85 0,12.42 -0.73,29.88 -4.77,37.84 l 0.56,65.31 c 0,0 -19.33,7.06 -35.51,4.91 l -2.4,-104.8 c 0,0 3.5,-59.43 4.79,-70.83 a 118.68,118.68 0 0 0 0.92,-17.85 c 0,0 -0.55,-17.84 -2.4,-26.12 0,0 -2,-35.87 -2.2,-45.8 -0.09,-4.75 0.16,-18.61 0.44,-31.79 0.31,-14.41 0.66,-28 0.66,-28 l -3.65,-28.88 c 0,0 3.65,-0.37 4.75,1.1 a 10.53,10.53 0 0 0 1.6,1.23 v 0 c 6.3,4.26 28.56,17.36 28.56,17.36 0,0 12.32,4.9 15.27,11.92 2.95,7.02 5,12 6.43,14 1.43,2 2.21,11.4 2.21,11.4 0,0 4.24,17.3 7.55,20.23 3.31,2.93 5.73,21.57 5.73,21.57 l -29.25,23 c 0,0 -2.57,38.26 -3.12,39.74 -0.55,1.48 10.65,34.55 10.65,34.55 z"
     fill="#ffffff"
     id="path2672" />
  <path
     d="m 236.54,406.11281 c 0,0 1.83,2.76 0,4.05 -1.83,1.29 0.17,4.41 0.17,4.41 0,0 -4.56,2.72 -2.56,5.14 2,2.42 0.74,13.35 0.74,13.35 l -5.52,9.14 c 0,0 0.33,5.89 0.36,13.85 0,12.42 -0.73,29.88 -4.77,37.84 l 0.55,65.31 c 0,0 -19.36,7.06 -35.52,4.91 l -2.39,-104.8 c 0,0 3.5,-59.43 4.79,-70.83 a 117.58,117.58 0 0 0 0.91,-17.85 c 0,0 -0.55,-17.84 -2.39,-26.12 0,0 -2,-35.87 -2.21,-45.8 -0.09,-4.75 0.17,-18.61 0.44,-31.79 0.31,-14.41 0.66,-28 0.66,-28 l -4.82,-29.27 c 0,0 4.82,0 5.93,1.49 a 9.49,9.49 0 0 0 1.6,1.23 v 0 c 6.3,4.26 28.57,17.36 28.57,17.36 0,0 12.31,4.9 15.26,11.92 2.95,7.02 5,12 6.44,14 1.44,2 2.2,11.4 2.2,11.4 0,0 4.24,17.3 7.55,20.23 3.31,2.93 5.7,21.53 5.7,21.53 l -29.25,23 c 0,0 -2.57,38.26 -3.13,39.74 -0.56,1.48 10.69,34.56 10.69,34.56 z"
     fill="#ffffff"
     id="path2674" />
  <path
     d="m 201.51,247.41281 2.64,7.7 -13.9,14 c 0.31,-14.4 0.66,-28 0.66,-28 l -4.82,-29.27 c 0,0 4.82,0 5.93,1.49 a 9.12,9.12 0 0 0 1.6,1.22 v 0 l 11.82,34.1 z"
     opacity="0.1"
     id="path2676" />
  <path
     d="m 200.4,245.20281 2.65,7.7 -13.9,14 c 0.31,-14.41 0.66,-28 0.66,-28 l -4.83,-29.27 c 0,0 4.83,0 5.93,1.49 a 10,10 0 0 0 1.6,1.23 v 0 l 11.83,34.09 z"
     fill="#ffffff"
     id="path2678" />
  <path
     d="m 200.4,169.01281 a 33.87,33.87 0 0 1 -1.68,10.61 1.43,1.43 0 0 1 -1.08,-0.27 c -0.26,-9 -4.69,-17.45 -10.14,-24.64 a 25.89,25.89 0 0 0 -5.5,-5.7 10.76,10.76 0 0 0 -7.46,-2.11 c -3,0.41 -5.65,2.45 -8.68,2.71 -4,0.33 -7.58,-2.44 -11.55,-2.58 a 11.35,11.35 0 0 0 -8.49,3.94 23.29,23.29 0 0 0 -4.55,8.44 49.38,49.38 0 0 0 -2.54,14.56 c -0.05,2.8 -0.32,6.31 -2.92,7.33 a 14.94,14.94 0 0 0 -3.77,-11.41 l -0.06,-0.06 c 0,-0.28 0,-0.54 0,-0.82 a 34.22,34.22 0 1 1 68.43,0 z"
     opacity="0.1"
     id="path2680" />
  <path
     d="m 180.36,114.68281 a 23.56,23.56 0 0 0 -16.62,-1.3 c -2.77,0.82 -5.38,2.15 -8.19,2.82 -6,1.45 -13,-0.12 -18.15,3.39 -2.86,2 -4.58,5.16 -6.18,8.23 l -4,7.62 c -2.18,4.17 -4.38,8.41 -5.29,13 -0.91,4.59 -0.36,9.73 2.55,13.42 2.12,2.69 5.25,4.38 7.55,6.91 a 15,15 0 0 1 3.76,11.4 c 2.61,-1 2.86,-4.52 2.92,-7.32 a 49.38,49.38 0 0 1 2.54,-14.56 23.21,23.21 0 0 1 4.55,-8.44 11.37,11.37 0 0 1 8.49,-3.94 c 4,0.14 7.59,2.9 11.55,2.57 3,-0.25 5.66,-2.3 8.68,-2.7 a 10.72,10.72 0 0 1 7.46,2.11 25.62,25.62 0 0 1 5.49,5.7 c 5.46,7.19 9.89,15.62 10.15,24.64 1.13,0.83 2.76,-0.25 3.32,-1.53 0.56,-1.28 0.58,-2.78 1.29,-4 0.82,-1.41 2.39,-2.16 3.62,-3.22 3.12,-2.69 3.9,-7.22 3.78,-11.33 -0.12,-4.11 -0.92,-8.28 -0.14,-12.32 0.47,-2.48 1.53,-4.8 2.11,-7.25 0.58,-2.45 0.65,-5.2 -0.72,-7.31 -2,-3.1 -6.21,-3.71 -9.88,-4 -4.17,-0.36 -7.9,0.1 -10.56,-3.41 a 38.3,38.3 0 0 0 -4.2,-5.14 c -0.53,-0.52 -5.88,-3.82 -5.88,-4.04 z"
     fill="#512e4e"
     id="path2682" />
  <path
     d="m 71.670004,325.56281 -10.45,-19.32 -3.31,29.81 c 0,0 1.84,13.24 1.47,15.27 -0.37,2.03 7.54,20.23 7.54,20.23 0,0 26.13,46.54 36.799996,48.94 l 36.05,-25.76 -9.56,-12.14 c 0,0 -3.31,-1.29 -4.14,0 0,0 -17.75,-30.54 -19.59,-32.75 -1.84,-2.21 -1.48,-6.62 -1.48,-6.62 0,0 -2.76,-2.94 -1.84,-5.7 0.92,-2.76 -5.329996,-12.33 -5.329996,-12.33 l 5.699996,-5.33 z"
     opacity="0.1"
     id="path2684" />
  <path
     d="m 61.770004,304.04281 -2.76,2.2 -3.31,29.81 c 0,0 1.84,13.24 1.47,15.27 -0.37,2.03 7.55,20.23 7.55,20.23 0,0 26.12,46.54 36.789996,48.94 l 36.06,-25.76 -9.57,-12.14 c 0,0 -3.31,-1.29 -4.14,0 0,0 -17.75,-30.54 -19.59,-32.75 -1.84,-2.21 -1.47,-6.62 -1.47,-6.62 0,0 -2.76,-2.94 -1.84,-5.7 0.92,-2.76 -5.339996,-12.33 -5.339996,-12.33 l 5.699996,-5.33 z"
     fill="#ffffff"
     id="path2686" />
  <path
     d="m 233.04,420.82281 c 2,2.43 0.74,13.34 0.74,13.34 l -5.52,9.14 c 0,0 0.33,5.9 0.35,13.85 l -9.28,2.9 a 5.51,5.51 0 0 1 -7.15,-5.43 l 1.6,-51.61 21.65,8.28 c -1.84,1.28 0.18,4.42 0.18,4.42 0,0 -4.59,2.68 -2.57,5.11 z"
     opacity="0.1"
     id="path2688" />
  <path
     d="m 234.15,419.71281 c 2,2.43 0.74,13.35 0.74,13.35 l -5.52,9.14 c 0,0 0.33,5.89 0.36,13.85 l -9.45,2.95 a 5.4,5.4 0 0 1 -7,-5.32 l 1.61,-51.77 21.66,8.28 c -1.85,1.28 0.17,4.41 0.17,4.41 0,0 -4.57,2.69 -2.57,5.11 z"
     fill="#ffffff"
     id="path2690" />
  <path
     d="m 241.32,395.11281 c 0,0 -1.47,9.39 -5.15,9.94 -3.68,0.55 -5.33,15.19 -9,14.67 -3.67,-0.52 -1.24,-13.61 -1.11,-16.15 0.13,-2.54 -4,-13.06 -0.91,-15.45 3.09,-2.39 12.87,0 12.87,0 z"
     fill="#cf6f80"
     id="path2692" />
  <path
     d="m 249.15,322.80281 6.94,-14 c 0,0 2.76,10.67 2.76,16.37 0,5.7 3.86,6.26 3.86,6.26 0,0 4.23,5 2,8.64 -2.23,3.64 -3.13,12.7 -3.13,12.7 0,0 0.73,17.29 -2.58,19.68 -3.31,2.39 -4,8.1 -4,8.1 0,0 -6.08,10.85 -5.89,13.43 0.19,2.58 -8.46,20.05 -8.46,20.05 0,0 4.23,-21.71 -20.42,-31.09 0,0 -0.19,-7.37 1.65,-9.39 1.84,-2.02 4.71,-2.94 2.91,-13.15 -1.8,-10.21 -0.52,-22.41 -0.52,-24.86 0,-2.45 5.52,-17.73 5.52,-17.73 z"
     opacity="0.1"
     id="path2694" />
  <path
     d="m 252.15,306.80281 6.06,2 c 0,0 2.77,10.67 2.77,16.37 0,5.7 3.86,6.26 3.86,6.26 0,0 4.23,5 2,8.64 -2.23,3.64 -3.12,12.7 -3.12,12.7 0,0 0.73,17.29 -2.58,19.68 -3.31,2.39 -4.05,8.1 -4.05,8.1 0,0 -6.07,10.85 -5.88,13.43 0.19,2.58 -8.47,20.05 -8.47,20.05 0,0 4.24,-21.71 -20.42,-31.09 0,0 -0.18,-7.37 1.66,-9.39 1.84,-2.02 4.71,-2.94 2.91,-13.15 -1.8,-10.21 -0.52,-22.41 -0.52,-24.86 0,-2.45 5.52,-17.73 5.52,-17.73 z"
     fill="#ffffff"
     id="path2696" />
  <path
     d="m 118.3,669.67279 c 0,0 9.66,-6.07 16,-1.66 6.34,4.41 -16,1.66 -16,1.66 z"
     opacity="0.1"
     id="path2698" />
  <path
     d="m 193.36,650.90279 c 0,0 8.55,-1.1 15.73,6.63 7.18,7.73 -15.73,-6.63 -15.73,-6.63 z"
     opacity="0.1"
     id="path2700" />
  <g
     opacity="0.1"
     id="g2708"
     transform="translate(-194.61,-50.257197)">
    <path
       d="m 447.72,276.18 c -1.23,1.06 -2.81,1.82 -3.63,3.23 -0.7,1.21 -0.72,2.7 -1.28,4 -0.56,1.3 -2.19,2.36 -3.32,1.54 -0.26,-9 -4.7,-17.45 -10.15,-24.65 a 25.62,25.62 0 0 0 -5.49,-5.7 10.75,10.75 0 0 0 -7.47,-2.11 c -3,0.41 -5.64,2.45 -8.67,2.7 -4,0.34 -7.59,-2.43 -11.56,-2.57 a 11.32,11.32 0 0 0 -8.48,3.95 23.16,23.16 0 0 0 -4.55,8.43 49.44,49.44 0 0 0 -2.54,14.56 c -0.06,2.79 -0.32,6.27 -2.9,7.31 a 13.7,13.7 0 0 1 0,2.22 c 2.6,-1 2.86,-4.52 2.92,-7.32 a 49.38,49.38 0 0 1 2.54,-14.56 23.21,23.21 0 0 1 4.55,-8.44 11.35,11.35 0 0 1 8.48,-3.94 c 4,0.14 7.6,2.9 11.56,2.57 3,-0.25 5.66,-2.3 8.67,-2.7 a 10.75,10.75 0 0 1 7.47,2.11 25.62,25.62 0 0 1 5.49,5.7 c 5.45,7.19 9.89,15.62 10.15,24.64 1.13,0.83 2.76,-0.25 3.32,-1.53 0.56,-1.28 0.58,-2.78 1.28,-4 0.82,-1.41 2.4,-2.16 3.63,-3.22 3.12,-2.69 3.9,-7.22 3.78,-11.33 0,-0.13 0,-0.26 0,-0.38 -0.19,3.56 -1.14,7.19 -3.8,9.49 z"
       transform="translate(-47.24,-58.63)"
       id="path2702" />
    <path
       d="m 373.9,275.47 c -2.3,-2.53 -5.44,-4.22 -7.55,-6.9 a 14.64,14.64 0 0 1 -2.91,-8.19 15.4,15.4 0 0 0 2.91,10.39 c 2.11,2.69 5.25,4.38 7.55,6.91 a 15,15 0 0 1 3.77,8.92 15,15 0 0 0 -3.77,-11.13 z"
       transform="translate(-47.24,-58.63)"
       id="path2704" />
    <path
       d="m 453.47,245.28 c -0.59,2.45 -1.64,4.78 -2.12,7.25 a 23.1,23.1 0 0 0 -0.31,5 19.42,19.42 0 0 1 0.31,-2.84 c 0.48,-2.48 1.53,-4.8 2.12,-7.25 a 12.3,12.3 0 0 0 0.33,-4.14 13.9,13.9 0 0 1 -0.33,1.98 z"
       transform="translate(-47.24,-58.63)"
       id="path2706" />
  </g>
  <path
     d="m 210.6184,266.0108 a 4.8645199,3.4890372 0 0 1 -2.1053,-0.33746 c -1.81024,-0.62346 -2.98251,-2.02479 -3.50087,-4.16969 -0.96492,-4.00381 -4.23451,-31.80172 0.62202,-34.77598 a 2.727321,1.9561487 0 0 1 2.68745,-0.42326 c 4.06707,0.90944 7.61577,9.79791 8.60463,12.49762 l 7.4483,21.12869 c 0.11962,1.53289 -0.60607,4.12965 -3.90757,4.4042 l -0.31899,-1.94471 c 1.59492,-0.13727 1.53113,-2.15634 1.53113,-2.17922 l -7.40843,-20.91706 c -2.08935,-5.71974 -5.33502,-10.99905 -6.80235,-11.11916 -3.01441,1.85319 -1.37163,26.31077 0.23126,32.99714 0.35089,1.45853 1.03671,2.408 1.99366,2.73403 a 3.1898491,2.2878932 0 0 0 2.39239,-0.10868 l 1.31581,1.71592 a 6.3796983,4.5757865 0 0 1 -2.78314,0.49762 z"
     fill="#68e1fd"
     id="path3763"
     style="fill:#000000;stroke-width:0.675372" />
  <path
     d="m 207.46842,228.17477 a 1.0511184,1.0486481 0 0 1 -0.98769,-0.70513 c -4.17729,-12.50241 -20.48775,-19.67119 -20.65086,-19.77968 a 1.0239343,1.0215279 0 0 1 -0.53462,-1.35601 1.042057,1.039608 0 0 1 1.35921,-0.54239 c 0.70679,0.30736 17.32533,7.63885 21.80165,21.0272 a 1.0511184,1.0486481 0 0 1 -0.66148,1.31081 1.0148729,1.0124878 0 0 1 -0.32621,0.0452 z"
     fill="#68e1fd"
     id="path3735"
     style="fill:#001900;fill-opacity:1;stroke-width:0.905071" />
  <path
     d="M 154.28756,262.09028 C 126.82194,237.28951 147.2102,207.82717 147.31,207.75281 a 1.1251198,0.7092469 0 0 0 -0.1361,-0.90372 0.84383984,0.53193518 0 0 0 -1.27937,0 c -0.41739,0.33175 -21.77652,30.45758 6.59646,55.3041 0.32665,0.27455 2.05062,0.16016 1.79657,-0.0629 z"
     fill="#68e1fd"
     id="path3739"
     style="fill:#000000;stroke-width:0.720404" />
</svg>
