<svg xmlns="http://www.w3.org/2000/svg" width="31.836" height="31.835" viewBox="0 0 31.836 31.835"><defs><style>.a{fill:#7e7e7e;}</style></defs><path class="a" d="M19.336,31.835H2.5a2.506,2.506,0,0,1-2.5-2.5V2.5A2.506,2.506,0,0,1,2.5,0H19.336a2.506,2.506,0,0,1,2.5,2.5V7.322a.637.637,0,0,1-1.273,0V2.5a1.231,1.231,0,0,0-1.229-1.23H2.5A1.231,1.231,0,0,0,1.273,2.5v26.83A1.231,1.231,0,0,0,2.5,30.562H19.336a1.231,1.231,0,0,0,1.23-1.23v-5.2a.637.637,0,1,1,1.273,0v5.2A2.506,2.506,0,0,1,19.336,31.835Z"/><g transform="translate(8.978 9.896)"><path class="a" d="M141,240.637a.637.637,0,0,1,.637-.637h20.375a.637.637,0,0,1,0,1.273H141.637A.637.637,0,0,1,141,240.637Z" transform="translate(-141 -234.615)"/><g transform="translate(16.227)"><path class="a" d="M401.4,161.871l-5.358-5.358a.637.637,0,0,1,.9-.9l5.358,5.358a.637.637,0,1,1-.9.9Z" transform="translate(-395.855 -155.427)"/><path class="a" d="M396.041,246.871a.637.637,0,0,1,0-.9l5.358-5.358a.637.637,0,0,1,.9.9l-5.358,5.358a.637.637,0,0,1-.9,0Z" transform="translate(-395.854 -235.014)"/></g></g></svg>