<?xml version="1.0" encoding="UTF-8" standalone="no"?>
<svg
   xmlns:dc="http://purl.org/dc/elements/1.1/"
   xmlns:cc="http://creativecommons.org/ns#"
   xmlns:rdf="http://www.w3.org/1999/02/22-rdf-syntax-ns#"
   xmlns:svg="http://www.w3.org/2000/svg"
   xmlns="http://www.w3.org/2000/svg"
   xmlns:sodipodi="http://sodipodi.sourceforge.net/DTD/sodipodi-0.dtd"
   xmlns:inkscape="http://www.inkscape.org/namespaces/inkscape"
   version="1.1"
   id="Capa_1"
   x="0px"
   y="0px"
   viewBox="0 0 479.99999 480.17"
   xml:space="preserve"
   sodipodi:docname="noun_doctor-list.svg"
   width="480"
   height="480.17001"
   inkscape:version="1.0.2-2 (e86c870879, 2021-01-15)"><metadata
   id="metadata43"><rdf:RDF><cc:Work
       rdf:about=""><dc:format>image/svg+xml</dc:format><dc:type
         rdf:resource="http://purl.org/dc/dcmitype/StillImage" /><dc:title></dc:title></cc:Work></rdf:RDF></metadata><defs
   id="defs41" /><sodipodi:namedview
   pagecolor="#ffffff"
   bordercolor="#666666"
   borderopacity="1"
   objecttolerance="10"
   gridtolerance="10"
   guidetolerance="10"
   inkscape:pageopacity="0"
   inkscape:pageshadow="2"
   inkscape:window-width="1920"
   inkscape:window-height="1017"
   id="namedview39"
   showgrid="false"
   inkscape:zoom="1.7702063"
   inkscape:cx="240.08501"
   inkscape:cy="217.48877"
   inkscape:window-x="-8"
   inkscape:window-y="-8"
   inkscape:window-maximized="1"
   inkscape:current-layer="Capa_1" />
<g
   id="g6"
   style="fill:#7e7e7e;fill-opacity:1">
	<g
   id="g4"
   style="fill:#7e7e7e;fill-opacity:1">
		<path
   d="M 285.685,197.482 C 337.301,172.285 358.717,110.015 333.519,58.4 308.322,6.784 246.052,-14.632 194.437,10.566 c -51.616,25.197 -73.032,87.467 -47.834,139.082 10.169,20.83 27.004,37.666 47.834,47.834 C 104.092,218.776 40.212,299.349 40.085,392.17 v 80 c 0,4.418 3.582,8 8,8 h 384 c 4.418,0 8,-3.582 8,-8 v -80 c -0.132,-92.835 -64.036,-173.413 -154.4,-194.688 z m -133.6,-93.312 c 0,-48.601 39.399,-88 88,-88 48.601,0 88,39.399 88,88 0,48.601 -39.399,88 -88,88 -48.577,-0.057 -87.943,-39.423 -88,-88 z m 272,360 h -368 v -72 c 0.063,-70.2 40.026,-134.26 103.048,-165.184 -18.289,19.125 -29.175,44.134 -30.712,70.552 -12.553,4.256 -19.279,17.882 -15.023,30.435 4.256,12.553 17.882,19.279 30.435,15.023 12.553,-4.256 19.279,-17.882 15.023,-30.435 -2.327,-6.865 -7.633,-12.31 -14.435,-14.815 3.494,-52.842 49.163,-92.847 102.005,-89.353 47.721,3.155 85.821,40.992 89.307,88.689 -18.435,3.955 -31.615,20.233 -31.648,39.088 v 32 h 16 v -32 c 0,-13.255 10.745,-24 24,-24 13.255,0 24,10.745 24,24 v 32 h 16 v -32 c -0.05,-19.117 -13.605,-35.534 -32.368,-39.2 -1.669,-26.203 -12.534,-50.976 -30.68,-69.952 63.011,30.919 102.972,94.964 103.048,165.152 z m -280,-144 c 0,4.418 -3.582,8 -8,8 -4.418,0 -8,-3.582 -8,-8 0,-4.418 3.582,-8 8,-8 4.418,0 8,3.582 8,8 z"
   id="path2"
   style="fill:#7e7e7e;fill-opacity:1" />
	</g>
</g>
<g
   id="g8">
</g>
<g
   id="g10">
</g>
<g
   id="g12">
</g>
<g
   id="g14">
</g>
<g
   id="g16">
</g>
<g
   id="g18">
</g>
<g
   id="g20">
</g>
<g
   id="g22">
</g>
<g
   id="g24">
</g>
<g
   id="g26">
</g>
<g
   id="g28">
</g>
<g
   id="g30">
</g>
<g
   id="g32">
</g>
<g
   id="g34">
</g>
<g
   id="g36">
</g>
</svg>
