<svg xmlns="http://www.w3.org/2000/svg" width="28.659" height="31.66" viewBox="0 0 28.659 31.66"><defs><style>.a{fill:#7e7e7e;}</style></defs><path class="a" d="M939.226,530.787a18.213,18.213,0,0,0-3.671-2.768,9.018,9.018,0,0,0,1.754-5.055,8.216,8.216,0,0,0-16.432,0,8.883,8.883,0,0,0,1.749,5.051,15.836,15.836,0,0,0-7.864,13.23v1.32a3.87,3.87,0,0,0,3.849,3.851h20.958a3.872,3.872,0,0,0,3.852-3.85v-1.324A14.911,14.911,0,0,0,939.226,530.787Zm-17.634-7.824a7.5,7.5,0,0,1,7.482-7.495h.02a7.494,7.494,0,1,1-7.5,7.494Zm21.118,19.6a3.132,3.132,0,0,1-3.135,3.133H918.6a3.135,3.135,0,0,1-3.126-3.132v-1.328c-.03-5.056,3.241-10.144,7.62-12.674h0a8.281,8.281,0,0,0,5.994,2.612h0a8.141,8.141,0,0,0,5.624-2.243c.107-.1.295-.293.4-.4a18.7,18.7,0,0,1,3.6,2.751,14.188,14.188,0,0,1,3.994,9.954Z" transform="translate(-914.762 -514.755)"/></svg>