<?xml version="1.0" encoding="UTF-8" standalone="no"?>
<svg
   xmlns:dc="http://purl.org/dc/elements/1.1/"
   xmlns:cc="http://creativecommons.org/ns#"
   xmlns:rdf="http://www.w3.org/1999/02/22-rdf-syntax-ns#"
   xmlns:svg="http://www.w3.org/2000/svg"
   xmlns="http://www.w3.org/2000/svg"
   xmlns:sodipodi="http://sodipodi.sourceforge.net/DTD/sodipodi-0.dtd"
   xmlns:inkscape="http://www.inkscape.org/namespaces/inkscape"
   version="1.0"
   width="512.000000pt"
   height="512.000000pt"
   viewBox="0 0 512.000000 512.000000"
   preserveAspectRatio="xMidYMid meet"
   id="svg34"
   sodipodi:docname="noun_time.svg"
   inkscape:version="1.0.2-2 (e86c870879, 2021-01-15)">
  <metadata
     id="metadata40">
    <rdf:RDF>
      <cc:Work
         rdf:about="">
        <dc:format>image/svg+xml</dc:format>
        <dc:type
           rdf:resource="http://purl.org/dc/dcmitype/StillImage" />
      </cc:Work>
    </rdf:RDF>
  </metadata>
  <defs
     id="defs38" />
  <sodipodi:namedview
     pagecolor="#ffffff"
     bordercolor="#666666"
     borderopacity="1"
     objecttolerance="10"
     gridtolerance="10"
     guidetolerance="10"
     inkscape:pageopacity="0"
     inkscape:pageshadow="2"
     inkscape:window-width="1920"
     inkscape:window-height="1017"
     id="namedview36"
     showgrid="false"
     inkscape:zoom="0.4402154"
     inkscape:cx="25.310069"
     inkscape:cy="293.44237"
     inkscape:window-x="-8"
     inkscape:window-y="-8"
     inkscape:window-maximized="1"
     inkscape:current-layer="svg34" />
  <g
     transform="translate(0.000000,512.000000) scale(0.100000,-0.100000)"
     fill="#000000"
     stroke="none"
     id="g32"
     style="fill:#7d7e7e;fill-opacity:1">
    <path
       d="M2365 4964 c-547 -97 -945 -570 -945 -1124 0 -305 117 -587 335 -805 547 -547 1466 -403 1819 285 290 566 62 1257 -509 1543 -206 103 -473 141 -700 101z m450 -154 c284 -77 517 -271 645 -535 77 -158 94 -238 94 -435 0 -171 -7 -218 -55 -350 -122 -334 -436 -589 -789 -641 -113 -16 -295 -7 -400 20 -176 46 -346 147 -472 279 -122 128 -204 273 -250 442 -19 73 -23 109 -23 250 0 141 4 177 23 250 102 377 408 663 787 736 106 20 338 12 440 -16z"
       id="path2"
       style="fill:#7d7e7e;fill-opacity:1" />
    <path
       d="M2515 4695 c-49 -48 -18 -145 45 -145 63 0 94 97 45 145 -31 32 -59 32 -90 0z"
       id="path4"
       style="fill:#7d7e7e;fill-opacity:1" />
    <path
       d="M1968 4478 c-83 -28 -29 -156 64 -149 52 4 65 81 21 123 -36 32 -52 37 -85 26z"
       id="path6"
       style="fill:#7d7e7e;fill-opacity:1" />
    <path
       d="M3067 4452 c-31 -32 -36 -82 -11 -106 43 -44 134 3 134 69 0 66 -74 88 -123 37z"
       id="path8"
       style="fill:#7d7e7e;fill-opacity:1" />
    <path
       d="M2511 4364 c-20 -25 -21 -39 -21 -258 l0 -231 -105 -105 c-113 -113 -126 -139 -85 -180 42 -42 67 -30 203 108 l127 129 0 255 c0 243 -1 257 -21 282 -13 17 -30 26 -49 26 -19 0 -36 -9 -49 -26z"
       id="path10"
       style="fill:#7d7e7e;fill-opacity:1" />
    <path
       d="M1715 3895 c-14 -13 -25 -33 -25 -45 0 -33 44 -70 83 -70 46 0 87 33 87 70 0 63 -97 94 -145 45z"
       id="path12"
       style="fill:#7d7e7e;fill-opacity:1" />
    <path
       d="M3286 3899 c-54 -43 -16 -119 61 -119 39 0 83 37 83 70 0 59 -91 91 -144 49z"
       id="path14"
       style="fill:#7d7e7e;fill-opacity:1" />
    <path
       d="M2000 3373 c-35 -13 -70 -57 -70 -88 0 -71 77 -88 129 -30 35 40 36 44 20 78 -9 19 -51 51 -62 46 -1 0 -9 -3 -17 -6z"
       id="path16"
       style="fill:#7d7e7e;fill-opacity:1" />
    <path
       d="M3057 3352 c-26 -29 -21 -74 11 -105 52 -50 122 -27 122 39 0 64 -93 110 -133 66z"
       id="path18"
       style="fill:#7d7e7e;fill-opacity:1" />
    <path
       d="M2511 3124 c-42 -53 -10 -144 49 -144 33 0 70 44 70 83 0 46 -33 87 -70 87 -19 0 -36 -9 -49 -26z"
       id="path20"
       style="fill:#7d7e7e;fill-opacity:1" />
    <path
       d="M911 2089 c-172 -29 -320 -169 -366 -346 -80 -307 195 -611 508 -563 182 28 330 156 381 329 33 112 14 260 -47 363 -62 107 -198 197 -327 217 -73 12 -74 12 -149 0z m227 -170 c74 -36 131 -102 157 -180 26 -78 17 -189 -20 -258 -102 -186 -360 -225 -508 -75 -22 22 -51 62 -65 89 -23 43 -27 62 -27 140 0 78 4 97 27 140 28 54 96 123 147 149 85 45 192 43 289 -5z"
       id="path22"
       style="fill:#7d7e7e;fill-opacity:1" />
    <path
       d="M2480 2089 c-171 -28 -330 -178 -369 -350 -72 -312 200 -608 514 -559 227 35 395 228 395 455 0 124 -45 231 -136 323 -73 72 -156 116 -254 131 -73 12 -74 12 -150 0z m214 -162 c62 -29 127 -92 158 -155 34 -69 33 -206 -1 -276 -98 -198 -363 -244 -518 -89 -66 66 -88 123 -88 228 0 74 4 98 23 137 79 160 267 228 426 155z"
       id="path24"
       style="fill:#7d7e7e;fill-opacity:1" />
    <path
       d="M4050 2089 c-120 -21 -257 -114 -317 -217 -83 -141 -83 -333 0 -474 14 -24 50 -67 81 -96 256 -243 671 -120 761 225 82 314 -202 617 -525 562z m216 -164 c203 -99 245 -364 82 -522 -63 -61 -127 -87 -218 -87 -123 -1 -226 59 -286 166 -27 49 -29 61 -29 153 0 108 8 132 67 208 85 107 257 144 384 82z"
       id="path26"
       style="fill:#7d7e7e;fill-opacity:1" />
    <path
       d="M506 1014 c-167 -40 -307 -179 -352 -349 -10 -34 -14 -118 -14 -267 0 -205 1 -219 20 -238 20 -20 33 -20 2400 -20 2367 0 2380 0 2400 20 19 19 20 33 20 238 0 215 0 219 -23 240 -29 27 -71 28 -97 2 -18 -18 -20 -33 -20 -190 l0 -170 -120 0 -120 0 0 95 c0 107 -14 135 -69 135 -52 0 -71 -38 -71 -141 l0 -89 -335 0 -335 0 0 98 c0 111 -11 132 -67 132 -52 0 -63 -24 -63 -133 l0 -97 -120 0 -120 0 0 178 c0 166 2 180 24 229 33 71 94 134 163 169 l58 29 423 5 c405 5 424 6 438 24 20 28 17 73 -7 97 -20 20 -28 20 -442 17 -404 -3 -424 -4 -479 -24 -82 -32 -165 -91 -212 -151 l-41 -52 -30 37 c-76 94 -187 162 -294 182 -70 13 -852 13 -922 0 -107 -20 -218 -88 -295 -183 l-31 -38 -28 41 c-55 80 -156 145 -270 175 -83 21 -879 21 -969 -1z m996 -151 c67 -31 133 -96 168 -166 l30 -60 0 -179 0 -178 -120 0 -120 0 0 97 c0 109 -11 133 -63 133 -56 0 -67 -21 -67 -132 l0 -98 -335 0 -335 0 0 89 c0 103 -19 141 -71 141 -55 0 -69 -28 -69 -135 l0 -95 -120 0 -120 0 0 168 c1 186 9 225 67 306 37 52 93 92 166 118 48 16 89 18 497 15 432 -2 446 -3 492 -24z m1586 -12 c77 -42 135 -105 162 -177 17 -47 20 -78 20 -224 l0 -170 -120 0 -120 0 0 95 c0 107 -14 135 -69 135 -52 0 -71 -38 -71 -141 l0 -89 -330 0 -330 0 0 89 c0 103 -19 141 -71 141 -55 0 -69 -28 -69 -135 l0 -95 -120 0 -120 0 0 170 c0 145 3 177 20 223 35 92 113 165 218 203 29 11 134 13 487 11 l450 -2 63 -34z"
       id="path28"
       style="fill:#7d7e7e;fill-opacity:1" />
    <path
       d="M4705 948 c-28 -16 -35 -28 -35 -64 0 -24 10 -39 53 -75 70 -61 74 -63 106 -49 35 14 54 52 42 82 -15 39 -109 119 -138 118 -4 0 -17 -6 -28 -12z"
       id="path30"
       style="fill:#7d7e7e;fill-opacity:1" />
  </g>
</svg>
