<?xml version="1.0" encoding="UTF-8" standalone="no"?>
<svg
   xmlns:dc="http://purl.org/dc/elements/1.1/"
   xmlns:cc="http://creativecommons.org/ns#"
   xmlns:rdf="http://www.w3.org/1999/02/22-rdf-syntax-ns#"
   xmlns:svg="http://www.w3.org/2000/svg"
   xmlns="http://www.w3.org/2000/svg"
   xmlns:sodipodi="http://sodipodi.sourceforge.net/DTD/sodipodi-0.dtd"
   xmlns:inkscape="http://www.inkscape.org/namespaces/inkscape"
   width="28.659"
   height="31.66"
   viewBox="0 0 28.659 31.66"
   version="1.1"
   id="svg839"
   sodipodi:docname="noun_utentes.svg"
   inkscape:version="1.0.2 (e86c8708, 2021-01-15)">
  <metadata
     id="metadata843">
    <rdf:RDF>
      <cc:Work
         rdf:about="">
        <dc:format>image/svg+xml</dc:format>
        <dc:type
           rdf:resource="http://purl.org/dc/dcmitype/StillImage" />
      </cc:Work>
    </rdf:RDF>
  </metadata>
  <sodipodi:namedview
     pagecolor="#ffffff"
     bordercolor="#666666"
     borderopacity="1"
     objecttolerance="10"
     gridtolerance="10"
     guidetolerance="10"
     inkscape:pageopacity="0"
     inkscape:pageshadow="2"
     inkscape:window-width="1440"
     inkscape:window-height="785"
     id="namedview841"
     showgrid="false"
     inkscape:zoom="12.160185"
     inkscape:cx="5.8546913"
     inkscape:cy="16.217964"
     inkscape:window-x="0"
     inkscape:window-y="25"
     inkscape:window-maximized="1"
     inkscape:current-layer="svg839" />
  <defs
     id="defs835">
    <style
       id="style833">.a{fill:#7e7e7e;}</style>
  </defs>
  <path
     class="a"
     d="M 22.138676,16.032 A 16.481839,18.213 0 0 0 18.816607,13.264 8.1608313,9.018 0 0 0 20.403888,8.209 7.4350621,8.216 0 0 0 5.533764,8.209 8.0386632,8.883 0 0 0 7.11652,13.26 14.330775,15.836 0 0 0 0,26.49 v 1.32 a 3.5021532,3.87 0 0 0 3.4831492,3.851 H 22.449073 a 3.5039631,3.872 0 0 0 3.485864,-3.85 V 26.487 A 13.493697,14.911 0 0 0 22.138676,16.032 Z M 6.1808026,8.208 A 6.7871185,7.5 0 0 1 12.951632,0.713 h 0.0181 A 6.7816888,7.494 0 1 1 6.1826125,8.207 Z m 19.1107154,19.6 a 2.8343007,3.132 0 0 1 -2.837015,3.133 H 3.4731948 A 2.8370155,3.135 0 0 1 0.64432378,27.809 V 26.481 C 0.61717531,21.425 3.5772639,16.337 7.5400362,13.807 v 0 a 7.4938838,8.281 0 0 0 5.4242648,2.612 v 0 a 7.3671909,8.141 0 0 0 5.089434,-2.243 c 0.09683,-0.1 0.26696,-0.293 0.36198,-0.4 a 16.922549,18.7 0 0 1 3.257817,2.751 12.839418,14.188 0 0 1 3.614367,9.954 z"
     id="path837"
     style="stroke-width:0.951288" />
</svg>
