<svg xmlns="http://www.w3.org/2000/svg" width="32.906" height="32.92" viewBox="0 0 32.906 32.92"><defs><style>.a{fill:#7e7e7e;}</style></defs><g transform="translate(-38.033 -40.999)"><path class="a" d="M13.4,29.373a11.433,11.433,0,0,0,5.5,3.058v1.1a2.08,2.08,0,0,0,2.055,2.077v1.313a4.83,4.83,0,0,0,9.66,0V33.981a4.007,4.007,0,0,1,8.014,0V35.1a3.923,3.923,0,1,0,.823.005V33.981a4.83,4.83,0,0,0-9.66,0v2.942a4.007,4.007,0,0,1-8.014,0V35.607a2.079,2.079,0,0,0,2.028-2.074V32.511A11.5,11.5,0,0,0,29.7,13.129l.088-.755a2.128,2.128,0,1,0-4.227-.494l-.125,1.068a2.123,2.123,0,0,0,4.037,1.137,10.683,10.683,0,1,1-15.941.086,2.125,2.125,0,0,0,4.015-1.19l-.125-1.068a2.128,2.128,0,1,0-4.227.494l.1.815a11.5,11.5,0,0,0,.114,16.15ZM42.116,39a3.1,3.1,0,1,1-3.1-3.1A3.1,3.1,0,0,1,42.116,39ZM28.843,13.347a1.3,1.3,0,1,1-2.592-.3l.125-1.068a1.3,1.3,0,0,1,2.592.3Zm-5.858,19.3v.89a1.258,1.258,0,0,1-1.256,1.256h-.747a1.258,1.258,0,0,1-1.256-1.256v-.941a11.309,11.309,0,0,0,3.259.052ZM15.156,10.865A1.3,1.3,0,0,1,16.6,12.01l.125,1.068a1.3,1.3,0,0,1-2.592.3l-.125-1.068A1.306,1.306,0,0,1,15.156,10.865Z" transform="translate(28 31)"/></g></svg>