<?xml version="1.0" encoding="UTF-8" standalone="no"?>
<svg
   xmlns:dc="http://purl.org/dc/elements/1.1/"
   xmlns:cc="http://creativecommons.org/ns#"
   xmlns:rdf="http://www.w3.org/1999/02/22-rdf-syntax-ns#"
   xmlns:svg="http://www.w3.org/2000/svg"
   xmlns="http://www.w3.org/2000/svg"
   xmlns:sodipodi="http://sodipodi.sourceforge.net/DTD/sodipodi-0.dtd"
   xmlns:inkscape="http://www.inkscape.org/namespaces/inkscape"
   width="54"
   height="58"
   viewBox="0 0 54 58"
   version="1.1"
   id="svg36"
   sodipodi:docname="noun_wait.svg"
   inkscape:version="1.0.2 (e86c8708, 2021-01-15)">
  <metadata
     id="metadata40">
    <rdf:RDF>
      <cc:Work
         rdf:about="">
        <dc:format>image/svg+xml</dc:format>
        <dc:type
           rdf:resource="http://purl.org/dc/dcmitype/StillImage" />
      </cc:Work>
    </rdf:RDF>
  </metadata>
  <sodipodi:namedview
     pagecolor="#ffffff"
     bordercolor="#666666"
     borderopacity="1"
     objecttolerance="10"
     gridtolerance="10"
     guidetolerance="10"
     inkscape:pageopacity="0"
     inkscape:pageshadow="2"
     inkscape:window-width="1440"
     inkscape:window-height="785"
     id="namedview38"
     showgrid="false"
     inkscape:zoom="4.6652824"
     inkscape:cx="-2.4591347"
     inkscape:cy="35.544259"
     inkscape:window-x="0"
     inkscape:window-y="25"
     inkscape:window-maximized="1"
     inkscape:current-layer="svg36" />
  <defs
     id="defs12">
    <style
       id="style10">.a{fill:#2c363e;}</style>
  </defs>
  <path
     class="a"
     d="M42,33A12,12,0,1,0,54,45,12.01,12.01,0,0,0,42,33Zm0,22A10,10,0,1,1,52,45,10.016,10.016,0,0,1,42,55Z"
     id="path14"
     style="fill:#666666" />
  <path
     class="a"
     d="M48,44H43V39a1,1,0,0,0-2,0v6a1,1,0,0,0,1,1h6a1,1,0,0,0,0-2Z"
     id="path16"
     style="fill:#666666" />
  <path
     class="a"
     d="M6.83,18h13a1,1,0,1,0,0-2h-13a1,1,0,0,0,0,2Z"
     id="path18"
     style="fill:#666666" />
  <path
     class="a"
     d="M6.83,46a1,1,0,0,0,0,2H21a1,1,0,0,0,0-2Z"
     id="path20"
     style="fill:#666666" />
  <path
     class="a"
     d="M35.83,22h-29a1,1,0,1,0,0,2h29a1,1,0,0,0,0-2Z"
     id="path22"
     style="fill:#666666" />
  <path
     class="a"
     d="M28,35a1,1,0,0,0-1-1H6.83a1,1,0,0,0,0,2H27A1,1,0,0,0,28,35Z"
     id="path24"
     style="fill:#666666" />
  <path
     class="a"
     d="M25,41a1,1,0,0,0-1-1H6.83a1,1,0,0,0,0,2H24A1,1,0,0,0,25,41Z"
     id="path26"
     style="fill:#666666" />
  <path
     class="a"
     d="M6.83,30h14a1,1,0,1,0,0-2h-14a1,1,0,0,0,0,2Z"
     id="path28"
     style="fill:#666666" />
  <path
     class="a"
     d="M28.83,30h7a1,1,0,0,0,0-2h-7a1,1,0,0,0,0,2Z"
     id="path30"
     style="fill:#666666" />
  <path
     class="a"
     d="M25.54,29.71a1.014,1.014,0,0,0,0-1.42,1.034,1.034,0,0,0-1.41,0,1.017,1.017,0,0,0-.3.71,1.052,1.052,0,0,0,.29.71.99.99,0,0,0,.71.29A1.014,1.014,0,0,0,25.54,29.71Z"
     id="path32"
     style="fill:#666666" />
  <path
     class="a"
     d="M30,56H2V8H9v2a1,1,0,0,0,1,1H33a1,1,0,0,0,1-1V8h7V27a1,1,0,0,0,2,0V7a1,1,0,0,0-1-1H34V4a1,1,0,0,0-1-1H27V1a1,1,0,0,0-1-1H17a1,1,0,0,0-1,1V3H10A1,1,0,0,0,9,4V6H1A1,1,0,0,0,0,7V57a1,1,0,0,0,1,1H30a1,1,0,0,0,0-2ZM18,2h7V6H18V2ZM11,5h5V7a1,1,0,0,0,1,1h9a1,1,0,0,0,1-1V5h5V9H11V5Z"
     id="path34"
     style="fill:#666666" />
</svg>
