<?xml version="1.0" encoding="UTF-8" standalone="no"?>
<svg
   xmlns:dc="http://purl.org/dc/elements/1.1/"
   xmlns:cc="http://creativecommons.org/ns#"
   xmlns:rdf="http://www.w3.org/1999/02/22-rdf-syntax-ns#"
   xmlns:svg="http://www.w3.org/2000/svg"
   xmlns="http://www.w3.org/2000/svg"
   xmlns:sodipodi="http://sodipodi.sourceforge.net/DTD/sodipodi-0.dtd"
   xmlns:inkscape="http://www.inkscape.org/namespaces/inkscape"
   viewBox="0 0 400 300"
   width="406"
   height="306"
   class="illustration styles_illustrationTablet__1DWOa"
   version="1.1"
   id="svg93"
   sodipodi:docname="waiting-patient.svg"
   inkscape:version="1.0.2 (e86c8708, 2021-01-15)">
  <metadata
     id="metadata99">
    <rdf:RDF>
      <cc:Work
         rdf:about="">
        <dc:format>image/svg+xml</dc:format>
        <dc:type
           rdf:resource="http://purl.org/dc/dcmitype/StillImage" />
      </cc:Work>
    </rdf:RDF>
  </metadata>
  <defs
     id="defs97" />
  <sodipodi:namedview
     pagecolor="#ffffff"
     bordercolor="#666666"
     borderopacity="1"
     objecttolerance="10"
     gridtolerance="10"
     guidetolerance="10"
     inkscape:pageopacity="0"
     inkscape:pageshadow="2"
     inkscape:window-width="1440"
     inkscape:window-height="785"
     id="namedview95"
     showgrid="false"
     inkscape:zoom="2.4181887"
     inkscape:cx="283.30398"
     inkscape:cy="166.97348"
     inkscape:window-x="0"
     inkscape:window-y="25"
     inkscape:window-maximized="1"
     inkscape:current-layer="svg93"
     inkscape:document-rotation="0" />
  <g
     id="_324_waiting_outline"
     data-name="#324_waiting_outline"
     transform="matrix(1,0,0,0.99771075,0,0.14639809)">
    <path
       d="M 157.57,129.44 H 165 v 4.65 a 3.26,3.26 0 0 1 -3.26,3.26 h -0.89 a 3.26,3.26 0 0 1 -3.26,-3.26 v -4.65 z"
       transform="rotate(3.78,161.09135,133.32534)"
       fill="#ffc9b0"
       id="path10" />
    <path
       d="m 161.67,138.38 h -0.28 l -0.88,-0.05 a 4.27,4.27 0 0 1 -4,-4.53 l 0.3,-4.65 a 1,1 0 0 1 1.07,-0.93 l 7.39,0.49 a 1,1 0 0 1 0.68,0.34 1,1 0 0 1 0.25,0.72 l -0.31,4.64 a 4.26,4.26 0 0 1 -4.22,3.97 z m -2.9,-8.11 -0.24,3.65 a 2.27,2.27 0 0 0 2.11,2.4 l 0.88,0.06 v 0 a 2.27,2.27 0 0 0 2.41,-2.11 l 0.24,-3.64 z"
       fill="#093f68"
       id="path12" />
    <path
       d="m 181.23,94.39 c 0,0 1.6,-6.57 -6.18,-11.17 -7.78,-4.6 -12.51,-3.29 -12.64,-1.83 -0.13,1.46 3,2.94 3,2.94 a 26,26 0 0 0 -15,5.45 c -7.58,5.85 -10,11.86 -6.28,23.92 a 33,33 0 0 0 10.32,15 c 0,0 12.18,-0.29 17.42,-8.52 5.24,-8.23 9.36,-25.79 9.36,-25.79 z"
       fill="#725858"
       id="path14"
       style="fill:#72582c;fill-opacity:1" />
    <path
       d="M 154.47,129.66 A 1,1 0 0 1 153.86,129.45 33.66,33.66 0 0 1 143.19,114 c -3.62,-11.7 -1.83,-18.48 6.63,-25 a 27.58,27.58 0 0 1 12.66,-5.42 2.89,2.89 0 0 1 -1.07,-2.26 2.17,2.17 0 0 1 1.32,-1.71 c 2,-1 6.59,-0.93 12.83,2.75 8.28,4.9 6.73,11.91 6.64,12.28 -0.18,0.77 -4.21,17.79 -9.47,26.05 -5.46,8.58 -17.72,9 -18.24,9 z M 165.36,85.33 A 25.32,25.32 0 0 0 151,90.57 c -6.65,5.14 -9.75,10.52 -5.94,22.84 a 32.23,32.23 0 0 0 9.7,14.23 c 2,-0.13 11.84,-1.12 16.24,-8 5.09,-8 9.18,-25.27 9.22,-25.44 v 0 c 0.05,-0.24 1.29,-5.94 -5.72,-10.08 -6.85,-4 -10.78,-3.11 -11.16,-2.51 a 5.84,5.84 0 0 0 2.46,1.85 1,1 0 0 1 0.54,1.14 1,1 0 0 1 -1,0.77 z"
       fill="#093f68"
       id="path16" />
    <path
       d="m 171.32,134.77 c -4.6,0.92 -9.3,-0.76 -13.09,-3.32 -2,-1.33 -5.07,-2.8 -4.71,-5.6 a 7.33,7.33 0 0 1 1.49,-3.27 26,26 0 0 0 4.15,-7.44 c 1,-3.33 -0.34,-6.85 1.14,-10.2 2.57,-5.86 9.53,-5.13 14.67,-7.09 0.57,-0.21 6.44,-2.45 6.26,-3.46 l 3.69,18.45 c 2.08,10.16 -3.23,19.85 -13.6,21.93 z"
       fill="#ffc9b0"
       id="path18"
       style="fill:#ffc9b0;fill-opacity:1" />
    <path
       d="m 168.74,136 a 20,20 0 0 1 -11.07,-3.74 l -0.85,-0.55 c -2,-1.25 -4.68,-3 -4.29,-6 a 8.3,8.3 0 0 1 1.67,-3.71 25.21,25.21 0 0 0 4,-7.13 14.68,14.68 0 0 0 0.35,-4.28 13.83,13.83 0 0 1 0.84,-6 c 2,-4.63 6.59,-5.58 10.6,-6.41 a 30.92,30.92 0 0 0 4.63,-1.21 23.81,23.81 0 0 0 5.64,-2.72 1,1 0 0 1 2,0 l 3.69,18.44 c 2.26,11.27 -3.79,21 -14.38,23.11 v 0 a 14.32,14.32 0 0 1 -2.83,0.2 z m 2.58,-1.25 z m 9.29,-38.39 a 32.16,32.16 0 0 1 -5.28,2.4 31.78,31.78 0 0 1 -4.94,1.31 c -3.89,0.81 -7.56,1.57 -9.18,5.26 a 12.12,12.12 0 0 0 -0.67,5.21 16.82,16.82 0 0 1 -0.42,4.86 26.66,26.66 0 0 1 -4.3,7.75 6.58,6.58 0 0 0 -1.31,2.81 c -0.21,1.65 1.27,2.73 3.38,4.07 l 0.9,0.58 c 4.15,2.79 8.54,3.92 12.33,3.16 9.46,-1.89 14.85,-10.62 12.82,-20.75 z"
       fill="#093f68"
       id="path20" />
    <circle
       cx="177.78999"
       cy="108.64"
       r="1.74"
       fill="#093f68"
       id="circle22" />
    <path
       d="m 182.46,108.5 c 0,0 5.91,6.79 4.79,7.32 a 19.45,19.45 0 0 1 -4.06,0.88"
       fill="#ffc9b0"
       id="path24"
       style="fill:#ffc9b0;fill-opacity:1" />
    <path
       d="m 183.19,117.7 a 1.0017984,1.0017984 0 0 1 -0.12,-2 24.89,24.89 0 0 0 3.14,-0.58 43.57,43.57 0 0 0 -4.5,-6 1,1 0 0 1 0.09,-1.41 1,1 0 0 1 1.42,0.1 c 5.49,6.33 5.23,7.59 5.14,8 a 1.23,1.23 0 0 1 -0.68,0.87 19.76,19.76 0 0 1 -4.37,1 z m 3.21,-2.11 z"
       fill="#093f68"
       id="path26" />
    <path
       d="m 160.92,111 c 0,0 -5.14,-2.22 -6.76,2.28 -1.62,4.5 2.09,10.89 9.15,7.4"
       fill="#ffc9b0"
       id="path28"
       style="fill:#ffc9b0;fill-opacity:1" />
    <path
       d="m 159.47,122.67 a 6.33,6.33 0 0 1 -4.3,-1.6 7.63,7.63 0 0 1 -1.95,-8.14 4.94,4.94 0 0 1 2.72,-3.05 7.57,7.57 0 0 1 5.38,0.19 1.0031949,1.0031949 0 0 1 -0.8,1.84 5.63,5.63 0 0 0 -3.8,-0.2 3,3 0 0 0 -1.62,1.9 5.68,5.68 0 0 0 1.4,6 c 1.56,1.39 3.82,1.45 6.36,0.2 a 1,1 0 1 1 0.89,1.79 9.75,9.75 0 0 1 -4.28,1.07 z"
       fill="#093f68"
       id="path30"
       style="fill:#ffc9b0;fill-opacity:1" />
    <path
       d="m 171.43,108.4 a 2,2 0 0 1 -0.75,-3.85 l 7.22,-2.91 a 2.0008811,2.0008811 0 1 1 1.5,3.71 l -7.22,2.91 a 2,2 0 0 1 -0.75,0.14 z"
       fill="#093f68"
       id="path32" />
    <path
       d="m 178.68676,124.38615 c -1.33333,0.12 -2.15433,-2.367 -0.82099,-2.487 L 182.9,123.72 c 1.33333,-0.23333 1.68333,1.76667 0.35,2 z"
       fill="#093f68"
       id="path34"
       sodipodi:nodetypes="ccccc" />
    <path
       d="m 178,176.85 -30.55,6.15 -6.28,-32.6 a 13.85,13.85 0 0 1 11.26,-16 l 3.27,-0.57 a 13.85,13.85 0 0 1 16,11.26 z"
       fill="#68e1fd"
       id="path36"
       style="fill:#31ade0;fill-opacity:1" />
    <path
       d="m 147.45,184 a 0.93,0.93 0 0 1 -0.56,-0.17 1,1 0 0 1 -0.43,-0.64 l -6.27,-32.6 a 14.87,14.87 0 0 1 12.07,-17.21 l 3.27,-0.57 a 14.87,14.87 0 0 1 17.19,12.08 l 6.28,31.77 a 1,1 0 0 1 -0.79,1.17 l -30.54,6.1 a 0.62,0.62 0 0 1 -0.22,0.07 z m 10.66,-49.41 a 13.11,13.11 0 0 0 -2.24,0.19 l -3.27,0.57 a 12.88,12.88 0 0 0 -10.45,14.88 l 6.09,31.6 28.57,-5.71 -6.06,-30.86 a 12.87,12.87 0 0 0 -12.64,-10.67 z"
       fill="#093f68"
       id="path38" />
    <path
       d="m 147.45,183 c 0,0 1.13,10.86 10.06,11.8 7.22,0.77 27.62,0.74 35.19,0.71 a 3,3 0 0 1 3,2.86 l 1.44,27.16 L 210,226 c 0,0 2.53,-41.65 -0.3,-44.94 -2.83,-3.29 -31.7,-4.21 -31.7,-4.21 z"
       fill="#093f68"
       id="path40"
       style="fill:#091223;fill-opacity:1" />
    <path
       d="m 210,227 v 0 l -12.87,-0.49 a 1,1 0 0 1 -1,-0.95 l -1.44,-27.16 a 2,2 0 0 0 -2,-1.91 v 0 c -8.22,0 -28.11,0 -35.29,-0.71 -9.63,-1 -10.95,-12.58 -11,-12.69 a 1,1 0 0 1 0.8,-1.09 l 30.54,-6.1 a 0.6,0.6 0 0 1 0.23,0 c 4.9,0.15 29.51,1.07 32.47,4.52 0.6,0.71 2,2.36 1.45,24.39 -0.28,10.72 -0.91,21.16 -0.92,21.27 A 1,1 0 0 1 210,227 Z m -11.92,-2.46 11,0.42 c 1.18,-20 1.46,-41.38 -0.12,-43.25 -1.74,-2 -19.08,-3.46 -30.9,-3.83 l -29.49,5.9 c 0.47,2.49 2.37,9.31 9,10 7.09,0.75 26.89,0.74 35.07,0.7 v 0 a 4,4 0 0 1 4,3.8 z"
       fill="#093f68"
       id="path42" />
    <path
       d="m 189.3,208.1 h -35.62 a 14.26,14.26 0 0 1 -13.84,-10.79 l -12.46,-49.55 a 6.2744024,6.2744024 0 1 1 12.17,-3.06 L 152,194.24 a 1.72,1.72 0 0 0 1.67,1.31 h 35.63 a 6.28,6.28 0 0 1 0,12.55 z"
       fill="#ffffff"
       id="path44" />
    <path
       d="M 189.29,209.1 H 153.68 A 15.25,15.25 0 0 1 138.87,197.55 L 126.41,148 a 7.2748643,7.2748643 0 1 1 14.11,-3.55 L 153,194 a 0.73,0.73 0 0 0 0.7,0.55 h 35.61 a 7.28,7.28 0 1 1 0,14.55 z M 133.48,141 a 5.2,5.2 0 0 0 -1.3,0.16 5.28,5.28 0 0 0 -3.83,6.4 l 12.46,49.55 a 13.25,13.25 0 0 0 12.87,10 h 35.61 a 5.28,5.28 0 1 0 0,-10.55 h -35.61 a 2.72,2.72 0 0 1 -2.64,-2.06 l -12.46,-49.55 a 5.29,5.29 0 0 0 -5.1,-4 z"
       fill="#093f68"
       id="path46"
       style="fill:#454b69;fill-opacity:1" />
    <polygon
       points="197.16,225.48 197.16,235.04 219.21,235.04 210.03,225.97 "
       fill="#f56132"
       id="polygon48"
       style="fill:#454b69;fill-opacity:1" />
    <path
       d="m 219.21,236 h -22.05 a 1,1 0 0 1 -1,-1 v -9.56 a 1,1 0 0 1 1,-1 l 12.86,0.49 a 1,1 0 0 1 0.67,0.29 l 9.18,9.06 a 1,1 0 0 1 -0.7,1.72 z m -21.05,-2 h 18.62 l -7.18,-7 -11.44,-0.43 z"
       fill="#093f68"
       id="path50" />
    <rect
       x="161.38"
       y="208.10001"
       width="6.0100002"
       height="22.700001"
       fill="#68e1fd"
       id="rect52"
       style="fill:#f9f9f9;fill-opacity:1" />
    <path
       d="m 167.39,231.8 h -6 a 1,1 0 0 1 -1,-1 v -22.7 a 1,1 0 0 1 1,-1 h 6 a 1,1 0 0 1 1,1 v 22.7 a 1,1 0 0 1 -1,1 z m -5,-2 h 4 v -20.7 h -4 z"
       fill="#093f68"
       id="path54"
       style="fill:#454b69;fill-opacity:1" />
    <rect
       x="154.98"
       y="230.8"
       width="18.93"
       height="4.2399998"
       rx="2.1199999"
       fill="#68e1fd"
       id="rect56"
       style="fill:#ffffff;fill-opacity:1" />
    <path
       d="M 171.79,236 H 157.1 a 3.12,3.12 0 1 1 0,-6.24 h 14.69 a 3.12,3.12 0 1 1 0,6.24 z m -14.69,-4.2 a 1.12,1.12 0 1 0 0,2.24 h 14.69 a 1.12,1.12 0 1 0 0,-2.24 z"
       fill="#093f68"
       id="path58"
       style="fill:#454b69;fill-opacity:1" />
    <path
       d="M 272.81,236 H 127.19 a 1,1 0 0 1 0,-2 h 145.62 a 1,1 0 0 1 0,2 z"
       fill="#093f68"
       id="path60"
       style="fill:#454b69;fill-opacity:1" />
    <path
       d="m 161.55,148.49 a 215.72,215.72 0 0 0 5.52,21.59 l 20.42,1.34 1.33,9 c -0.24,0.15 -3.25,1.39 -11.65,2.56 -22.16,3.11 -22.85,-1.27 -28.76,-31.92"
       fill="#68e1fd"
       id="path62"
       style="fill:#31ade0;fill-opacity:1" />
    <path
       d="m 167.75,184.76 c -13.85,0 -15.37,-7.85 -20.2,-32.89 l -0.13,-0.65 a 1.01789,1.01789 0 0 1 2,-0.38 l 0.12,0.65 C 155.35,181.75 156,184.92 177,182 a 59.86,59.86 0 0 0 10.68,-2.21 l -1.1,-7.38 -19.58,-1.34 a 1,1 0 0 1 -0.88,-0.69 214.79,214.79 0 0 1 -5.55,-21.7 1.01789,1.01789 0 0 1 2,-0.38 213.39,213.39 0 0 0 5.29,20.82 l 19.74,1.3 a 1,1 0 0 1 0.92,0.86 l 1.33,9 a 1,1 0 0 1 -0.46,1 c -0.55,0.34 -3.95,1.57 -12,2.7 a 69.59,69.59 0 0 1 -9.64,0.78 z"
       fill="#093f68"
       id="path64" />
    <path
       d="m 187.47,171.7 c 0,0 6.41,-1.53 10.3,0.1 3.89,1.63 7.34,7.07 5.3,7.29 -2.04,0.22 -6.74,-1.54 -7.74,-1.18 -1,0.36 -6.51,1.2 -6.51,1.2 z"
       fill="#ffc9b0"
       id="path66" />
    <path
       d="m 188.82,180.11 a 1,1 0 0 1 -1,-0.82 l -1.36,-7.41 a 1,1 0 0 1 0.75,-1.15 c 0.28,-0.07 6.79,-1.59 10.93,0.15 3.29,1.38 6.81,5.61 6.49,7.8 a 1.59,1.59 0 0 1 -1.47,1.4 16.62,16.62 0 0 1 -4.8,-0.7 13.5,13.5 0 0 0 -2.76,-0.51 c -1,0.36 -5.71,1.08 -6.65,1.23 z m 6.88,-3.25 a 15.61,15.61 0 0 1 3.14,0.57 21.78,21.78 0 0 0 3.8,0.68 10.79,10.79 0 0 0 -5.26,-5.39 c -2.7,-1.14 -6.9,-0.57 -8.75,-0.23 l 1,5.48 c 2.08,-0.33 4.79,-0.8 5.36,-1 a 2.2,2.2 0 0 1 0.71,-0.11 z"
       fill="#093f68"
       id="path68" />
    <circle
       cx="239.75"
       cy="87.68"
       r="22.709999"
       fill="#ffffff"
       id="circle70" />
    <path
       d="m 239.75,111.39 a 23.72,23.72 0 1 1 23.71,-23.71 23.74,23.74 0 0 1 -23.71,23.71 z m 0,-45.43 A 21.72,21.72 0 1 0 261.46,87.68 21.74,21.74 0 0 0 239.75,66 Z"
       fill="#dfeaef"
       id="path72"
       style="fill:#98c33e;fill-opacity:1" />
    <path
       d="m 253.6,88.68 h -13.85 a 1,1 0 0 1 -0.87,-0.52 l -8.6,-15.6 a 1.0121265,1.0121265 0 1 1 1.76,-1 l 8.3,15.08 h 13.26 a 1,1 0 0 1 0,2 z"
       fill="#dfeaef"
       id="path74"
       style="fill:#98c33e;fill-opacity:1" />
    <path
       d="m 249.78,219.18 c 0,0 -8,-16.24 -6.86,-27.22 0,0 6.41,2.9 9.5,11.46 4.71,13.07 3.63,15.77 3.63,15.77 z"
       fill="#70cc40"
       id="path76"
       style="fill:#98c33e;fill-opacity:1" />
    <path
       d="m 256.05,220.19 h -6.27 a 1,1 0 0 1 -0.9,-0.56 c -0.33,-0.67 -8.08,-16.63 -6.95,-27.76 a 1,1 0 0 1 0.49,-0.76 1,1 0 0 1 0.91,0 c 0.28,0.13 6.84,3.18 10,12 4.61,12.78 3.82,16 3.61,16.49 a 1,1 0 0 1 -0.89,0.59 z m -5.63,-2 h 4.75 c 0,-1.36 -0.38,-5.25 -3.69,-14.43 a 20.31,20.31 0 0 0 -7.66,-10.12 c -0.21,9.36 5.31,21.78 6.6,24.54 z"
       fill="#093f68"
       id="path78" />
    <path
       d="m 253.57,218.4 c 0,0 -6,-23.16 2.62,-38.67 0,0 4.95,5.67 6.14,19.38 a 34.7,34.7 0 0 1 -3.58,18.94 z"
       fill="#70cc40"
       id="path80"
       style="fill:#98c33e;fill-opacity:1" />
    <path
       d="m 253.57,219.4 a 1,1 0 0 1 -1,-0.75 77.34,77.34 0 0 1 -1.94,-13.72 c -0.39,-7.18 0.1,-17.47 4.66,-25.68 a 1,1 0 0 1 0.76,-0.51 1,1 0 0 1 0.86,0.33 c 0.21,0.24 5.18,6.07 6.39,20 a 35.4,35.4 0 0 1 -3.72,19.54 1,1 0 0 1 -0.8,0.49 l -5.17,0.35 z m 2.75,-37.74 c -6.41,13.3 -2.87,31.65 -2,35.68 l 3.78,-0.25 a 34.6,34.6 0 0 0 3.2,-17.89 c -0.8,-9.64 -3.55,-15.2 -4.98,-17.54 z"
       fill="#093f68"
       id="path82" />
    <path
       d="m 256.15,217.67 c 0,0 1.86,-15.46 14.36,-25.55 0,0 3.68,11.52 -6.65,26.92 z"
       fill="#70cc40"
       id="path84"
       style="fill:#98c33e;fill-opacity:1" />
    <path
       d="m 263.86,220 h -0.17 L 256,218.66 a 1,1 0 0 1 -0.82,-1.11 c 0.08,-0.65 2,-16 14.72,-26.21 a 1,1 0 0 1 0.91,-0.18 1,1 0 0 1 0.67,0.65 c 0.16,0.49 3.71,12.16 -6.77,27.78 a 1,1 0 0 1 -0.85,0.41 z m -6.56,-3.18 6.09,1.08 c 7.4,-11.33 7,-20.47 6.48,-24 -9.28,8.33 -11.97,19.66 -12.57,22.96 z"
       fill="#093f68"
       id="path86" />
    <polygon
       points="264.71,235.04 248.99,235.04 246.66,215.9 267.04,215.9 "
       fill="#68e1fd"
       id="polygon88"
       style="fill:#454b69;fill-opacity:1" />
    <path
       d="M 264.71,236 H 249 a 1,1 0 0 1 -1,-0.88 L 245.67,216 a 1,1 0 0 1 0.24,-0.79 1,1 0 0 1 0.75,-0.33 H 267 a 1,1 0 0 1 0.75,0.33 1,1 0 0 1 0.25,0.79 l -2.33,19.14 a 1,1 0 0 1 -0.96,0.86 z m -14.84,-2 h 14 l 2.08,-17.14 h -18.16 z"
       fill="#093f68"
       id="path90" />
  </g>
</svg>
