<?xml version="1.0" encoding="utf-8"?>
<!-- Generator: Adobe Illustrator 24.3.0, SVG Export Plug-In . SVG Version: 6.00 Build 0)  -->
<svg version="1.1" id="Layer_1" xmlns="http://www.w3.org/2000/svg" xmlns:xlink="http://www.w3.org/1999/xlink" x="0px" y="0px"
	 viewBox="0 0 887.3 243.5" style="enable-background:new 0 0 887.3 243.5;" xml:space="preserve">
<style type="text/css">
	.st0{fill:#98C33D;}
	.st1{enable-background:new    ;}
	.st2{fill:url(#Caminho_15_1_);}
	.st3{fill:url(#Caminho_16_1_);}
	.st4{fill:#2EADDF;}
</style>
<g id="Grupo_4" transform="translate(109.543 7.127)">
	<path id="Caminho_8" class="st0" d="M342.8,20.3c13.2-0.6,25.2,7.7,29.4,20.3h-14.4c-2.7-5.7-8.6-9.3-15-9c-11,0-18.7,8-18.7,20.7
		c0,12.6,7.8,20.7,18.7,20.7c6.4,0.3,12.3-3.2,15-9h14.4c-4.1,12.6-16.1,20.9-29.4,20.3c-17,0.5-31.1-12.8-31.6-29.8
		c0-0.7,0-1.4,0-2.1c-0.7-17,12.6-31.4,29.6-32C341.5,20.2,342.1,20.2,342.8,20.3z"/>
	<path id="Caminho_9" class="st0" d="M404.5,84.2c-13.3,0.5-24.4-9.8-24.9-23.1c0-0.8,0-1.6,0-2.4c0-15.6,10.2-25.5,24.9-25.5
		c12.8-0.7,23.7,9.2,24.4,22c0,0.8,0,1.6,0,2.5c0,1.6-0.1,3.2-0.3,4.9h-36.2c0.1,6.4,5.4,11.6,11.8,11.5c0,0,0.1,0,0.1,0
		c4.2,0.2,8.2-2.1,9.9-6h13.5C424.6,78.1,415.1,84.7,404.5,84.2z M392.4,54.1H416c-0.2-6.1-5.3-10.9-11.4-10.7c-0.1,0-0.3,0-0.4,0
		C398.1,43.3,392.9,47.9,392.4,54.1L392.4,54.1z"/>
	<path id="Caminho_10" class="st0" d="M472.7,56.1c0-8-4.3-12.3-11-12.3c-6.8,0-11.2,4.3-11.2,12.3v27.4h-12.5V33.9h12.5v6.2
		c3.6-4.5,9.2-7.1,15-6.9c11.6,0,19.7,7.5,19.7,21.2v29h-12.5L472.7,56.1L472.7,56.1z"/>
	<path id="Caminho_11" class="st0" d="M499.2,44.2h-5.9V33.9h5.9V21.7h12.6V34h11.1v10.3h-11.1v24c0,3.3,1.3,4.8,5.3,4.8h5.8v10.6
		H515c-9.5,0-15.8-4-15.8-15.4L499.2,44.2z"/>
	<path id="Caminho_12" class="st0" d="M544.4,83.5h-12.5V33.9h12.5v7.7c3.2-5.3,9-8.5,15.2-8.4v13.1h-3.3c-7.4,0-11.9,2.9-11.9,12.4
		V83.5z"/>
	<path id="Caminho_13" class="st0" d="M590.1,84.2c-13.4,0.5-24.6-10-25.1-23.4c0-0.7,0-1.5,0-2.2c0-14.1,11.4-25.5,25.5-25.5
		c14.1,0,25.5,11.4,25.5,25.5l0,0c0.4,13.7-10.4,25.2-24.2,25.5C591.2,84.3,590.7,84.3,590.1,84.2z M590.1,73.4
		c6.6,0,12.9-4.9,12.9-14.7c0-9.9-6.2-14.7-12.8-14.7c-6.6,0-12.6,4.8-12.6,14.7C577.5,68.5,583.3,73.4,590.1,73.4z"/>
</g>
<g class="st1">
	<path d="M640.3,218.6h-5.4v-2.7c-1.3,1.8-3.7,3-6.3,3c-5,0-8.5-3.2-8.5-9.1v-12.5h5.4V209c0,3.4,1.9,5.3,4.7,5.3
		c2.9,0,4.8-1.8,4.8-5.3v-11.7h5.4V218.6z"/>
	<path d="M658,197c5.5,0,9.7,4.3,9.7,10.9c0,6.6-4.3,11.1-9.7,11.1c-3.3,0-5.7-1.7-7-3.4v13.2h-5.4v-31.4h5.4v3.1
		C652.3,198.6,654.7,197,658,197z M656.6,201.7c-2.9,0-5.6,2.2-5.6,6.3c0,4,2.7,6.3,5.6,6.3c2.9,0,5.6-2.3,5.6-6.3
		C662.3,203.9,659.5,201.7,656.6,201.7z"/>
	<path d="M679.8,218.9c-5.3,0-9.1-3.1-9.3-7.1h5.4c0.2,1.6,1.7,2.8,3.8,2.8c2.1,0,3.3-1,3.3-2.2c0-3.8-12-1.4-12-9.2
		c0-3.5,3.1-6.4,8.4-6.4c5.1,0,8.3,2.8,8.6,7h-5.1c-0.2-1.7-1.5-2.8-3.6-2.8c-2,0-3,0.8-3,2c0,3.9,11.8,1.5,11.9,9.3
		C688.2,216.2,685,218.9,679.8,218.9z"/>
	<path d="M692.6,190.2h5.4v16.2l7.1-9h7l-9.4,10.7l9.4,10.6h-7l-7.2-9.1v9.1h-5.4V190.2z"/>
	<path d="M714.5,191.6c0-1.8,1.4-3.1,3.3-3.1c1.9,0,3.3,1.4,3.3,3.1s-1.4,3.1-3.3,3.1C715.8,194.8,714.5,193.4,714.5,191.6z
		 M715,197.3h5.4v21.3H715V197.3z"/>
	<path d="M725.7,190.2h5.4v28.4h-5.4V190.2z"/>
	<path d="M736.4,190.2h5.4v28.4h-5.4V190.2z"/>
</g>
<path id="Caminho_14" class="st0" d="M226.8,188.8H100.9v-16.7c0-14.1,11.4-25.5,25.5-25.5c0,0,0,0,0,0h125.9v16.7
	C252.4,177.4,240.9,188.8,226.8,188.8C226.8,188.8,226.8,188.8,226.8,188.8z"/>
<linearGradient id="Caminho_15_1_" gradientUnits="userSpaceOnUse" x1="-805.634" y1="565.4699" x2="-802.2656" y2="559.7547" gradientTransform="matrix(11.007 0 0 -39.425 9026.916 22356.002)">
	<stop  offset="0" style="stop-color:#98C33D"/>
	<stop  offset="0.228" style="stop-color:#93BD3E"/>
	<stop  offset="0.533" style="stop-color:#86AC3F"/>
	<stop  offset="0.88" style="stop-color:#70913C"/>
	<stop  offset="1" style="stop-color:#678639"/>
</linearGradient>
<path id="Caminho_15" class="st2" d="M155.5,243.5V117.6c0-14.1,11.4-25.5,25.5-25.5c0,0,0,0,0,0h16.7V218
	c0,14.1-11.4,25.5-25.5,25.5c0,0,0,0,0,0H155.5z"/>
<linearGradient id="Caminho_16_1_" gradientUnits="userSpaceOnUse" x1="-840.8818" y1="566.8248" x2="-837.041" y2="566.8248" gradientTransform="matrix(93.3135 0 0 -60.036 78465.5859 34145.1914)">
	<stop  offset="0" style="stop-color:#98C33D"/>
	<stop  offset="0.704" style="stop-color:#2EADDF"/>
	<stop  offset="0.957" style="stop-color:#2EADDF"/>
	<stop  offset="1" style="stop-color:#2EADDF"/>
</linearGradient>
<path id="Caminho_16" class="st3" d="M353.4,81.3c-5.8-16.3-16-30.8-29.4-41.9c-3.3-2.8-6.9-5.3-10.5-7.6l-5.7-3.3
	c-2-1-4.1-2.1-6.2-3l-1.5-0.7l-1.3-0.5l-2.8-1l-1.3-0.5l-0.7-0.3l-0.6-0.2l-0.2-0.1l-0.4-0.1l-3.1-0.9c-2.1-0.6-4.2-1.2-6.3-1.7
	c-2.2-0.4-4.2-0.9-6.4-1.2c-17.2-2.5-34.8-0.9-51.3,4.7c-8.2,2.7-16.1,6.3-23.5,10.8c-4.1,2.4-8,5.1-11.7,8
	c-10-10.9-21.7-20-34.7-27.1c-8.2-4.5-17-8-26-10.5c-2.3-0.6-4.5-1.2-6.8-1.7c-2.4-0.5-4.9-0.8-7.2-1.2l-6.7-0.7
	c-2.4-0.1-4.8-0.3-7.1-0.3c-9.5-0.1-18.9,1.1-28.1,3.5c-9.2,2.4-18,5.9-26.2,10.6c-8.3,4.7-15.8,10.6-22.3,17.5
	c-1.7,1.8-3.3,3.7-5,5.7l-1.9,2.6l-0.9,1.3l-0.5,0.6l-0.4,0.6l-0.2,0.4l-3.8,6l-3.2,6.3c-7.6,17-10.6,35.7-8.7,54.3
	c0.9,9,2.8,17.9,5.6,26.6c1.3,4.2,3.1,8.6,4.9,12.7l2.9,6l3.2,5.9c4.5,7.6,9.7,14.8,15.4,21.6c5.6,6.7,11.7,12.9,18.3,18.7
	c13,11.4,27.2,21.3,42.3,29.7c-13.5-10.3-26.2-21.8-37.7-34.3c-5.6-6.2-10.9-12.8-15.7-19.6c-4.7-6.8-8.9-13.9-12.5-21.4l-2.6-5.6
	l-2.3-5.8c-1.3-3.8-2.5-7.5-3.5-11.5c-1.9-7.8-3-15.8-3.2-23.9c-0.3-7.9,0.4-15.8,2-23.6c1.5-7.6,4.1-15,7.8-21.8l2.9-5l3.2-4.7
	l3.8-4.7l3.7-3.8c5.5-5.3,11.7-9.8,18.4-13.3c13.6-7.2,28.8-10.7,44.1-10.2l5.7,0.3l6,0.8c1.8,0.4,3.5,0.6,5.4,1
	c1.9,0.5,3.7,0.8,5.6,1.4c7.4,2.2,14.5,5.2,21.3,8.9c13.7,7.6,25.6,17.9,35.2,30.2l7.6,9.6l8.9-8.4c10.2-9.7,22.4-17.1,35.7-21.7
	c13.2-4.7,27.4-6.3,41.3-4.7c1.7,0.2,3.5,0.4,5.2,0.8c1.7,0.3,3.4,0.7,5.1,1.2l2.5,0.6l0.3,0.1h0.2l0.4,0.2l1.3,0.5l2.8,0.9l1.3,0.5
	l1.2,0.5l4.4,2l4.5,2.5c3,1.8,5.9,3.7,8.7,5.9c5.6,4.3,10.6,9.3,15,14.8c4.4,5.5,8,11.7,10.6,18.2c2.7,6.5,4.4,13.3,5.2,20.3
	l0.2,5.3v1.2L343,116l-0.1,2.9c-0.2,3.5-0.7,6.9-1.4,10.3c-1.5,7.1-3.9,14.1-7,20.7c-3.3,6.7-7.2,13.1-11.6,19.1
	c-9.3,12.1-20.2,23-32.4,32.3c-12.2,9.6-25.2,18.3-38.2,27.1c14.3-6.6,28.2-14.1,41.7-22.2c13.7-8.3,26.2-18.6,37.1-30.4
	c5.5-6.1,10.3-12.8,14.4-19.9c4.2-7.3,7.5-15,9.8-23c1.2-4.2,2.1-8.4,2.7-12.7l0.3-2.9l0.1-1.4v-1.9l0.1-6.5
	C358.1,98.4,356.4,89.7,353.4,81.3z"/>
<g id="Grupo_5" transform="translate(110.216 27.338)">
	<path id="Caminho_17" class="st4" d="M352.4,121.3h-26.8v26.6h-12.5V85.4h12.5v25.6h26.8V85.4h12.5v62.4h-12.5V121.3z"/>
	<path id="Caminho_18" class="st4" d="M399.2,148.6c-14.1-0.2-25.3-11.8-25.1-25.9s11.8-25.3,25.9-25.1
		c13.9,0.2,25.1,11.6,25.1,25.5c0.4,13.7-10.4,25.2-24.2,25.5C400.4,148.6,399.8,148.6,399.2,148.6z M399.2,137.7
		c6.6,0,12.9-4.9,12.9-14.7c0-9.9-6.2-14.7-12.8-14.7c-6.6,0-12.6,4.8-12.6,14.7C386.8,132.8,392.5,137.7,399.2,137.7L399.2,137.7z"
		/>
	<path id="Caminho_19" class="st4" d="M453.3,148.6c-12.4,0-21.1-7.2-21.6-16.4h12.6c0.8,4.2,4.7,7.1,9,6.6c5,0,7.6-2.3,7.6-5.1
		c0-8.9-28-3.2-28-21.4c0-8.3,7.3-14.9,19.6-14.9c12,0,19.2,6.5,19.9,16.3h-12c-0.5-4-4.1-6.9-8.1-6.4c0,0-0.1,0-0.1,0
		c-4.7,0-7,1.9-7,4.8c0,9,27.5,3.4,27.8,21.6C472.7,142.2,465.3,148.6,453.3,148.6z"/>
	<path id="Caminho_20" class="st4" d="M511.9,97.4c12.7,0,22.6,9.9,22.6,25.4c0,15.5-9.9,25.7-22.6,25.7c-6.4,0.1-12.4-2.8-16.3-7.9
		v60.7H483V98.2h12.5v7.1C499.4,100.3,505.5,97.3,511.9,97.4z M508.6,108.5c-8,0.9-13.8,8.2-12.9,16.2c0.8,6.8,6.1,12.1,12.9,12.9
		c7.5-0.2,13.4-6.4,13.2-13.9c0-0.3,0-0.6-0.1-0.9c0.7-7.2-4.7-13.6-11.9-14.3C509.4,108.5,509,108.5,508.6,108.5z"/>
	<path id="Caminho_21" class="st4" d="M542.4,85c-0.2-4.2,3.1-7.8,7.3-8c4.2-0.2,7.8,3.1,8,7.3c0.2,4.2-3.1,7.8-7.3,8
		c-0.1,0-0.2,0-0.3,0c-4,0.2-7.4-2.9-7.6-6.9C542.4,85.3,542.4,85.1,542.4,85z M543.7,98.2h12.5v49.5h-12.5L543.7,98.2z"/>
	<path id="Caminho_22" class="st4" d="M570.5,108.6h-5.9V98.2h5.9V85.9h12.6v12.3h11.1v10.3h-11.1v24c0,3.3,1.3,4.8,5.3,4.8h5.8
		v10.5h-7.9c-9.5,0-15.8-4-15.8-15.4L570.5,108.6z"/>
	<path id="Caminho_23" class="st4" d="M622.7,97.4c6.4-0.2,12.5,2.7,16.3,7.9v-7h12.6v49.5H639v-7.2c-3.8,5.3-10,8.3-16.4,8.1
		c-12.5,0-22.5-10.3-22.5-25.7S610.1,97.4,622.7,97.4z M625.9,108.5c-7.3,0-13.1,6-13.1,13.2c0,0.4,0,0.8,0.1,1.2
		c-0.7,7.4,4.8,14,12.2,14.7c0.3,0,0.5,0,0.8,0.1c8-0.8,13.9-8,13.1-16.1C638.2,114.6,632.8,109.2,625.9,108.5z"/>
	<path id="Caminho_24" class="st4" d="M663.8,81.6h12.6v66.2h-12.5V81.6H663.8z"/>
	<path id="Caminho_25" class="st4" d="M708.1,97.4c6.4-0.2,12.5,2.7,16.3,7.9v-7h12.6v49.5h-12.6v-7.2c-3.8,5.3-10,8.3-16.4,8.1
		c-12.5,0-22.5-10.3-22.5-25.7S695.5,97.4,708.1,97.4z M711.4,108.5c-7.3,0-13.1,6-13.1,13.2c0,0.4,0,0.8,0.1,1.2
		c-0.7,7.4,4.8,14,12.2,14.7c0.3,0,0.5,0,0.8,0.1c8-0.8,13.9-8,13.1-16.1C723.7,114.6,718.2,109.2,711.4,108.5z"/>
	<path id="Caminho_26" class="st4" d="M761.9,147.9h-12.5V98.3h12.5v7.6c3.2-5.3,9-8.5,15.2-8.4v13.1h-3.3
		c-7.4,0-11.9,2.9-11.9,12.4L761.9,147.9z"/>
</g>
</svg>
