<?xml version="1.0" standalone="no"?>
<!DOCTYPE svg PUBLIC "-//W3C//DTD SVG 20010904//EN"
 "http://www.w3.org/TR/2001/REC-SVG-20010904/DTD/svg10.dtd">
<svg version="1.0" xmlns="http://www.w3.org/2000/svg"
 width="512.000000pt" height="512.000000pt" viewBox="0 0 512.000000 512.000000"
 preserveAspectRatio="xMidYMid meet">

<g transform="translate(0.000000,512.000000) scale(0.100000,-0.100000)"
fill="#000000" stroke="none">
<path d="M3684 4631 c-16 -4 -54 -21 -83 -37 -95 -51 -149 -140 -158 -260 l-6
-72 -61 -60 c-420 -409 -1097 -762 -1784 -929 l-107 -27 -585 -5 -585 -6 -60
-28 c-78 -36 -146 -104 -182 -181 l-28 -61 0 -405 0 -405 28 -60 c37 -78 104
-146 181 -182 56 -25 73 -28 203 -31 l142 -4 3 -444 3 -444 33 -32 32 -33 250
0 250 0 29 30 c27 27 39 65 131 435 56 223 106 422 111 444 l10 38 47 -7 c161
-23 514 -133 751 -235 405 -173 746 -378 1016 -611 164 -142 172 -152 178
-235 10 -123 64 -208 169 -265 58 -31 70 -34 148 -34 78 0 90 3 148 34 70 38
100 69 140 145 l27 51 0 1845 0 1845 -34 63 c-38 70 -70 101 -143 138 -54 27
-158 40 -214 25z m131 -256 l25 -24 0 -1791 0 -1791 -25 -24 c-32 -33 -78 -33
-110 0 l-25 24 0 1791 0 1791 25 24 c15 16 36 25 55 25 19 0 40 -9 55 -25z
m-375 -1815 l0 -1370 -107 86 c-431 342 -1017 630 -1586 779 -73 19 -162 39
-199 46 l-68 11 0 448 0 448 90 17 c130 23 361 88 524 147 468 168 908 407
1236 672 58 46 106 85 108 85 1 1 2 -615 2 -1369z m-2840 -1 l0 -441 -125 4
-125 3 -32 33 -33 32 0 369 0 369 25 27 c36 40 53 44 178 44 l112 1 0 -441z
m640 1 l0 -440 -200 0 -200 0 0 440 0 440 200 0 200 0 0 -440z m-122 -1040
l-90 -360 -94 0 -94 0 0 360 0 360 184 0 184 0 -90 -360z"/>
<path d="M4495 3624 c-110 -52 -210 -106 -222 -120 -68 -75 -12 -194 90 -194
24 0 100 31 240 99 172 83 208 104 221 129 44 84 -11 182 -101 182 -15 0 -118
-43 -228 -96z"/>
<path d="M4515 2671 c-44 -19 -70 -60 -70 -112 0 -42 5 -53 33 -81 l32 -33
250 0 250 0 32 33 c28 28 33 39 33 82 0 43 -5 54 -33 82 l-32 33 -238 2 c-130
1 -246 -2 -257 -6z"/>
<path d="M4292 1785 c-17 -14 -37 -44 -43 -65 -10 -32 -9 -44 7 -77 18 -35 33
-45 219 -136 110 -55 216 -101 236 -104 95 -14 160 89 113 179 -13 25 -48 46
-212 125 -228 111 -269 121 -320 78z"/>
</g>
</svg>
