<?xml version="1.0" encoding="iso-8859-1"?>
<!-- Generator: Adobe Illustrator 19.0.0, SVG Export Plug-In . SVG Version: 6.00 Build 0)  -->
<svg version="1.1" id="Capa_1" xmlns="http://www.w3.org/2000/svg" xmlns:xlink="http://www.w3.org/1999/xlink" x="0px" y="0px"
	 viewBox="0 0 480.17 480.17" style="enable-background:new 0 0 480.17 480.17;" xml:space="preserve">
<g>
	<g>
		<path d="M285.685,197.482c51.616-25.197,73.032-87.467,47.834-139.082c-25.197-51.616-87.467-73.032-139.082-47.834
			c-51.616,25.197-73.032,87.467-47.834,139.082c10.169,20.83,27.004,37.666,47.834,47.834
			C104.092,218.776,40.212,299.349,40.085,392.17v80c0,4.418,3.582,8,8,8h384c4.418,0,8-3.582,8-8v-80
			C439.953,299.335,376.049,218.757,285.685,197.482z M152.085,104.17c0-48.601,39.399-88,88-88s88,39.399,88,88s-39.399,88-88,88
			C191.508,192.113,152.142,152.747,152.085,104.17z M424.085,464.17h-368v-72c0.063-70.2,40.026-134.26,103.048-165.184
			c-18.289,19.125-29.175,44.134-30.712,70.552c-12.553,4.256-19.279,17.882-15.023,30.435
			c4.256,12.553,17.882,19.279,30.435,15.023c12.553-4.256,19.279-17.882,15.023-30.435c-2.327-6.865-7.633-12.31-14.435-14.815
			c3.494-52.842,49.163-92.847,102.005-89.353c47.721,3.155,85.821,40.992,89.307,88.689c-18.435,3.955-31.615,20.233-31.648,39.088
			v32h16v-32c0-13.255,10.745-24,24-24s24,10.745,24,24v32h16v-32c-0.05-19.117-13.605-35.534-32.368-39.2
			c-1.669-26.203-12.534-50.976-30.68-69.952c63.011,30.919,102.972,94.964,103.048,165.152V464.17z M144.085,320.17
			c0,4.418-3.582,8-8,8s-8-3.582-8-8s3.582-8,8-8S144.085,315.752,144.085,320.17z"/>
	</g>
</g>
<g>
</g>
<g>
</g>
<g>
</g>
<g>
</g>
<g>
</g>
<g>
</g>
<g>
</g>
<g>
</g>
<g>
</g>
<g>
</g>
<g>
</g>
<g>
</g>
<g>
</g>
<g>
</g>
<g>
</g>
</svg>
