<svg xmlns="http://www.w3.org/2000/svg" width="29.427" height="29.113" viewBox="0 0 29.427 29.113"><defs><style>.a{fill:#7e7e7e;}</style></defs><g transform="translate(-930.966 -521.594)"><path class="a" d="M958.725,524.566a7.778,7.778,0,0,0-13.779,3.459,11.474,11.474,0,0,0-10.44,19.486l-2.475,2.474a.387.387,0,0,0-.094.452.413.413,0,0,0,.384.269h10.072a11.636,11.636,0,0,0,8.367-3.574,11.345,11.345,0,0,0,3.161-8.41,11.839,11.839,0,0,0-.187-1.557h5.644a.372.372,0,0,0,.355-.246.388.388,0,0,0-.088-.456l-1.555-1.554a7.79,7.79,0,0,0,.635-10.344Zm-16.331,25.325h-9.112l2.106-2.108a.419.419,0,0,0,.112-.287.381.381,0,0,0-.133-.3,10.589,10.589,0,0,1-3.562-8.647,10.633,10.633,0,0,1,13.047-9.708c-.012.182-.031.365-.031.546a7.8,7.8,0,0,0,7.787,7.781h.292a9.776,9.776,0,0,1,.2,1.6,10.593,10.593,0,0,1-2.933,7.8A10.8,10.8,0,0,1,942.394,549.891Zm10.213-13.541a6.98,6.98,0,0,1-6.969-6.972,6.6,6.6,0,0,1,.032-.808v0h0a6.989,6.989,0,0,1,6.938-6.158h0a6.97,6.97,0,0,1,4.619,12.182.378.378,0,0,0-.137.3.432.432,0,0,0,.116.295l1.18,1.164Z"/><path class="a" d="M942.457,536.658a2.26,2.26,0,0,0-2.258,2.257v5.244a2.251,2.251,0,0,0,2.249,2.234h.013a2.264,2.264,0,0,0,2.252-2.257v-5.221A2.259,2.259,0,0,0,942.457,536.658Zm1.439,2.257v5.218a1.439,1.439,0,0,1-1.4,1.4h-.039a1.439,1.439,0,0,1-1.438-1.4V538.9a1.434,1.434,0,0,1,1.433-1.423h.011A1.448,1.448,0,0,1,943.9,538.915Z"/><path class="a" d="M942.479,531.438h-.011a2.248,2.248,0,0,0-.008,4.5h.013a2.245,2.245,0,0,0,2.244-2.24A2.25,2.25,0,0,0,942.479,531.438Zm-.018.816h.039a1.433,1.433,0,0,1-.03,2.865h0a1.432,1.432,0,0,1,0-2.864Z"/></g></svg>