<svg xmlns="http://www.w3.org/2000/svg" width="28.658" height="28.657" viewBox="0 0 28.658 28.657"><defs><style>.a{fill:#7e7e7e;}</style></defs><g transform="translate(-990.305 -513.374)"><path class="a" d="M991.969,542.031a1.673,1.673,0,0,1-1.664-1.666V518.29a1.672,1.672,0,0,1,1.665-1.669H994.2v-.609a2.639,2.639,0,0,1,5.278,0v.609h2.515v-.609a2.639,2.639,0,0,1,5.278,0v.609h2.515v-.609a2.639,2.639,0,0,1,5.278,0v.609h2.232a1.674,1.674,0,0,1,1.665,1.67v22.075a1.676,1.676,0,0,1-1.666,1.665Zm-.932-1.665a.936.936,0,0,0,.931.933H1017.3a.935.935,0,0,0,.931-.932V522.549H991.037Zm.932-23.008a.935.935,0,0,0-.931.931v3.527h27.192l0-3.525a.938.938,0,0,0-.932-.933h-2.232v1.584a.366.366,0,0,1-.733,0v-1.584h-7.061v1.584a.367.367,0,0,1-.733,0v-1.584h-7.061v1.584a.367.367,0,0,1-.733,0v-1.584Zm20.411-3.292a1.906,1.906,0,0,0-1.86,1.954v.6h3.814v-.609a1.937,1.937,0,0,0-1.907-1.947h-.047Zm-7.793,0a1.906,1.906,0,0,0-1.86,1.954v.6h3.814v-.609a1.937,1.937,0,0,0-1.907-1.947h-.047Zm-7.746.079a1.92,1.92,0,0,0-1.907,1.86l.007.616h3.807v-.609a1.908,1.908,0,0,0-1.86-1.866Z"/><path class="a" d="M1004.636,538.784a.492.492,0,0,1-.284-.1l-6.736-6.123a4.39,4.39,0,0,1-1.225-4.668,4.1,4.1,0,0,1,3.649-2.8h.373a5.172,5.172,0,0,1,3.968,1.848l.216.258.217-.258a5.173,5.173,0,0,1,3.968-1.847h.394a4.045,4.045,0,0,1,3.631,2.792,4.3,4.3,0,0,1-1.186,4.668l-6.755,6.139a.339.339,0,0,1-.228.088Zm-7.511-10.655a3.616,3.616,0,0,0,.983,3.875l6.523,5.92,6.522-5.919a3.558,3.558,0,0,0,.985-3.879,3.353,3.353,0,0,0-3.01-2.329h-.309a4.513,4.513,0,0,0-3.883,2.253.35.35,0,0,1-.3.179.348.348,0,0,1-.3-.177,4.563,4.563,0,0,0-3.882-2.255h-.295a3.367,3.367,0,0,0-3.029,2.339Z"/></g></svg>