<svg xmlns="http://www.w3.org/2000/svg" width="54" height="58" viewBox="0 0 54 58"><defs><style>.a{fill:#2c363e;}</style></defs><path class="a" d="M42,33A12,12,0,1,0,54,45,12.01,12.01,0,0,0,42,33Zm0,22A10,10,0,1,1,52,45,10.016,10.016,0,0,1,42,55Z"/><path class="a" d="M48,44H43V39a1,1,0,0,0-2,0v6a1,1,0,0,0,1,1h6a1,1,0,0,0,0-2Z"/><path class="a" d="M6.83,18h13a1,1,0,1,0,0-2h-13a1,1,0,0,0,0,2Z"/><path class="a" d="M6.83,46a1,1,0,0,0,0,2H21a1,1,0,0,0,0-2Z"/><path class="a" d="M35.83,22h-29a1,1,0,1,0,0,2h29a1,1,0,0,0,0-2Z"/><path class="a" d="M28,35a1,1,0,0,0-1-1H6.83a1,1,0,0,0,0,2H27A1,1,0,0,0,28,35Z"/><path class="a" d="M25,41a1,1,0,0,0-1-1H6.83a1,1,0,0,0,0,2H24A1,1,0,0,0,25,41Z"/><path class="a" d="M6.83,30h14a1,1,0,1,0,0-2h-14a1,1,0,0,0,0,2Z"/><path class="a" d="M28.83,30h7a1,1,0,0,0,0-2h-7a1,1,0,0,0,0,2Z"/><path class="a" d="M25.54,29.71a1.014,1.014,0,0,0,0-1.42,1.034,1.034,0,0,0-1.41,0,1.017,1.017,0,0,0-.3.71,1.052,1.052,0,0,0,.29.71.99.99,0,0,0,.71.29A1.014,1.014,0,0,0,25.54,29.71Z"/><path class="a" d="M30,56H2V8H9v2a1,1,0,0,0,1,1H33a1,1,0,0,0,1-1V8h7V27a1,1,0,0,0,2,0V7a1,1,0,0,0-1-1H34V4a1,1,0,0,0-1-1H27V1a1,1,0,0,0-1-1H17a1,1,0,0,0-1,1V3H10A1,1,0,0,0,9,4V6H1A1,1,0,0,0,0,7V57a1,1,0,0,0,1,1H30a1,1,0,0,0,0-2ZM18,2h7V6H18V2ZM11,5h5V7a1,1,0,0,0,1,1h9a1,1,0,0,0,1-1V5h5V9H11V5Z"/></svg>