<svg xmlns="http://www.w3.org/2000/svg" width="33.076" height="32.145" viewBox="0 0 33.076 32.145"><defs><style>.a{fill:#2c363e;fill-rule:evenodd;}</style></defs><g transform="translate(114.562 374.97)"><path class="a" d="M17.178,2.03.8,17.724a.515.515,0,0,0,.714.744L17.178,3.461,32.845,18.468a.516.516,0,0,0,.714-.744ZM28.985,32.138a1.008,1.008,0,0,1-1.005,1.005H21.172V26.12a2.346,2.346,0,0,0-2.345-2.345H15.509a2.346,2.346,0,0,0-2.345,2.345v7.023H6.386a1.006,1.006,0,0,1-1.005-1.005V19.175a.516.516,0,1,0-1.032,0V31.83a2.346,2.346,0,0,0,2.345,2.345h7.5V25.812A1.006,1.006,0,0,1,15.2,24.807h3.933a1,1,0,0,1,1.005,1.005v8.363h7.529a2.346,2.346,0,0,0,2.345-2.345V19.175a.514.514,0,1,0-1.029,0V32.138ZM27.414,9.582a.516.516,0,1,0,1.032,0V6.62A2.346,2.346,0,0,0,26.1,4.275H23.343a.516.516,0,1,0,0,1.032h3.065a1.006,1.006,0,0,1,1.005,1.005v3.27Z" transform="translate(-115.202 -377)"/></g></svg>