<svg xmlns="http://www.w3.org/2000/svg" width="29.225" height="29.21" viewBox="0 0 29.225 29.21"><defs><style>.a{fill:#7e7e7e;}</style></defs><g transform="translate(-1 -1.028)"><path class="a" d="M28.687,22.409l-.127-.085h0c-.438-.3-2.437-1.6-3.771-2.46-.547-.358-.985-.641-1.15-.754a2.748,2.748,0,0,0-3.7.7l-.156.193a2.705,2.705,0,0,1-1.862,1.324c-1.164.071-2.828-.971-4.94-3.087s-3.153-3.771-3.083-4.935a2.705,2.705,0,0,1,1.324-1.862l.193-.156a2.748,2.748,0,0,0,.7-3.7c-.108-.16-.387-.584-.735-1.122C10.512,5.134,9.2,3.122,8.9,2.693l-.085-.127A2.666,2.666,0,0,0,6.124,1.057,7.186,7.186,0,0,0,1,7.877c0,3.978,2.927,9.22,8.036,14.348s10.346,8.013,14.324,8.013A7.222,7.222,0,0,0,30.2,25.1,2.666,2.666,0,0,0,28.687,22.409Zm.594,2.559a6.342,6.342,0,0,1-5.92,4.327c-3.747,0-8.725-2.828-13.669-7.758S1.943,11.625,1.943,7.877A6.342,6.342,0,0,1,6.27,1.957a1.678,1.678,0,0,1,.259,0c.7,0,1.07.471,1.541,1.122l.09.132c.3.434,1.6,2.442,2.47,3.771.349.537.627.943.731,1.127a1.81,1.81,0,0,1-.5,2.456l-.189.146a3.484,3.484,0,0,0-1.7,2.559c-.085,1.48.985,3.3,3.361,5.656s4.176,3.441,5.656,3.361a3.571,3.571,0,0,0,2.55-1.678l.146-.189a1.81,1.81,0,0,1,2.475-.518l1.155.754c1.315.853,3.3,2.149,3.738,2.446l.132.09C28.885,23.682,29.389,24.111,29.281,24.969Z"/></g></svg>