<svg xmlns="http://www.w3.org/2000/svg" xmlns:xlink="http://www.w3.org/1999/xlink" width="228.811" height="97.709" viewBox="0 0 228.811 97.709"><defs><style>.a{fill:#98c33e;}.b{fill:url(#a);}.c,.d{fill:#d9d9d9;}.d{stroke:#d9d9d9;}</style><linearGradient id="a" x1="0.089" y1="-0.196" x2="0.966" y2="1.292" gradientUnits="objectBoundingBox"><stop offset="0" stop-color="#98c33e"/><stop offset="0.228" stop-color="#93bd3c"/><stop offset="0.533" stop-color="#86ac37"/><stop offset="0.88" stop-color="#70902e"/><stop offset="1" stop-color="#67852b"/></linearGradient></defs><g transform="translate(-360.607 -51)"><path class="a" d="M148.515,158.9H97.6v-6.772A10.321,10.321,0,0,1,107.925,141.8H158.84v6.772A10.321,10.321,0,0,1,148.515,158.9Z" transform="translate(345.66 -37.791)"/><path class="b" d="M150.4,150.34V99.425A10.321,10.321,0,0,1,160.725,89.1H167.5v50.915a10.321,10.321,0,0,1-10.325,10.325Z" transform="translate(314.932 -7.121)"/><g transform="translate(483 36.318)"><path class="a" d="M56.182,39.064c-.034.034-.065.066-.1.1a3.478,3.478,0,0,0-.951,2.442,3.5,3.5,0,0,0,5.93,2.505c.015-.015.031-.032.048-.047A3.3,3.3,0,0,0,62.143,41.6a3.391,3.391,0,0,0-1.031-2.489.49.49,0,0,1-.048-.047,3.608,3.608,0,0,0-4.883,0Z" transform="translate(-10.134 -6.718)"/><path class="a" d="M39.578,14.682a19.078,19.078,0,0,0-14,5.787,19.086,19.086,0,0,0-5.788,14,19.015,19.015,0,0,0,4.234,12.275A3.416,3.416,0,0,1,21.6,49.187a1.9,1.9,0,0,0-1.1.444,1.836,1.836,0,0,0-.618.984,1.864,1.864,0,0,0,.063,1.174,1.891,1.891,0,0,0,.745.9,7.807,7.807,0,0,0,6.567,1.221A8.02,8.02,0,0,0,30.6,52.168a19.45,19.45,0,0,0,8.975,2.094,19.074,19.074,0,0,0,14-5.788,19.078,19.078,0,0,0,5.787-14,19.083,19.083,0,0,0-5.787-14A19.076,19.076,0,0,0,39.578,14.682ZM50.883,45.777a15.4,15.4,0,0,1-11.306,4.679,15.221,15.221,0,0,1-8.341-2.3,1.866,1.866,0,0,0-1.382-.27,1.838,1.838,0,0,0-1.173.745A4.148,4.148,0,0,1,26.6,50.138a12.486,12.486,0,0,0,1.4-3.3,1.829,1.829,0,0,0,.016-.937,1.892,1.892,0,0,0-.428-.84,15.374,15.374,0,0,1-4-10.593,15.405,15.405,0,0,1,4.68-11.307,15.4,15.4,0,0,1,11.307-4.677A15.97,15.97,0,0,1,55.561,34.47,15.4,15.4,0,0,1,50.883,45.777Z" transform="translate(0 0)"/><path class="a" d="M48.3,39.064a3.472,3.472,0,0,0-2.442-.952A3.463,3.463,0,0,0,42.374,41.6a3.3,3.3,0,0,0,.984,2.411c.031.033.063.064.1.095a3.3,3.3,0,0,0,2.41.984,3.382,3.382,0,0,0,2.442-.984l.048-.047A3.3,3.3,0,0,0,49.384,41.6a3.389,3.389,0,0,0-1.031-2.489A.278.278,0,0,1,48.3,39.064Z" transform="translate(-6.476 -6.717)"/><path class="a" d="M35.545,39.064a3.473,3.473,0,0,0-2.442-.952A3.463,3.463,0,0,0,29.615,41.6a3.293,3.293,0,0,0,.984,2.411,1.322,1.322,0,0,0,.095.095,3.3,3.3,0,0,0,2.41.984,3.382,3.382,0,0,0,2.442-.984l.047-.047A3.305,3.305,0,0,0,36.624,41.6a3.392,3.392,0,0,0-1.031-2.489A.377.377,0,0,1,35.545,39.064Z" transform="translate(-2.818 -6.717)"/></g><g transform="translate(528 82)"><path class="c" d="M61.322,23.042a1.682,1.682,0,0,0-.4-.657L50.79,12.253a1.724,1.724,0,0,0-1.2-.5H37.77a6.757,6.757,0,1,0-13.513,0H19.189A1.689,1.689,0,0,0,17.5,13.446V64.12a1.689,1.689,0,0,0,1.689,1.689h40.54a1.689,1.689,0,0,0,1.689-1.689V23.581a1.633,1.633,0,0,0-.1-.539ZM51.283,17.524l4.368,4.367H51.283ZM31.013,8.378a3.382,3.382,0,0,1,3.378,3.378H27.635A3.382,3.382,0,0,1,31.013,8.378ZM58.04,62.431H20.878v-47.3h3.378V26.959a5.067,5.067,0,1,0,10.135,0V20.2a1.689,1.689,0,1,0-3.378,0v6.757a1.689,1.689,0,0,1-3.378,0V15.135H47.9v8.446a1.689,1.689,0,0,0,1.689,1.689H58.04Z"/><path class="c" d="M32.884,60.63A1.689,1.689,0,0,0,30.5,63.018l6.757,6.757a1.688,1.688,0,0,0,2.388,0L56.532,52.884A1.689,1.689,0,1,0,54.143,50.5l-15.7,15.7Z" transform="translate(-4.054 -14.595)"/></g><g transform="translate(335 59.172)"><path class="d" d="M89.673,68.02a1.947,1.947,0,0,0-.576-1.392l-5.041-5.04a1.955,1.955,0,0,0-1.392-.578h0a1.956,1.956,0,0,0-1.392.576l-7.492,7.492A27.955,27.955,0,0,0,60.588,61.7,18.074,18.074,0,1,0,47.4,61.75,28.131,28.131,0,0,0,26.107,89.037h2.046A25.906,25.906,0,0,1,72.335,70.523L64.3,78.557a1,1,0,0,0-.374.582L62.09,87.371a1.023,1.023,0,0,0,1,1.245,1.037,1.037,0,0,0,.222-.025l8.231-1.835a1.011,1.011,0,0,0,.587-.382l6.329-6.328a26.024,26.024,0,0,1,1.6,8.99H82.1a28.018,28.018,0,0,0-2.069-10.564L89.1,69.411A1.956,1.956,0,0,0,89.673,68.02ZM53.934,60.93A16.028,16.028,0,1,1,69.962,44.9,16.046,16.046,0,0,1,53.934,60.93Zm16.848,23.9-6.344,1.414L65.853,79.9l11.8-11.8,4.931,4.931ZM84.03,71.584,79.1,66.653l3.565-3.565L87.6,68.018Z"/></g></g></svg>