<svg xmlns="http://www.w3.org/2000/svg" xmlns:xlink="http://www.w3.org/1999/xlink" width="231" height="63.404" viewBox="0 0 231 63.404"><defs><style>.a{fill:#98c33e;}.b{font-size:10px;font-family:Poppins-SemiBold, Poppins;font-weight:600;}.c{fill:url(#a);}.d{fill:url(#b);}.e{fill:#31ade0;}</style><linearGradient id="a" x1="0.089" y1="-0.196" x2="0.966" y2="1.292" gradientUnits="objectBoundingBox"><stop offset="0" stop-color="#98c33e"/><stop offset="0.228" stop-color="#93bd3c"/><stop offset="0.533" stop-color="#86ac37"/><stop offset="0.88" stop-color="#70902e"/><stop offset="1" stop-color="#67852b"/></linearGradient><linearGradient id="b" y1="0.5" x2="1" y2="0.5" gradientUnits="objectBoundingBox"><stop offset="0" stop-color="#98c33e"/><stop offset="0.704" stop-color="#31ade0"/><stop offset="0.957" stop-color="#31ade0"/><stop offset="1" stop-color="#31ade0"/></linearGradient></defs><g transform="translate(-0.02 0.006)"><g transform="translate(109.543 7.127)"><path class="a" d="M415.235,26.5a7.677,7.677,0,0,1,7.643,5.275h-3.741a4.1,4.1,0,0,0-3.9-2.341c-2.853,0-4.871,2.072-4.871,5.382,0,3.283,2.018,5.382,4.871,5.382a4.077,4.077,0,0,0,3.9-2.341h3.741a7.645,7.645,0,0,1-7.643,5.275A8,8,0,0,1,407,34.842,8.032,8.032,0,0,1,415.235,26.5Z" transform="translate(-407 -26.5)"/><path class="a" d="M479.686,52.294a6.259,6.259,0,0,1-6.486-6.647c0-4.064,2.664-6.647,6.486-6.647a6.053,6.053,0,0,1,6.351,6.378,9.988,9.988,0,0,1-.081,1.265h-9.419a3.029,3.029,0,0,0,3.095,2.987,2.667,2.667,0,0,0,2.583-1.561h3.525A6.05,6.05,0,0,1,479.686,52.294Zm-3.149-7.858h6.136a2.873,2.873,0,0,0-3.068-2.772A3.015,3.015,0,0,0,476.537,44.436Z" transform="translate(-455.385 -35.636)"/><path class="a" d="M538.815,44.974c0-2.072-1.13-3.2-2.853-3.2-1.776,0-2.906,1.13-2.906,3.2v7.131H529.8V39.188h3.256V40.8a4.8,4.8,0,0,1,3.9-1.8c3.014,0,5.14,1.965,5.14,5.517v7.562h-3.256v-7.1Z" transform="translate(-496.753 -35.636)"/><path class="a" d="M584.734,33.767H583.2V31.076h1.534V27.9h3.283v3.2H590.9v2.691h-2.879v6.243c0,.861.35,1.238,1.372,1.238H590.9V44.02h-2.045c-2.476,0-4.117-1.05-4.117-4.01Z" transform="translate(-535.783 -27.523)"/><path class="a" d="M623.756,52.106H620.5V39.188h3.256V41.18A4.459,4.459,0,0,1,627.712,39v3.418h-.861c-1.938,0-3.095.754-3.095,3.229Z" transform="translate(-563.045 -35.636)"/><path class="a" d="M659.039,52.294a6.316,6.316,0,0,1-6.539-6.647,6.647,6.647,0,0,1,13.294,0A6.472,6.472,0,0,1,659.039,52.294Zm0-2.826c1.722,0,3.364-1.265,3.364-3.821,0-2.583-1.615-3.821-3.337-3.821s-3.283,1.238-3.283,3.821C655.783,48.2,657.29,49.468,659.039,49.468Z" transform="translate(-586.433 -35.636)"/></g><text class="b" transform="translate(160.801 57.386)"><tspan x="0" y="0">upskill</tspan></text><path class="a" d="M130.378,152.807H97.6v-4.36a6.644,6.644,0,0,1,6.647-6.647h32.778v4.36A6.644,6.644,0,0,1,130.378,152.807Z" transform="translate(-71.32 -103.644)"/><path class="c" d="M150.4,128.525V95.747a6.644,6.644,0,0,1,6.647-6.647h4.36v32.778a6.644,6.644,0,0,1-6.647,6.647Z" transform="translate(-109.911 -65.126)"/><path class="d" d="M92.024,21.175a25.1,25.1,0,0,0-7.643-10.9,25.525,25.525,0,0,0-2.745-1.991l-1.48-.861c-.511-.269-1.076-.538-1.615-.78l-.4-.188-.35-.135-.727-.269-.35-.135-.188-.081-.161-.054-.054-.027L76.2,5.728l-.807-.242c-.538-.161-1.1-.323-1.642-.431-.565-.108-1.1-.242-1.668-.323A28.775,28.775,0,0,0,58.735,5.943a30.535,30.535,0,0,0-6.109,2.8,28.843,28.843,0,0,0-3.041,2.072,34.878,34.878,0,0,0-9.042-7.051,31.693,31.693,0,0,0-6.782-2.745c-.592-.161-1.184-.3-1.776-.431C31.366.453,30.72.373,30.1.265L28.352.077C27.733.05,27.114,0,26.5,0a27.848,27.848,0,0,0-7.32.915,27.228,27.228,0,0,0-6.809,2.772A24.956,24.956,0,0,0,6.554,8.231c-.431.457-.861.969-1.292,1.48l-.484.673-.242.35-.135.161-.108.161-.054.108-1,1.561L2.41,14.366A27.705,27.705,0,0,0,.149,28.495,33.276,33.276,0,0,0,1.6,35.411c.35,1.1.807,2.234,1.265,3.31l.754,1.561.834,1.534a41.745,41.745,0,0,0,4.01,5.624,45.292,45.292,0,0,0,4.763,4.871,63.314,63.314,0,0,0,11.007,7.724A77.621,77.621,0,0,1,14.412,51.1a53.184,53.184,0,0,1-4.09-5.113,40.094,40.094,0,0,1-3.256-5.571l-.673-1.453L5.8,37.456c-.35-1-.646-1.965-.915-2.987a28.78,28.78,0,0,1-.834-6.216,25.909,25.909,0,0,1,.511-6.136,20.688,20.688,0,0,1,2.018-5.678l.754-1.292.834-1.211,1-1.211.969-1a21.163,21.163,0,0,1,4.79-3.472A23.149,23.149,0,0,1,26.414,5.593l1.48.081,1.561.215c.457.108.915.161,1.4.269.484.135.969.215,1.453.377A27.754,27.754,0,0,1,37.852,8.85a30.283,30.283,0,0,1,9.177,7.858l1.991,2.5,2.314-2.18a25.983,25.983,0,0,1,9.284-5.651,23.733,23.733,0,0,1,10.764-1.211,11.656,11.656,0,0,1,1.346.215,10.434,10.434,0,0,1,1.319.3l.646.161.081.027h.054l.108.054.35.135.727.242.35.135.3.135,1.157.511L79,12.725a20.875,20.875,0,0,1,2.261,1.534,22.936,22.936,0,0,1,3.9,3.848,19.874,19.874,0,0,1,2.772,4.736,19.018,19.018,0,0,1,1.346,5.275l.054,1.372v.323l-.027.377-.027.754a19.582,19.582,0,0,1-.377,2.691,23.548,23.548,0,0,1-1.83,5.382A35.023,35.023,0,0,1,84.058,44a45.253,45.253,0,0,1-8.423,8.4c-3.176,2.5-6.566,4.763-9.957,7.051a113.307,113.307,0,0,0,10.845-5.786,44.426,44.426,0,0,0,9.661-7.912,31.038,31.038,0,0,0,3.741-5.194,27.043,27.043,0,0,0,2.557-6,24.812,24.812,0,0,0,.7-3.31l.081-.754.027-.377v-.484l.027-1.7A21.976,21.976,0,0,0,92.024,21.175Z" transform="translate(0 0)"/><g transform="translate(110.216 27.338)"><path class="e" d="M419.726,118.438h-6.97v6.916H409.5V109.1h3.256v6.674h6.97V109.1h3.256v16.254h-3.256Z" transform="translate(-409.5 -107.082)"/><path class="e" d="M475.039,134.094a6.647,6.647,0,1,1,6.755-6.647A6.473,6.473,0,0,1,475.039,134.094Zm0-2.826c1.722,0,3.364-1.265,3.364-3.821,0-2.583-1.615-3.821-3.337-3.821s-3.283,1.238-3.283,3.821C471.81,130,473.29,131.268,475.039,131.268Z" transform="translate(-452.622 -115.633)"/><path class="e" d="M529.824,134.021c-3.229,0-5.49-1.884-5.624-4.279h3.283a2.146,2.146,0,0,0,2.341,1.722c1.292,0,1.991-.592,1.991-1.319,0-2.314-7.293-.834-7.293-5.571,0-2.153,1.911-3.875,5.113-3.875,3.122,0,5.005,1.7,5.194,4.252h-3.122a1.909,1.909,0,0,0-2.153-1.668c-1.211,0-1.83.484-1.83,1.238,0,2.341,7.158.888,7.239,5.624C534.884,132.353,532.973,134.021,529.824,134.021Z" transform="translate(-493.333 -115.56)"/><path class="e" d="M581.408,120.7c3.31,0,5.894,2.583,5.894,6.62s-2.583,6.7-5.894,6.7a5.234,5.234,0,0,1-4.252-2.045v15.8H573.9V120.915h3.256v1.857A5.216,5.216,0,0,1,581.408,120.7Zm-.861,2.879a3.819,3.819,0,0,0,0,7.589,3.524,3.524,0,0,0,3.418-3.848A3.428,3.428,0,0,0,580.547,123.579Z" transform="translate(-529.658 -115.56)"/><path class="e" d="M631.3,103.511a1.993,1.993,0,1,1,1.991,1.911A1.9,1.9,0,0,1,631.3,103.511Zm.35,3.445h3.256v12.89H631.65Z" transform="translate(-571.611 -101.6)"/><path class="e" d="M654.334,115.494H652.8V112.8h1.534v-3.2h3.283v3.2H660.5v2.691h-2.879v6.243c0,.861.35,1.238,1.372,1.238H660.5v2.745h-2.045c-2.476,0-4.117-1.05-4.117-4.01Z" transform="translate(-587.325 -107.447)"/><path class="e" d="M692.994,120.7a5.046,5.046,0,0,1,4.252,2.045v-1.83h3.283v12.89h-3.283v-1.884a5.069,5.069,0,0,1-4.279,2.1c-3.256,0-5.867-2.691-5.867-6.7S689.71,120.7,692.994,120.7Zm.834,2.879a3.423,3.423,0,0,0-3.391,3.741,3.521,3.521,0,0,0,3.391,3.848,3.815,3.815,0,0,0,0-7.589Z" transform="translate(-612.395 -115.56)"/><path class="e" d="M748.8,105.4h3.283v17.223h-3.256V105.4Z" transform="translate(-657.49 -104.377)"/><path class="e" d="M775.694,120.7a5.046,5.046,0,0,1,4.252,2.045v-1.83h3.283v12.89h-3.283v-1.884a5.069,5.069,0,0,1-4.279,2.1c-3.256,0-5.867-2.691-5.867-6.7S772.41,120.7,775.694,120.7Zm.834,2.879a3.423,3.423,0,0,0-3.391,3.741,3.521,3.521,0,0,0,3.391,3.848,3.815,3.815,0,0,0,0-7.589Z" transform="translate(-672.839 -115.56)"/><path class="e" d="M834.856,133.979H831.6v-12.89h3.256v1.991a4.459,4.459,0,0,1,3.956-2.18v3.418h-.861c-1.938,0-3.095.754-3.095,3.229Z" transform="translate(-718.008 -115.706)"/></g></g></svg>