<svg xmlns="http://www.w3.org/2000/svg" width="29.225" height="27.409" viewBox="0 0 29.225 27.409"><defs><style>.a{fill:#7e7e7e;}</style></defs><g transform="translate(-11.875 -14.713)"><g transform="translate(33.787 17.997)"><path class="a" d="M72.179,29.244a.437.437,0,0,1-.437-.437,5.213,5.213,0,0,0-3.18-4.8A.437.437,0,1,1,68.9,23.2a6.073,6.073,0,0,1,3.713,5.6A.437.437,0,0,1,72.179,29.244Z" transform="translate(-68.295 -23.17)"/></g><g transform="translate(11.875 20.651)"><path class="a" d="M25.058,44.207a.437.437,0,0,1-.408-.281l-2.938-7.692L20.7,39.574a.437.437,0,0,1-.418.311H12.312a.437.437,0,0,1,0-.874H19.96l1.284-4.255a.437.437,0,0,1,.826-.03l2.9,7.6,3.055-12a.436.436,0,0,1,.4-.328.428.428,0,0,1,.433.282l3.289,8.726h8.513a.437.437,0,1,1,0,.874H31.848a.437.437,0,0,1-.409-.283l-2.905-7.709L25.481,43.878a.436.436,0,0,1-.4.328Z" transform="translate(-11.875 -30.002)"/></g><g transform="translate(12.93 14.713)"><path class="a" d="M39.937,28.552a.437.437,0,0,1-.338-.713A7.559,7.559,0,0,0,28.634,17.512a.437.437,0,0,1-.582,0,7.55,7.55,0,0,0-12.587,5.62,7.394,7.394,0,0,0,1.648,4.7.437.437,0,0,1-.669.562,8.281,8.281,0,0,1-1.853-5.264,8.423,8.423,0,0,1,13.751-6.52,8.434,8.434,0,0,1,11.933,11.78A.437.437,0,0,1,39.937,28.552Z" transform="translate(-14.592 -14.713)"/><g transform="translate(5.194 16.987)"><path class="a" d="M36.54,68.873h0a.436.436,0,0,1-.332-.154L28.07,59.172a.437.437,0,1,1,.665-.567l7.805,9.158,7.814-9.158a.437.437,0,1,1,.664.567L36.872,68.72A.435.435,0,0,1,36.54,68.873Z" transform="translate(-27.966 -58.451)"/></g></g></g></svg>