<?xml version="1.0" encoding="UTF-8" standalone="no"?>
<svg
   xmlns:dc="http://purl.org/dc/elements/1.1/"
   xmlns:cc="http://creativecommons.org/ns#"
   xmlns:rdf="http://www.w3.org/1999/02/22-rdf-syntax-ns#"
   xmlns:svg="http://www.w3.org/2000/svg"
   xmlns="http://www.w3.org/2000/svg"
   xmlns:sodipodi="http://sodipodi.sourceforge.net/DTD/sodipodi-0.dtd"
   xmlns:inkscape="http://www.inkscape.org/namespaces/inkscape"
   version="1.1"
   id="Layer_1"
   x="0px"
   y="0px"
   width="122.879"
   height="122.8"
   viewBox="0 0 122.879 122.8"
   enable-background="new 0 0 122.879 88.855"
   xml:space="preserve"
   sodipodi:docname="mail-alert.svg"
   inkscape:version="1.0.2 (e86c8708, 2021-01-15)"><metadata
     id="metadata11"><rdf:RDF><cc:Work
         rdf:about=""><dc:format>image/svg+xml</dc:format><dc:type
           rdf:resource="http://purl.org/dc/dcmitype/StillImage" /><dc:title /></cc:Work></rdf:RDF></metadata><defs
     id="defs9" /><sodipodi:namedview
     pagecolor="#ffffff"
     bordercolor="#666666"
     borderopacity="1"
     objecttolerance="10"
     gridtolerance="10"
     guidetolerance="10"
     inkscape:pageopacity="0"
     inkscape:pageshadow="2"
     inkscape:window-width="1680"
     inkscape:window-height="997"
     id="namedview7"
     showgrid="false"
     inkscape:zoom="3.9443175"
     inkscape:cx="-1.3020101"
     inkscape:cy="63.684511"
     inkscape:window-x="0"
     inkscape:window-y="25"
     inkscape:window-maximized="1"
     inkscape:current-layer="g4"
     inkscape:document-rotation="0"
     showguides="true"
     inkscape:guide-bbox="true"><sodipodi:guide
       position="-80,130.4652"
       orientation="-1,0"
       id="guide837"
       inkscape:label=""
       inkscape:locked="false"
       inkscape:color="rgb(0,0,255)" /><sodipodi:guide
       position="-83,129.75764"
       orientation="-1,0"
       id="guide839"
       inkscape:label=""
       inkscape:locked="false"
       inkscape:color="rgb(0,0,255)" /><sodipodi:guide
       position="-77,132.82372"
       orientation="-1,0"
       id="guide841"
       inkscape:label=""
       inkscape:locked="false"
       inkscape:color="rgb(0,0,255)" /></sodipodi:namedview><g
     id="g4"><path
       d="M 6.6198994,26.385605 H 108.79628 c 1.82122,0 3.4762,0.720503 4.67469,1.877482 1.19944,1.158794 1.94427,2.760416 1.94427,4.518117 v 67.838906 c 0,1.32577 -0.42361,2.56078 -1.14683,3.58528 -0.13244,0.33121 -0.33908,0.63974 -0.62179,0.90199 -0.1888,0.1715 -0.39637,0.31215 -0.61616,0.41832 -1.15059,0.9265 -2.62899,1.49092 -4.23418,1.49092 H 6.6198994 c -1.8193452,0 -3.4761986,-0.7196 -4.676572,-1.87839 C 0.74577187,103.98034 0,102.38144 0,100.62011 V 32.781204 C 0,31.019874 0.74389335,29.420066 1.9423882,28.263087 3.140883,27.104293 4.7967971,26.385605 6.6198994,26.385605 Z M 5.0776357,97.929569 40.885956,63.247416 5.0776357,35.040717 Z M 44.829906,66.353565 7.9123202,102.11012 H 107.19297 L 71.912508,66.359009 60.28166,75.933353 v 0 c -0.91202,0.75317 -2.277703,0.79582 -3.243262,0.03902 z M 75.773803,63.181173 110.33761,98.206337 V 34.732189 Z M 8.328412,31.291197 58.598508,70.890738 106.71019,31.291197 Z"
       id="path2"
       style="fill:#7e7e7e;fill-opacity:1;stroke-width:0.92321" /><circle
       style="fill:#ffffff;fill-opacity:1;stroke-width:4.44366"
       id="path831-5"
       cx="95.924507"
       cy="27.833546"
       r="27.5" /><g
       id="g866"
       transform="matrix(1.2566863,0,0,1.1806275,-33.758527,2.1267845)"><circle
         style="fill:#ff0000;fill-opacity:1;stroke-width:2.42381"
         id="path831"
         cx="101.78223"
         cy="24.672815"
         r="15" /><circle
         style="fill:#ffffff;fill-opacity:1;stroke-width:0.738079"
         id="path833"
         cx="101.78223"
         cy="32.901329"
         r="3" /><rect
         style="fill:#ffffff;fill-opacity:1;stroke-width:0.840629"
         id="rect835"
         width="6"
         height="14.386985"
         x="98.782234"
         y="13.092667"
         ry="3" /></g></g></svg>
