<?xml version="1.0" encoding="UTF-8" standalone="no"?>
<svg
   xmlns:dc="http://purl.org/dc/elements/1.1/"
   xmlns:cc="http://creativecommons.org/ns#"
   xmlns:rdf="http://www.w3.org/1999/02/22-rdf-syntax-ns#"
   xmlns:svg="http://www.w3.org/2000/svg"
   xmlns="http://www.w3.org/2000/svg"
   xmlns:sodipodi="http://sodipodi.sourceforge.net/DTD/sodipodi-0.dtd"
   xmlns:inkscape="http://www.inkscape.org/namespaces/inkscape"
   version="1.1"
   id="Layer_1"
   x="0px"
   y="0px"
   width="130"
   height="130"
   viewBox="0 0 130 129.99999"
   enable-background="new 0 0 122.879 88.855"
   xml:space="preserve"
   sodipodi:docname="mail-close.svg"
   inkscape:version="1.0.2-2 (e86c870879, 2021-01-15)"><metadata
     id="metadata11"><rdf:RDF><cc:Work
         rdf:about=""><dc:format>image/svg+xml</dc:format><dc:type
           rdf:resource="http://purl.org/dc/dcmitype/StillImage" /><dc:title></dc:title></cc:Work></rdf:RDF></metadata><defs
     id="defs9" /><sodipodi:namedview
     pagecolor="#ffffff"
     bordercolor="#666666"
     borderopacity="1"
     objecttolerance="10"
     gridtolerance="10"
     guidetolerance="10"
     inkscape:pageopacity="0"
     inkscape:pageshadow="2"
     inkscape:window-width="1637"
     inkscape:window-height="870"
     id="namedview7"
     showgrid="false"
     inkscape:zoom="4.2399434"
     inkscape:cx="93.011493"
     inkscape:cy="48.857967"
     inkscape:window-x="242"
     inkscape:window-y="125"
     inkscape:window-maximized="0"
     inkscape:current-layer="g4"
     inkscape:document-rotation="0"
     inkscape:lockguides="false"
     showguides="true"
     inkscape:guide-bbox="true" /><g
     id="g4"><path
       d="M 10.608498,20.571998 H 119.3925 c 1.939,0 3.701,0.794 4.977,2.069 1.277,1.277 2.07,3.042 2.07,4.979 V 102.379 c 0,1.461 -0.451,2.822 -1.221,3.951 -0.141,0.365 -0.361,0.705 -0.662,0.994 -0.201,0.189 -0.422,0.344 -0.656,0.461 -1.225,1.021 -2.799,1.643 -4.508,1.643 H 10.608498 c -1.9370005,0 -3.7010005,-0.793 -4.9790005,-2.07 -1.275,-1.276 -2.069,-3.038 -2.069,-4.979 V 27.619998 c 0,-1.941 0.792,-3.704 2.068,-4.979 1.276,-1.277 3.039,-2.069 4.9800005,-2.069 z M 8.9664975,99.413999 47.090498,61.193998 8.9664975,30.109998 Z M 51.289498,64.616998 11.984498,104.021 H 117.6855 l -37.562003,-39.398002 -12.382999,10.551 v 0 c -0.971001,0.83 -2.425,0.877 -3.453001,0.043 z m 32.945,-3.496 36.799002,38.598004 V 29.769998 Z m -71.807,-35.143 53.521,43.639 51.223002,-43.639 z"
       id="path2"
       style="fill:#98c33e;fill-opacity:1" /></g></svg>
