<?xml version="1.0" encoding="UTF-8" standalone="no"?>
<svg
   xmlns:dc="http://purl.org/dc/elements/1.1/"
   xmlns:cc="http://creativecommons.org/ns#"
   xmlns:rdf="http://www.w3.org/1999/02/22-rdf-syntax-ns#"
   xmlns:svg="http://www.w3.org/2000/svg"
   xmlns="http://www.w3.org/2000/svg"
   xmlns:sodipodi="http://sodipodi.sourceforge.net/DTD/sodipodi-0.dtd"
   xmlns:inkscape="http://www.inkscape.org/namespaces/inkscape"
   version="1.1"
   id="Layer_1"
   x="0px"
   y="0px"
   width="122.879"
   height="122.8"
   viewBox="0 0 122.879 122.8"
   enable-background="new 0 0 122.879 88.855"
   xml:space="preserve"
   sodipodi:docname="mail.svg"
   inkscape:version="1.0.2 (e86c8708, 2021-01-15)"><metadata
     id="metadata11"><rdf:RDF><cc:Work
         rdf:about=""><dc:format>image/svg+xml</dc:format><dc:type
           rdf:resource="http://purl.org/dc/dcmitype/StillImage" /><dc:title /></cc:Work></rdf:RDF></metadata><defs
     id="defs9" /><sodipodi:namedview
     pagecolor="#ffffff"
     bordercolor="#666666"
     borderopacity="1"
     objecttolerance="10"
     gridtolerance="10"
     guidetolerance="10"
     inkscape:pageopacity="0"
     inkscape:pageshadow="2"
     inkscape:window-width="1440"
     inkscape:window-height="785"
     id="namedview7"
     showgrid="false"
     inkscape:zoom="2.7384775"
     inkscape:cx="-4.4093999"
     inkscape:cy="44.080673"
     inkscape:window-x="0"
     inkscape:window-y="25"
     inkscape:window-maximized="1"
     inkscape:current-layer="g4"
     inkscape:document-rotation="0" /><g
     id="g4"><path
       d="M 6.4863622,29.786377 H 106.60163 c 1.78449,0 3.40608,0.690115 4.5804,1.798296 1.17524,1.10992 1.90504,2.64399 1.90504,4.327557 v 64.97767 c 0,1.26985 -0.41506,2.45278 -1.1237,3.43406 -0.12976,0.31724 -0.33223,0.61275 -0.60925,0.86394 -0.18498,0.16428 -0.38836,0.299 -0.60372,0.40069 -1.12738,0.88741 -2.57595,1.42803 -4.14877,1.42803 H 6.4863622 c -1.7826452,0 -3.4060764,-0.68924 -4.5822357,-1.79917 C 0.73072809,104.1084 0,102.57694 0,100.8899 V 35.91223 c 0,-1.687043 0.72888747,-3.219376 1.9032062,-4.327557 1.1743187,-1.109919 2.7968296,-1.798296 4.583156,-1.798296 z M 4.9752092,98.312834 40.061202,65.093469 4.9752092,38.076443 Z M 43.925594,68.068609 7.7527122,102.31706 H 105.03066 L 70.461883,68.073825 59.065654,77.244351 v 0 c -0.893624,0.721404 -2.231758,0.762255 -3.177839,0.03737 z M 74.245287,65.03002 108.11187,98.577928 v -60.797 z M 8.1604106,34.485066 57.416454,72.414419 104.55762,34.485066 Z"
       id="path2"
       style="fill:#7e7e7e;fill-opacity:1;stroke-width:0.894371" /></g></svg>
