<?xml version="1.0" encoding="UTF-8" standalone="no"?>
<svg
   xmlns:dc="http://purl.org/dc/elements/1.1/"
   xmlns:cc="http://creativecommons.org/ns#"
   xmlns:rdf="http://www.w3.org/1999/02/22-rdf-syntax-ns#"
   xmlns:svg="http://www.w3.org/2000/svg"
   xmlns="http://www.w3.org/2000/svg"
   xmlns:sodipodi="http://sodipodi.sourceforge.net/DTD/sodipodi-0.dtd"
   xmlns:inkscape="http://www.inkscape.org/namespaces/inkscape"
   version="1.1"
   id="Layer_1"
   x="0px"
   y="0px"
   width="117.883px"
   height="122.881px"
   viewBox="0 0 117.883 122.881"
   enable-background="new 0 0 117.883 122.881"
   xml:space="preserve"
   sodipodi:docname="envelope-open-line.svg"
   inkscape:version="1.0.2-2 (e86c870879, 2021-01-15)"><metadata
     id="metadata11"><rdf:RDF><cc:Work
         rdf:about=""><dc:format>image/svg+xml</dc:format><dc:type
           rdf:resource="http://purl.org/dc/dcmitype/StillImage" /></cc:Work></rdf:RDF></metadata><defs
     id="defs9" /><sodipodi:namedview
     pagecolor="#ffffff"
     bordercolor="#666666"
     borderopacity="1"
     objecttolerance="10"
     gridtolerance="10"
     guidetolerance="10"
     inkscape:pageopacity="0"
     inkscape:pageshadow="2"
     inkscape:window-width="1557"
     inkscape:window-height="979"
     id="namedview7"
     showgrid="false"
     inkscape:zoom="3.4586308"
     inkscape:cx="0.93338986"
     inkscape:cy="38.196266"
     inkscape:window-x="0"
     inkscape:window-y="0"
     inkscape:window-maximized="0"
     inkscape:current-layer="Layer_1" /><g
     id="g4"
     style="fill:#98c33e;fill-opacity:1"><path
       d="M77.992,5.742v25.121h24.325L77.992,5.742L77.992,5.742z M12.444,46.036l34.217,30.568 c0.051,0.041,0.101,0.086,0.149,0.133l11.555,10.322l46.586-40.698V36.35H75.248c-1.515,0-2.743-1.229-2.743-2.743V5.487H12.444 V46.036L12.444,46.036z M110.438,41.567c0.747-0.645,1.576-0.928,2.437-0.928c0.728,0,1.419,0.217,2.053,0.597 c0.465,0.278,0.892,0.647,1.264,1.073c0.973,1.114,1.691,2.833,1.691,4.26v70.645c0,1.549-0.637,2.963-1.662,3.994l-0.006,0.006 l-0.006,0.004l-0.006,0.008c-1.031,1.021-2.441,1.656-3.987,1.656H5.667c-1.549,0-2.962-0.637-3.994-1.664l-0.005-0.004 l-0.005-0.006l-0.006-0.006C0.634,120.17,0,118.758,0,117.213V46.568c0-1.451,0.74-3.203,1.73-4.313 c0.362-0.406,0.788-0.764,1.262-1.043c0.626-0.368,1.305-0.578,2.016-0.578c0.678,0,1.335,0.178,1.949,0.57V2.744 C6.957,1.229,8.186,0,9.701,0h69.196c0.848,0,1.605,0.384,2.108,0.988l28.651,29.588c0.517,0.532,0.774,1.22,0.774,1.908h0.008 v0.788c0.014,0.11,0.021,0.222,0.021,0.336c0,0.113-0.007,0.226-0.021,0.335V41.567L110.438,41.567z M56.525,92.742L44.902,82.359 L5.487,116.9v0.313c0,0.055,0.017,0.098,0.044,0.125l0,0l0.011,0.01c0.027,0.027,0.071,0.045,0.125,0.045h106.549 c0.054,0,0.098-0.018,0.125-0.045v0.002l0.011-0.012c0.027-0.027,0.044-0.07,0.044-0.125v-0.186l-39.949-35.01L60.147,92.764 l-0.001-0.002C59.122,93.66,57.565,93.672,56.525,92.742L56.525,92.742z M40.793,78.688L5.487,47.148v62.48L40.793,78.688 L40.793,78.688z M112.396,109.756V47.119l-35.794,31.27L112.396,109.756L112.396,109.756z"
       id="path2"
       style="fill:#98c33e;fill-opacity:1" /></g></svg>
