<?xml version="1.0" encoding="UTF-8" standalone="no"?>
<svg
   xmlns:dc="http://purl.org/dc/elements/1.1/"
   xmlns:cc="http://creativecommons.org/ns#"
   xmlns:rdf="http://www.w3.org/1999/02/22-rdf-syntax-ns#"
   xmlns:svg="http://www.w3.org/2000/svg"
   xmlns="http://www.w3.org/2000/svg"
   xmlns:sodipodi="http://sodipodi.sourceforge.net/DTD/sodipodi-0.dtd"
   xmlns:inkscape="http://www.inkscape.org/namespaces/inkscape"
   version="1.1"
   id="Layer_1"
   x="0px"
   y="0px"
   width="122.879"
   height="122.8"
   viewBox="0 0 122.879 122.8"
   enable-background="new 0 0 122.879 88.855"
   xml:space="preserve"
   sodipodi:docname="mail-alert.svg"
   inkscape:version="1.0.2-2 (e86c870879, 2021-01-15)"><metadata
     id="metadata11"><rdf:RDF><cc:Work
         rdf:about=""><dc:format>image/svg+xml</dc:format><dc:type
           rdf:resource="http://purl.org/dc/dcmitype/StillImage" /><dc:title /></cc:Work></rdf:RDF></metadata><defs
     id="defs9" /><sodipodi:namedview
     pagecolor="#ffffff"
     bordercolor="#666666"
     borderopacity="1"
     objecttolerance="10"
     gridtolerance="10"
     guidetolerance="10"
     inkscape:pageopacity="0"
     inkscape:pageshadow="2"
     inkscape:window-width="1920"
     inkscape:window-height="1017"
     id="namedview7"
     showgrid="false"
     inkscape:zoom="2.9980927"
     inkscape:cx="-1.3020101"
     inkscape:cy="63.684511"
     inkscape:window-x="-8"
     inkscape:window-y="-8"
     inkscape:window-maximized="1"
     inkscape:current-layer="g4"
     inkscape:document-rotation="0"
     showguides="true"
     inkscape:guide-bbox="true"><sodipodi:guide
       position="-80,130.4652"
       orientation="-1,0"
       id="guide837"
       inkscape:label=""
       inkscape:locked="false"
       inkscape:color="rgb(0,0,255)" /><sodipodi:guide
       position="-83,129.75764"
       orientation="-1,0"
       id="guide839"
       inkscape:label=""
       inkscape:locked="false"
       inkscape:color="rgb(0,0,255)" /><sodipodi:guide
       position="-77,132.82372"
       orientation="-1,0"
       id="guide841"
       inkscape:label=""
       inkscape:locked="false"
       inkscape:color="rgb(0,0,255)" /></sodipodi:namedview><g
     id="g4"><path
       d="m 7.048,18.16062 h 108.784 c 1.939,0 3.701,0.794 4.977,2.069 1.277,1.277 2.07,3.042 2.07,4.979 v 74.759 c 0,1.461 -0.451,2.822 -1.221,3.951 -0.141,0.365 -0.361,0.705 -0.662,0.994 -0.201,0.189 -0.422,0.344 -0.656,0.461 -1.225,1.021 -2.799,1.643 -4.508,1.643 H 7.048 c -1.937,0 -3.701,-0.793 -4.979,-2.07 C 0.794,103.67062 0,101.90862 0,99.96762 v -74.759 c 0,-1.941 0.792,-3.704 2.068,-4.979 1.276,-1.277 3.039,-2.069 4.98,-2.069 z m -1.642,78.842 38.124,-38.22 -38.124,-31.084 z m 42.323,-34.797 -39.305,39.404 h 105.701 l -37.562,-39.398 -12.383,10.551 v 0 c -0.971,0.83 -2.425,0.877 -3.453,0.043 z m 32.945,-3.496 36.799,38.598 v -69.949 z m -71.807,-35.143 53.521,43.639 51.223,-43.639 z"
       id="path2"
       style="fill:#7e7e7e;fill-opacity:1" /><circle
       style="fill:#ffffff;fill-opacity:1;stroke-width:4.44366"
       id="path831-5"
       cx="95.924507"
       cy="27.833546"
       r="27.5" /><g
       id="g866"
       transform="matrix(1.375,0,0,1.375,-44.02605,-6.0915765)"><circle
         style="fill:#ff0000;fill-opacity:1;stroke-width:2.42381"
         id="path831"
         cx="101.78223"
         cy="24.672815"
         r="15" /><circle
         style="fill:#ffffff;fill-opacity:1;stroke-width:0.738079"
         id="path833"
         cx="101.78223"
         cy="32.901329"
         r="3" /><rect
         style="fill:#ffffff;fill-opacity:1;stroke-width:0.840629"
         id="rect835"
         width="6"
         height="14.386985"
         x="98.782234"
         y="13.092667"
         ry="3" /></g></g></svg>
