<?xml version="1.0" encoding="UTF-8" standalone="no"?>
<svg
   xmlns:dc="http://purl.org/dc/elements/1.1/"
   xmlns:cc="http://creativecommons.org/ns#"
   xmlns:rdf="http://www.w3.org/1999/02/22-rdf-syntax-ns#"
   xmlns:svg="http://www.w3.org/2000/svg"
   xmlns="http://www.w3.org/2000/svg"
   xmlns:sodipodi="http://sodipodi.sourceforge.net/DTD/sodipodi-0.dtd"
   xmlns:inkscape="http://www.inkscape.org/namespaces/inkscape"
   version="1.1"
   id="Layer_1"
   x="0px"
   y="0px"
   width="130"
   height="130"
   viewBox="0 0 130 130"
   enable-background="new 0 0 117.883 122.881"
   xml:space="preserve"
   sodipodi:docname="mail-all.svg"
   inkscape:version="1.0.2-2 (e86c870879, 2021-01-15)"><metadata
     id="metadata11"><rdf:RDF><cc:Work
         rdf:about=""><dc:format>image/svg+xml</dc:format><dc:type
           rdf:resource="http://purl.org/dc/dcmitype/StillImage" /><dc:title></dc:title></cc:Work></rdf:RDF></metadata><defs
     id="defs9" /><sodipodi:namedview
     pagecolor="#ffffff"
     bordercolor="#666666"
     borderopacity="1"
     objecttolerance="10"
     gridtolerance="10"
     guidetolerance="10"
     inkscape:pageopacity="0"
     inkscape:pageshadow="2"
     inkscape:window-width="1557"
     inkscape:window-height="979"
     id="namedview7"
     showgrid="false"
     inkscape:zoom="1.7293154"
     inkscape:cx="40.268052"
     inkscape:cy="31.733858"
     inkscape:window-x="0"
     inkscape:window-y="0"
     inkscape:window-maximized="0"
     inkscape:current-layer="Layer_1"
     inkscape:document-rotation="0" /><g
     id="g4"
     style="fill:#98c33e;fill-opacity:1"
     transform="matrix(0.75,0,0,0.75,4.1093735,4.3711247)"><path
       d="m 77.992,5.742 v 25.121 h 24.325 z M 12.444,46.036 46.661,76.604 c 0.051,0.041 0.101,0.086 0.149,0.133 L 58.365,87.059 104.951,46.361 V 36.35 H 75.248 c -1.515,0 -2.743,-1.229 -2.743,-2.743 V 5.487 H 12.444 Z m 97.994,-4.469 c 0.747,-0.645 1.576,-0.928 2.437,-0.928 0.728,0 1.419,0.217 2.053,0.597 0.465,0.278 0.892,0.647 1.264,1.073 0.973,1.114 1.691,2.833 1.691,4.26 v 70.645 c 0,1.549 -0.637,2.963 -1.662,3.994 l -0.006,0.006 -0.006,0.004 -0.006,0.008 c -1.031,1.021 -2.441,1.656 -3.987,1.656 H 5.667 c -1.549,0 -2.962,-0.637 -3.994,-1.664 L 1.668,121.214 1.663,121.208 1.657,121.202 C 0.634,120.17 0,118.758 0,117.213 V 46.568 c 0,-1.451 0.74,-3.203 1.73,-4.313 0.362,-0.406 0.788,-0.764 1.262,-1.043 0.626,-0.368 1.305,-0.578 2.016,-0.578 0.678,0 1.335,0.178 1.949,0.57 V 2.744 C 6.957,1.229 8.186,0 9.701,0 h 69.196 c 0.848,0 1.605,0.384 2.108,0.988 l 28.651,29.588 c 0.517,0.532 0.774,1.22 0.774,1.908 h 0.008 v 0.788 c 0.014,0.11 0.021,0.222 0.021,0.336 0,0.113 -0.007,0.226 -0.021,0.335 z M 56.525,92.742 44.902,82.359 5.487,116.9 v 0.313 c 0,0.055 0.017,0.098 0.044,0.125 v 0 l 0.011,0.01 c 0.027,0.027 0.071,0.045 0.125,0.045 h 106.549 c 0.054,0 0.098,-0.018 0.125,-0.045 v 0.002 l 0.011,-0.012 c 0.027,-0.027 0.044,-0.07 0.044,-0.125 v -0.186 l -39.949,-35.01 -12.3,10.747 -10e-4,-0.002 c -1.024,0.898 -2.581,0.91 -3.621,-0.02 z M 40.793,78.688 5.487,47.148 v 62.48 z m 71.603,31.068 V 47.119 l -35.794,31.27 z"
       id="path2"
       style="fill:#98c33e;fill-opacity:1" /></g><rect
     style="fill:#ffffff;stroke-width:1.37365"
     id="rect840"
     width="86.739532"
     height="61.80191"
     x="35.99757"
     y="61.048595" /><path
     d="m 39.017372,58.986876 h 81.587998 c 1.45425,0 2.77575,0.595499 3.73275,1.55175 0.95775,0.957749 1.5525,2.2815 1.5525,3.734249 v 56.069255 c 0,1.09575 -0.33825,2.1165 -0.91575,2.96325 -0.10575,0.27375 -0.27075,0.52875 -0.4965,0.7455 -0.15075,0.14175 -0.3165,0.258 -0.492,0.34575 -0.91875,0.76575 -2.09925,1.23225 -3.381,1.23225 H 39.017372 c -1.45275,0 -2.77575,-0.59475 -3.73425,-1.5525 -0.956249,-0.957 -1.55175,-2.2785 -1.55175,-3.73425 V 64.272875 c 0,-1.45575 0.594001,-2.777999 1.551,-3.734249 0.957001,-0.95775 2.27925,-1.55175 3.735,-1.55175 z m -1.2315,59.131504 28.593,-28.665004 -28.593,-23.313001 z m 31.74225,-26.097754 -29.47875,29.553004 h 79.275748 l -28.171497,-29.548504 -9.287251,7.91325 v 0 c -0.72825,0.622504 -1.81875,0.657754 -2.589749,0.03225 z m 24.708763,-2.622 27.599235,28.948504 V 65.885376 Z M 40.381622,63.041375 80.522372,95.770626 118.93962,63.041375 Z"
     id="path2-8"
     style="fill:#31ade0;fill-opacity:1;stroke-width:0.75" /></svg>
